<svg xmlns="http://www.w3.org/2000/svg" xmlns:xlink="http://www.w3.org/1999/xlink" width="1080" zoomAndPan="magnify" viewBox="0 0 810 809.999993" height="1080" preserveAspectRatio="xMidYMid meet" version="1.0"><defs><clipPath id="ddd592abfc"><path d="M 189 338 L 621 338 L 621 675 L 189 675 Z M 189 338 " clip-rule="nonzero"/></clipPath></defs><rect x="-81" width="972" fill="#ffffff" y="-80.999999" height="971.999992" fill-opacity="1"/><rect x="-81" width="972" fill="#ffffff" y="-80.999999" height="971.999992" fill-opacity="1"/><path fill="#00a5e9" d="M 742.5 256.664062 C 742.5 258.210938 742.460938 259.757812 742.386719 261.300781 C 742.308594 262.84375 742.195312 264.386719 742.046875 265.925781 C 741.894531 267.464844 741.703125 269 741.476562 270.53125 C 741.25 272.058594 740.984375 273.582031 740.683594 275.101562 C 740.382812 276.617188 740.042969 278.125 739.667969 279.625 C 739.292969 281.125 738.878906 282.617188 738.429688 284.097656 C 737.980469 285.574219 737.496094 287.042969 736.976562 288.5 C 736.453125 289.957031 735.898438 291.398438 735.304688 292.828125 C 734.714844 294.257812 734.089844 295.667969 733.425781 297.066406 C 732.765625 298.464844 732.070312 299.847656 731.339844 301.210938 C 730.613281 302.574219 729.851562 303.921875 729.054688 305.246094 C 728.261719 306.574219 727.433594 307.878906 726.574219 309.164062 C 725.714844 310.453125 724.824219 311.714844 723.902344 312.957031 C 722.980469 314.199219 722.03125 315.417969 721.050781 316.613281 C 720.066406 317.808594 719.058594 318.980469 718.019531 320.125 C 716.980469 321.273438 715.914062 322.390625 714.820312 323.484375 C 713.726562 324.578125 712.609375 325.644531 711.460938 326.683594 C 710.316406 327.722656 709.144531 328.730469 707.949219 329.714844 C 706.753906 330.695312 705.535156 331.644531 704.292969 332.566406 C 703.050781 333.488281 701.789062 334.378906 700.5 335.238281 C 699.214844 336.097656 697.910156 336.925781 696.582031 337.71875 C 695.257812 338.515625 693.910156 339.277344 692.546875 340.003906 C 691.183594 340.734375 689.800781 341.429688 688.402344 342.089844 C 687.003906 342.753906 685.59375 343.378906 684.164062 343.96875 C 682.734375 344.5625 681.292969 345.117188 679.835938 345.640625 C 678.378906 346.160156 676.910156 346.644531 675.433594 347.09375 C 673.953125 347.542969 672.460938 347.957031 670.960938 348.332031 C 669.460938 348.707031 667.953125 349.046875 666.4375 349.347656 C 664.917969 349.648438 663.394531 349.914062 661.867188 350.140625 C 660.335938 350.367188 658.800781 350.558594 657.261719 350.710938 C 655.722656 350.859375 654.179688 350.972656 652.636719 351.050781 C 651.09375 351.125 649.546875 351.164062 648 351.164062 C 646.453125 351.164062 644.90625 351.125 643.363281 351.050781 C 641.816406 350.972656 640.277344 350.859375 638.738281 350.710938 C 637.199219 350.558594 635.664062 350.367188 634.132812 350.140625 C 632.605469 349.914062 631.082031 349.648438 629.5625 349.347656 C 628.046875 349.046875 626.539062 348.707031 625.039062 348.332031 C 623.539062 347.957031 622.046875 347.542969 620.566406 347.09375 C 619.089844 346.644531 617.621094 346.160156 616.164062 345.640625 C 614.707031 345.117188 613.265625 344.5625 611.835938 343.96875 C 610.40625 343.378906 608.992188 342.753906 607.597656 342.089844 C 606.199219 341.429688 604.816406 340.734375 603.453125 340.003906 C 602.089844 339.277344 600.742188 338.515625 599.417969 337.71875 C 598.089844 336.925781 596.785156 336.097656 595.5 335.238281 C 594.210938 334.378906 592.949219 333.488281 591.707031 332.566406 C 590.464844 331.644531 589.246094 330.695312 588.050781 329.714844 C 586.855469 328.730469 585.683594 327.722656 584.539062 326.683594 C 583.390625 325.644531 582.273438 324.578125 581.179688 323.484375 C 580.085938 322.390625 579.019531 321.273438 577.980469 320.125 C 576.941406 318.980469 575.929688 317.808594 574.949219 316.613281 C 573.96875 315.417969 573.019531 314.199219 572.097656 312.957031 C 571.175781 311.714844 570.285156 310.453125 569.425781 309.164062 C 568.566406 307.878906 567.738281 306.574219 566.945312 305.246094 C 566.148438 303.921875 565.386719 302.574219 564.660156 301.210938 C 563.929688 299.847656 563.234375 298.464844 562.574219 297.066406 C 561.910156 295.667969 561.285156 294.257812 560.691406 292.828125 C 560.101562 291.398438 559.546875 289.957031 559.023438 288.5 C 558.503906 287.042969 558.019531 285.574219 557.570312 284.097656 C 557.121094 282.617188 556.707031 281.125 556.332031 279.625 C 555.957031 278.125 555.617188 276.617188 555.316406 275.101562 C 555.015625 273.582031 554.75 272.058594 554.523438 270.53125 C 554.296875 269 554.105469 267.464844 553.953125 265.925781 C 553.804688 264.386719 553.691406 262.84375 553.613281 261.300781 C 553.539062 259.757812 553.5 258.210938 553.5 256.664062 C 553.5 255.117188 553.539062 253.570312 553.613281 252.027344 C 553.691406 250.484375 553.804688 248.941406 553.953125 247.402344 C 554.105469 245.863281 554.296875 244.328125 554.523438 242.796875 C 554.75 241.269531 555.015625 239.746094 555.316406 238.226562 C 555.617188 236.710938 555.957031 235.203125 556.332031 233.703125 C 556.707031 232.203125 557.121094 230.710938 557.570312 229.230469 C 558.019531 227.753906 558.503906 226.285156 559.023438 224.828125 C 559.546875 223.371094 560.101562 221.929688 560.691406 220.5 C 561.285156 219.070312 561.910156 217.65625 562.574219 216.261719 C 563.234375 214.863281 563.929688 213.480469 564.660156 212.117188 C 565.386719 210.753906 566.148438 209.40625 566.945312 208.082031 C 567.738281 206.753906 568.566406 205.449219 569.425781 204.164062 C 570.285156 202.875 571.175781 201.613281 572.097656 200.371094 C 573.019531 199.128906 573.96875 197.910156 574.949219 196.714844 C 575.929688 195.519531 576.941406 194.347656 577.980469 193.203125 C 579.019531 192.054688 580.085938 190.9375 581.179688 189.84375 C 582.273438 188.75 583.390625 187.683594 584.539062 186.644531 C 585.683594 185.605469 586.855469 184.59375 588.050781 183.613281 C 589.246094 182.632812 590.464844 181.683594 591.707031 180.761719 C 592.949219 179.839844 594.210938 178.949219 595.5 178.089844 C 596.785156 177.230469 598.089844 176.402344 599.417969 175.609375 C 600.742188 174.8125 602.089844 174.050781 603.453125 173.324219 C 604.816406 172.59375 606.199219 171.898438 607.597656 171.238281 C 608.992188 170.574219 610.40625 169.949219 611.835938 169.359375 C 613.265625 168.765625 614.707031 168.210938 616.164062 167.6875 C 617.621094 167.167969 619.089844 166.683594 620.566406 166.234375 C 622.046875 165.785156 623.539062 165.371094 625.039062 164.996094 C 626.539062 164.621094 628.046875 164.28125 629.5625 163.980469 C 631.082031 163.679688 632.605469 163.414062 634.132812 163.1875 C 635.664062 162.960938 637.199219 162.769531 638.738281 162.617188 C 640.277344 162.46875 641.816406 162.355469 643.363281 162.277344 C 644.90625 162.203125 646.453125 162.164062 648 162.164062 C 649.546875 162.164062 651.09375 162.203125 652.636719 162.277344 C 654.179688 162.355469 655.722656 162.46875 657.261719 162.617188 C 658.800781 162.769531 660.335938 162.960938 661.867188 163.1875 C 663.394531 163.414062 664.917969 163.679688 666.4375 163.980469 C 667.953125 164.28125 669.460938 164.621094 670.960938 164.996094 C 672.460938 165.371094 673.953125 165.785156 675.433594 166.234375 C 676.910156 166.683594 678.378906 167.167969 679.835938 167.6875 C 681.292969 168.210938 682.734375 168.765625 684.164062 169.359375 C 685.59375 169.949219 687.003906 170.574219 688.402344 171.238281 C 689.800781 171.898438 691.183594 172.59375 692.546875 173.324219 C 693.910156 174.050781 695.257812 174.8125 696.582031 175.609375 C 697.910156 176.402344 699.214844 177.230469 700.5 178.089844 C 701.789062 178.949219 703.050781 179.839844 704.292969 180.761719 C 705.535156 181.683594 706.753906 182.632812 707.949219 183.613281 C 709.144531 184.59375 710.316406 185.605469 711.460938 186.644531 C 712.609375 187.683594 713.726562 188.75 714.820312 189.84375 C 715.914062 190.9375 716.980469 192.054688 718.019531 193.203125 C 719.058594 194.347656 720.066406 195.519531 721.050781 196.714844 C 722.03125 197.910156 722.980469 199.128906 723.902344 200.371094 C 724.824219 201.613281 725.714844 202.875 726.574219 204.164062 C 727.433594 205.449219 728.261719 206.753906 729.054688 208.082031 C 729.851562 209.40625 730.613281 210.753906 731.339844 212.117188 C 732.070312 213.480469 732.765625 214.863281 733.425781 216.261719 C 734.089844 217.65625 734.714844 219.070312 735.304688 220.5 C 735.898438 221.929688 736.453125 223.371094 736.976562 224.828125 C 737.496094 226.285156 737.980469 227.753906 738.429688 229.230469 C 738.878906 230.710938 739.292969 232.203125 739.667969 233.703125 C 740.042969 235.203125 740.382812 236.710938 740.683594 238.226562 C 740.984375 239.746094 741.25 241.269531 741.476562 242.796875 C 741.703125 244.328125 741.894531 245.863281 742.046875 247.402344 C 742.195312 248.941406 742.308594 250.484375 742.386719 252.027344 C 742.460938 253.570312 742.5 255.117188 742.5 256.664062 Z M 742.5 256.664062 " fill-opacity="1" fill-rule="nonzero"/><path fill="#00a5e9" d="M 771.929688 338.472656 C 768.851562 343.148438 765.523438 347.632812 761.941406 351.933594 C 758.363281 356.234375 754.550781 360.320312 750.511719 364.191406 C 746.472656 368.0625 742.230469 371.699219 737.785156 375.09375 C 733.335938 378.488281 728.714844 381.625 723.914062 384.503906 C 719.113281 387.378906 714.171875 389.980469 709.078125 392.300781 C 703.988281 394.625 698.785156 396.652344 693.464844 398.390625 C 688.144531 400.128906 682.746094 401.566406 677.265625 402.699219 C 671.789062 403.828125 666.261719 404.652344 660.691406 405.164062 C 665.390625 418.152344 668.941406 431.445312 671.34375 445.046875 C 673.746094 458.648438 674.964844 472.351562 675 486.164062 L 675 567.164062 L 729 567.164062 C 730.324219 567.164062 731.652344 567.132812 732.972656 567.066406 C 734.296875 567 735.621094 566.902344 736.9375 566.773438 C 738.257812 566.644531 739.574219 566.480469 740.886719 566.289062 C 742.195312 566.09375 743.503906 565.867188 744.800781 565.609375 C 746.101562 565.347656 747.394531 565.058594 748.679688 564.738281 C 749.96875 564.414062 751.246094 564.0625 752.511719 563.675781 C 753.78125 563.292969 755.039062 562.875 756.289062 562.429688 C 757.535156 561.984375 758.773438 561.503906 759.996094 561 C 761.222656 560.492188 762.433594 559.953125 763.632812 559.386719 C 764.832031 558.820312 766.015625 558.222656 767.183594 557.597656 C 768.351562 556.976562 769.503906 556.320312 770.640625 555.640625 C 771.777344 554.957031 772.898438 554.25 774 553.511719 C 775.101562 552.777344 776.1875 552.011719 777.25 551.222656 C 778.316406 550.433594 779.359375 549.617188 780.386719 548.777344 C 781.410156 547.9375 782.414062 547.070312 783.394531 546.179688 C 784.378906 545.289062 785.339844 544.378906 786.277344 543.441406 C 787.214844 542.503906 788.125 541.542969 789.015625 540.558594 C 789.90625 539.578125 790.773438 538.574219 791.613281 537.550781 C 792.453125 536.523438 793.269531 535.480469 794.058594 534.414062 C 794.847656 533.351562 795.613281 532.265625 796.347656 531.164062 C 797.085938 530.0625 797.792969 528.945312 798.476562 527.804688 C 799.15625 526.667969 799.8125 525.515625 800.4375 524.347656 C 801.058594 523.179688 801.65625 521.996094 802.222656 520.796875 C 802.789062 519.597656 803.328125 518.386719 803.835938 517.160156 C 804.339844 515.9375 804.816406 514.699219 805.265625 513.453125 C 805.710938 512.203125 806.128906 510.945312 806.511719 509.675781 C 806.898438 508.410156 807.25 507.132812 807.574219 505.84375 C 807.894531 504.558594 808.183594 503.265625 808.445312 501.964844 C 808.703125 500.667969 808.929688 499.359375 809.125 498.050781 C 809.316406 496.738281 809.480469 495.421875 809.609375 494.101562 C 809.738281 492.785156 809.835938 491.460938 809.902344 490.136719 C 809.96875 488.816406 810 487.488281 810 486.164062 L 810 432.164062 C 809.992188 427.839844 809.773438 423.53125 809.351562 419.226562 C 808.929688 414.925781 808.300781 410.65625 807.46875 406.414062 C 806.632812 402.171875 805.601562 397.980469 804.363281 393.839844 C 803.128906 389.695312 801.695312 385.625 800.070312 381.621094 C 798.441406 377.617188 796.625 373.699219 794.625 369.867188 C 792.621094 366.039062 790.4375 362.3125 788.078125 358.691406 C 785.714844 355.070312 783.1875 351.574219 780.488281 348.195312 C 777.792969 344.816406 774.9375 341.578125 771.929688 338.472656 Z M 771.929688 338.472656 " fill-opacity="1" fill-rule="nonzero"/><path fill="#00a5e9" d="M 256.5 256.664062 C 256.5 258.210938 256.460938 259.757812 256.386719 261.300781 C 256.308594 262.84375 256.195312 264.386719 256.046875 265.925781 C 255.894531 267.464844 255.703125 269 255.476562 270.53125 C 255.25 272.058594 254.984375 273.582031 254.683594 275.101562 C 254.382812 276.617188 254.042969 278.125 253.667969 279.625 C 253.292969 281.125 252.878906 282.617188 252.429688 284.097656 C 251.980469 285.574219 251.496094 287.042969 250.976562 288.5 C 250.453125 289.957031 249.898438 291.398438 249.304688 292.828125 C 248.714844 294.257812 248.089844 295.667969 247.425781 297.066406 C 246.765625 298.464844 246.070312 299.847656 245.339844 301.210938 C 244.613281 302.574219 243.851562 303.921875 243.054688 305.246094 C 242.261719 306.574219 241.433594 307.878906 240.574219 309.164062 C 239.714844 310.453125 238.824219 311.714844 237.902344 312.957031 C 236.980469 314.199219 236.03125 315.417969 235.050781 316.613281 C 234.070312 317.808594 233.058594 318.980469 232.019531 320.125 C 230.980469 321.273438 229.914062 322.390625 228.820312 323.484375 C 227.726562 324.578125 226.609375 325.644531 225.460938 326.683594 C 224.316406 327.722656 223.144531 328.730469 221.949219 329.714844 C 220.753906 330.695312 219.535156 331.644531 218.292969 332.566406 C 217.050781 333.488281 215.789062 334.378906 214.5 335.238281 C 213.214844 336.097656 211.910156 336.925781 210.582031 337.71875 C 209.257812 338.515625 207.910156 339.277344 206.546875 340.003906 C 205.183594 340.734375 203.800781 341.429688 202.402344 342.089844 C 201.003906 342.753906 199.59375 343.378906 198.164062 343.96875 C 196.734375 344.5625 195.292969 345.117188 193.835938 345.640625 C 192.378906 346.160156 190.910156 346.644531 189.433594 347.09375 C 187.953125 347.542969 186.460938 347.957031 184.960938 348.332031 C 183.460938 348.707031 181.953125 349.046875 180.4375 349.347656 C 178.917969 349.648438 177.394531 349.914062 175.867188 350.140625 C 174.335938 350.367188 172.800781 350.558594 171.261719 350.710938 C 169.722656 350.859375 168.179688 350.972656 166.636719 351.050781 C 165.09375 351.125 163.546875 351.164062 162 351.164062 C 160.453125 351.164062 158.90625 351.125 157.363281 351.050781 C 155.820312 350.972656 154.277344 350.859375 152.738281 350.710938 C 151.199219 350.558594 149.664062 350.367188 148.132812 350.140625 C 146.605469 349.914062 145.082031 349.648438 143.5625 349.347656 C 142.046875 349.046875 140.539062 348.707031 139.039062 348.332031 C 137.539062 347.957031 136.046875 347.542969 134.566406 347.09375 C 133.089844 346.644531 131.621094 346.160156 130.164062 345.640625 C 128.707031 345.117188 127.265625 344.5625 125.835938 343.96875 C 124.40625 343.378906 122.992188 342.753906 121.597656 342.089844 C 120.199219 341.429688 118.816406 340.734375 117.453125 340.003906 C 116.089844 339.277344 114.742188 338.515625 113.417969 337.71875 C 112.089844 336.925781 110.785156 336.097656 109.5 335.238281 C 108.210938 334.378906 106.949219 333.488281 105.707031 332.566406 C 104.464844 331.644531 103.246094 330.695312 102.050781 329.714844 C 100.855469 328.730469 99.683594 327.722656 98.539062 326.683594 C 97.390625 325.644531 96.273438 324.578125 95.179688 323.484375 C 94.085938 322.390625 93.019531 321.273438 91.980469 320.125 C 90.941406 318.980469 89.929688 317.808594 88.949219 316.613281 C 87.96875 315.417969 87.019531 314.199219 86.097656 312.957031 C 85.175781 311.714844 84.285156 310.453125 83.425781 309.164062 C 82.566406 307.878906 81.738281 306.574219 80.945312 305.246094 C 80.148438 303.921875 79.386719 302.574219 78.660156 301.210938 C 77.929688 299.847656 77.234375 298.464844 76.574219 297.066406 C 75.910156 295.667969 75.285156 294.257812 74.695312 292.828125 C 74.101562 291.398438 73.546875 289.957031 73.023438 288.5 C 72.503906 287.042969 72.019531 285.574219 71.570312 284.097656 C 71.121094 282.617188 70.707031 281.125 70.332031 279.625 C 69.957031 278.125 69.617188 276.617188 69.316406 275.101562 C 69.015625 273.582031 68.75 272.058594 68.523438 270.53125 C 68.296875 269 68.105469 267.464844 67.953125 265.925781 C 67.804688 264.386719 67.691406 262.84375 67.613281 261.300781 C 67.539062 259.757812 67.5 258.210938 67.5 256.664062 C 67.5 255.117188 67.539062 253.570312 67.613281 252.027344 C 67.691406 250.484375 67.804688 248.941406 67.953125 247.402344 C 68.105469 245.863281 68.296875 244.328125 68.523438 242.796875 C 68.75 241.269531 69.015625 239.746094 69.316406 238.226562 C 69.617188 236.710938 69.957031 235.203125 70.332031 233.703125 C 70.707031 232.203125 71.121094 230.710938 71.570312 229.230469 C 72.019531 227.753906 72.503906 226.285156 73.023438 224.828125 C 73.546875 223.371094 74.101562 221.929688 74.695312 220.5 C 75.285156 219.070312 75.910156 217.65625 76.574219 216.261719 C 77.234375 214.863281 77.929688 213.480469 78.660156 212.117188 C 79.386719 210.753906 80.148438 209.40625 80.945312 208.082031 C 81.738281 206.753906 82.566406 205.449219 83.425781 204.164062 C 84.285156 202.875 85.175781 201.613281 86.097656 200.371094 C 87.019531 199.128906 87.96875 197.910156 88.949219 196.714844 C 89.929688 195.519531 90.941406 194.347656 91.980469 193.203125 C 93.019531 192.054688 94.085938 190.9375 95.179688 189.84375 C 96.273438 188.75 97.390625 187.683594 98.539062 186.644531 C 99.683594 185.605469 100.855469 184.59375 102.050781 183.613281 C 103.246094 182.632812 104.464844 181.683594 105.707031 180.761719 C 106.949219 179.839844 108.210938 178.949219 109.5 178.089844 C 110.785156 177.230469 112.089844 176.402344 113.417969 175.609375 C 114.742188 174.8125 116.089844 174.050781 117.453125 173.324219 C 118.816406 172.59375 120.199219 171.898438 121.597656 171.238281 C 122.992188 170.574219 124.40625 169.949219 125.835938 169.359375 C 127.265625 168.765625 128.707031 168.210938 130.164062 167.6875 C 131.621094 167.167969 133.089844 166.683594 134.566406 166.234375 C 136.046875 165.785156 137.539062 165.371094 139.039062 164.996094 C 140.539062 164.621094 142.046875 164.28125 143.5625 163.980469 C 145.082031 163.679688 146.605469 163.414062 148.132812 163.1875 C 149.664062 162.960938 151.199219 162.769531 152.738281 162.617188 C 154.277344 162.46875 155.820312 162.355469 157.363281 162.277344 C 158.90625 162.203125 160.453125 162.164062 162 162.164062 C 163.546875 162.164062 165.09375 162.203125 166.636719 162.277344 C 168.179688 162.355469 169.722656 162.46875 171.261719 162.617188 C 172.800781 162.769531 174.335938 162.960938 175.867188 163.1875 C 177.394531 163.414062 178.917969 163.679688 180.4375 163.980469 C 181.953125 164.28125 183.460938 164.621094 184.960938 164.996094 C 186.460938 165.371094 187.953125 165.785156 189.433594 166.234375 C 190.910156 166.683594 192.378906 167.167969 193.835938 167.6875 C 195.292969 168.210938 196.734375 168.765625 198.164062 169.359375 C 199.59375 169.949219 201.003906 170.574219 202.402344 171.238281 C 203.800781 171.898438 205.183594 172.59375 206.546875 173.324219 C 207.910156 174.050781 209.257812 174.8125 210.582031 175.609375 C 211.910156 176.402344 213.214844 177.230469 214.5 178.089844 C 215.789062 178.949219 217.050781 179.839844 218.292969 180.761719 C 219.535156 181.683594 220.753906 182.632812 221.949219 183.613281 C 223.144531 184.59375 224.316406 185.605469 225.460938 186.644531 C 226.609375 187.683594 227.726562 188.75 228.820312 189.84375 C 229.914062 190.9375 230.980469 192.054688 232.019531 193.203125 C 233.058594 194.347656 234.070312 195.519531 235.050781 196.714844 C 236.03125 197.910156 236.980469 199.128906 237.902344 200.371094 C 238.824219 201.613281 239.714844 202.875 240.574219 204.164062 C 241.433594 205.449219 242.261719 206.753906 243.054688 208.082031 C 243.851562 209.40625 244.613281 210.753906 245.339844 212.117188 C 246.070312 213.480469 246.765625 214.863281 247.425781 216.261719 C 248.089844 217.65625 248.714844 219.070312 249.304688 220.5 C 249.898438 221.929688 250.453125 223.371094 250.976562 224.828125 C 251.496094 226.285156 251.980469 227.753906 252.429688 229.230469 C 252.878906 230.710938 253.292969 232.203125 253.667969 233.703125 C 254.042969 235.203125 254.382812 236.710938 254.683594 238.226562 C 254.984375 239.746094 255.25 241.269531 255.476562 242.796875 C 255.703125 244.328125 255.894531 245.863281 256.046875 247.402344 C 256.195312 248.941406 256.308594 250.484375 256.386719 252.027344 C 256.460938 253.570312 256.5 255.117188 256.5 256.664062 Z M 256.5 256.664062 " fill-opacity="1" fill-rule="nonzero"/><path fill="#00a5e9" d="M 38.070312 338.472656 C 35.0625 341.578125 32.207031 344.816406 29.511719 348.195312 C 26.8125 351.574219 24.285156 355.070312 21.921875 358.691406 C 19.5625 362.3125 17.378906 366.039062 15.375 369.867188 C 13.375 373.699219 11.558594 377.617188 9.929688 381.621094 C 8.304688 385.625 6.871094 389.695312 5.636719 393.839844 C 4.398438 397.980469 3.367188 402.171875 2.53125 406.414062 C 1.699219 410.65625 1.070312 414.925781 0.648438 419.226562 C 0.226562 423.53125 0.0078125 427.839844 0 432.164062 L 0 486.164062 C 0 487.488281 0.03125 488.816406 0.0976562 490.136719 C 0.164062 491.460938 0.261719 492.785156 0.390625 494.101562 C 0.519531 495.421875 0.683594 496.738281 0.875 498.050781 C 1.070312 499.359375 1.296875 500.667969 1.554688 501.964844 C 1.816406 503.265625 2.105469 504.558594 2.425781 505.84375 C 2.75 507.132812 3.101562 508.410156 3.488281 509.675781 C 3.871094 510.945312 4.289062 512.203125 4.734375 513.453125 C 5.179688 514.699219 5.660156 515.9375 6.164062 517.160156 C 6.671875 518.386719 7.210938 519.597656 7.777344 520.796875 C 8.34375 521.996094 8.941406 523.179688 9.5625 524.347656 C 10.1875 525.515625 10.84375 526.667969 11.523438 527.804688 C 12.207031 528.945312 12.914062 530.0625 13.652344 531.164062 C 14.386719 532.265625 15.152344 533.351562 15.941406 534.414062 C 16.730469 535.480469 17.546875 536.523438 18.386719 537.550781 C 19.226562 538.574219 20.09375 539.578125 20.984375 540.558594 C 21.875 541.542969 22.785156 542.503906 23.722656 543.441406 C 24.660156 544.378906 25.621094 545.289062 26.605469 546.179688 C 27.585938 547.070312 28.589844 547.9375 29.613281 548.777344 C 30.640625 549.617188 31.683594 550.433594 32.75 551.222656 C 33.8125 552.011719 34.898438 552.777344 36 553.511719 C 37.101562 554.25 38.21875 554.957031 39.359375 555.640625 C 40.496094 556.320312 41.648438 556.976562 42.816406 557.601562 C 43.984375 558.222656 45.167969 558.820312 46.367188 559.386719 C 47.566406 559.953125 48.777344 560.492188 50.003906 561 C 51.226562 561.503906 52.464844 561.984375 53.710938 562.429688 C 54.960938 562.875 56.21875 563.292969 57.488281 563.675781 C 58.753906 564.0625 60.03125 564.414062 61.320312 564.738281 C 62.605469 565.058594 63.898438 565.347656 65.199219 565.609375 C 66.496094 565.867188 67.804688 566.09375 69.113281 566.289062 C 70.425781 566.480469 71.742188 566.644531 73.0625 566.773438 C 74.378906 566.902344 75.703125 567 77.027344 567.066406 C 78.347656 567.132812 79.675781 567.164062 81 567.164062 L 135 567.164062 L 135 486.164062 C 135.035156 472.351562 136.253906 458.648438 138.65625 445.046875 C 141.058594 431.445312 144.609375 418.152344 149.308594 405.164062 C 143.738281 404.652344 138.210938 403.828125 132.734375 402.699219 C 127.253906 401.566406 121.855469 400.128906 116.535156 398.390625 C 111.214844 396.652344 106.011719 394.625 100.921875 392.300781 C 95.828125 389.980469 90.886719 387.378906 86.085938 384.503906 C 81.285156 381.625 76.664062 378.488281 72.214844 375.09375 C 67.769531 371.699219 63.527344 368.0625 59.488281 364.191406 C 55.449219 360.320312 51.636719 356.234375 48.058594 351.933594 C 44.476562 347.632812 41.148438 343.148438 38.070312 338.472656 Z M 38.070312 338.472656 " fill-opacity="1" fill-rule="nonzero"/><g clip-path="url(#ddd592abfc)"><path fill="#00a5e9" d="M 549.179688 338.203125 C 546.96875 340.8125 544.691406 343.355469 542.34375 345.839844 C 539.996094 348.324219 537.582031 350.742188 535.105469 353.09375 C 532.625 355.445312 530.085938 357.730469 527.480469 359.945312 C 524.878906 362.160156 522.21875 364.300781 519.5 366.371094 C 516.78125 368.441406 514.007812 370.4375 511.179688 372.359375 C 508.351562 374.277344 505.476562 376.121094 502.546875 377.882812 C 499.621094 379.648438 496.648438 381.332031 493.628906 382.933594 C 490.613281 384.535156 487.550781 386.054688 484.449219 387.492188 C 481.351562 388.929688 478.210938 390.28125 475.039062 391.546875 C 471.863281 392.8125 468.660156 393.992188 465.421875 395.085938 C 462.183594 396.175781 458.917969 397.179688 455.625 398.097656 C 452.332031 399.011719 449.015625 399.835938 445.679688 400.574219 C 442.339844 401.308594 438.988281 401.953125 435.613281 402.507812 C 432.242188 403.0625 428.855469 403.523438 425.460938 403.890625 C 422.0625 404.261719 418.65625 404.539062 415.246094 404.726562 C 411.832031 404.910156 408.417969 405.003906 405 405.003906 C 401.582031 405.003906 398.167969 404.910156 394.753906 404.726562 C 391.34375 404.539062 387.9375 404.261719 384.539062 403.890625 C 381.144531 403.523438 377.757812 403.0625 374.386719 402.507812 C 371.011719 401.953125 367.660156 401.308594 364.320312 400.574219 C 360.984375 399.835938 357.667969 399.011719 354.375 398.097656 C 351.082031 397.179688 347.816406 396.175781 344.578125 395.085938 C 341.339844 393.992188 338.136719 392.8125 334.960938 391.546875 C 331.789062 390.28125 328.648438 388.929688 325.546875 387.492188 C 322.449219 386.054688 319.386719 384.535156 316.371094 382.933594 C 313.351562 381.332031 310.378906 379.648438 307.453125 377.882812 C 304.523438 376.121094 301.648438 374.277344 298.820312 372.359375 C 295.992188 370.4375 293.21875 368.441406 290.5 366.371094 C 287.78125 364.300781 285.121094 362.160156 282.519531 359.945312 C 279.914062 357.730469 277.375 355.445312 274.894531 353.09375 C 272.417969 350.742188 270.003906 348.324219 267.65625 345.839844 C 265.308594 343.355469 263.03125 340.8125 260.820312 338.203125 C 258.039062 340.402344 255.320312 342.675781 252.664062 345.027344 C 250.011719 347.378906 247.425781 349.804688 244.90625 352.300781 C 242.390625 354.796875 239.945312 357.363281 237.570312 360 C 235.199219 362.632812 232.902344 365.332031 230.679688 368.097656 C 228.457031 370.859375 226.316406 373.683594 224.253906 376.570312 C 222.191406 379.453125 220.210938 382.394531 218.316406 385.390625 C 216.417969 388.386719 214.609375 391.433594 212.882812 394.53125 C 211.15625 397.628906 209.519531 400.773438 207.972656 403.960938 C 206.421875 407.152344 204.964844 410.382812 203.597656 413.65625 C 202.234375 416.925781 200.960938 420.234375 199.777344 423.578125 C 198.597656 426.921875 197.511719 430.296875 196.523438 433.703125 C 195.53125 437.105469 194.636719 440.535156 193.839844 443.992188 C 193.042969 447.445312 192.34375 450.921875 191.742188 454.414062 C 191.140625 457.910156 190.636719 461.417969 190.234375 464.941406 C 189.828125 468.464844 189.523438 471.996094 189.316406 475.535156 C 189.113281 479.074219 189.007812 482.617188 189 486.164062 L 189 594.164062 C 189 595.488281 189.03125 596.816406 189.097656 598.136719 C 189.164062 599.460938 189.261719 600.785156 189.390625 602.101562 C 189.519531 603.421875 189.683594 604.738281 189.875 606.050781 C 190.070312 607.359375 190.296875 608.667969 190.554688 609.964844 C 190.816406 611.265625 191.105469 612.558594 191.425781 613.84375 C 191.75 615.132812 192.101562 616.410156 192.488281 617.675781 C 192.871094 618.945312 193.289062 620.203125 193.734375 621.453125 C 194.179688 622.699219 194.660156 623.9375 195.164062 625.160156 C 195.671875 626.386719 196.210938 627.597656 196.777344 628.796875 C 197.34375 629.996094 197.941406 631.179688 198.5625 632.347656 C 199.1875 633.515625 199.84375 634.667969 200.523438 635.804688 C 201.207031 636.941406 201.914062 638.0625 202.652344 639.164062 C 203.386719 640.265625 204.152344 641.351562 204.941406 642.414062 C 205.730469 643.480469 206.546875 644.523438 207.386719 645.550781 C 208.226562 646.574219 209.09375 647.578125 209.984375 648.558594 C 210.875 649.542969 211.785156 650.503906 212.722656 651.441406 C 213.660156 652.375 214.621094 653.289062 215.605469 654.179688 C 216.585938 655.070312 217.589844 655.9375 218.613281 656.777344 C 219.640625 657.617188 220.683594 658.433594 221.75 659.222656 C 222.8125 660.011719 223.898438 660.777344 225 661.511719 C 226.101562 662.25 227.21875 662.957031 228.359375 663.640625 C 229.496094 664.320312 230.648438 664.976562 231.816406 665.601562 C 232.984375 666.222656 234.167969 666.820312 235.367188 667.386719 C 236.566406 667.953125 237.777344 668.492188 239.003906 669 C 240.226562 669.503906 241.464844 669.980469 242.710938 670.429688 C 243.960938 670.875 245.21875 671.292969 246.488281 671.675781 C 247.753906 672.0625 249.03125 672.414062 250.320312 672.738281 C 251.605469 673.058594 252.898438 673.347656 254.199219 673.609375 C 255.496094 673.867188 256.804688 674.09375 258.113281 674.289062 C 259.425781 674.480469 260.742188 674.644531 262.0625 674.773438 C 263.378906 674.902344 264.703125 675 266.027344 675.066406 C 267.347656 675.132812 268.675781 675.164062 270 675.164062 L 540 675.164062 C 541.324219 675.164062 542.652344 675.132812 543.972656 675.066406 C 545.296875 675 546.621094 674.902344 547.9375 674.773438 C 549.257812 674.644531 550.574219 674.480469 551.886719 674.289062 C 553.195312 674.09375 554.503906 673.867188 555.800781 673.609375 C 557.101562 673.347656 558.394531 673.058594 559.679688 672.738281 C 560.96875 672.414062 562.246094 672.0625 563.511719 671.675781 C 564.78125 671.292969 566.039062 670.875 567.289062 670.429688 C 568.535156 669.980469 569.773438 669.503906 570.996094 669 C 572.222656 668.492188 573.433594 667.953125 574.632812 667.386719 C 575.832031 666.820312 577.015625 666.222656 578.183594 665.597656 C 579.351562 664.976562 580.503906 664.320312 581.640625 663.640625 C 582.777344 662.957031 583.898438 662.25 585 661.511719 C 586.101562 660.777344 587.1875 660.011719 588.25 659.222656 C 589.316406 658.433594 590.359375 657.617188 591.386719 656.777344 C 592.410156 655.9375 593.414062 655.070312 594.394531 654.179688 C 595.378906 653.289062 596.339844 652.375 597.277344 651.441406 C 598.214844 650.503906 599.125 649.542969 600.015625 648.558594 C 600.90625 647.578125 601.773438 646.574219 602.613281 645.550781 C 603.453125 644.523438 604.269531 643.480469 605.058594 642.414062 C 605.847656 641.351562 606.613281 640.265625 607.347656 639.164062 C 608.085938 638.0625 608.792969 636.941406 609.476562 635.804688 C 610.15625 634.667969 610.8125 633.515625 611.4375 632.347656 C 612.058594 631.179688 612.65625 629.996094 613.222656 628.796875 C 613.789062 627.597656 614.328125 626.386719 614.835938 625.160156 C 615.339844 623.9375 615.816406 622.699219 616.265625 621.453125 C 616.710938 620.203125 617.128906 618.945312 617.511719 617.675781 C 617.898438 616.410156 618.25 615.132812 618.574219 613.84375 C 618.894531 612.558594 619.183594 611.265625 619.445312 609.964844 C 619.703125 608.667969 619.929688 607.359375 620.125 606.050781 C 620.316406 604.738281 620.480469 603.421875 620.609375 602.101562 C 620.738281 600.785156 620.835938 599.460938 620.902344 598.136719 C 620.96875 596.816406 621 595.488281 621 594.164062 L 621 486.164062 C 620.992188 482.617188 620.886719 479.074219 620.683594 475.535156 C 620.476562 471.996094 620.171875 468.464844 619.765625 464.941406 C 619.363281 461.417969 618.859375 457.910156 618.257812 454.414062 C 617.65625 450.921875 616.957031 447.445312 616.160156 443.992188 C 615.363281 440.535156 614.46875 437.105469 613.476562 433.703125 C 612.488281 430.296875 611.402344 426.921875 610.222656 423.578125 C 609.039062 420.234375 607.765625 416.925781 606.402344 413.65625 C 605.035156 410.382812 603.578125 407.152344 602.027344 403.960938 C 600.480469 400.773438 598.84375 397.628906 597.117188 394.53125 C 595.390625 391.433594 593.582031 388.386719 591.683594 385.390625 C 589.789062 382.394531 587.808594 379.453125 585.746094 376.570312 C 583.683594 373.683594 581.542969 370.859375 579.320312 368.097656 C 577.097656 365.332031 574.800781 362.632812 572.429688 360 C 570.054688 357.363281 567.609375 354.796875 565.09375 352.300781 C 562.574219 349.804688 559.988281 347.378906 557.335938 345.027344 C 554.679688 342.675781 551.960938 340.402344 549.179688 338.203125 Z M 549.179688 338.203125 " fill-opacity="1" fill-rule="nonzero"/></g><path fill="#00a5e9" d="M 540 216.164062 C 540 218.375 539.945312 220.582031 539.835938 222.789062 C 539.730469 224.996094 539.566406 227.199219 539.351562 229.394531 C 539.132812 231.59375 538.863281 233.789062 538.539062 235.972656 C 538.214844 238.15625 537.835938 240.335938 537.40625 242.5 C 536.976562 244.667969 536.492188 246.824219 535.953125 248.964844 C 535.417969 251.109375 534.828125 253.238281 534.1875 255.351562 C 533.546875 257.464844 532.851562 259.5625 532.109375 261.644531 C 531.363281 263.722656 530.570312 265.785156 529.722656 267.828125 C 528.878906 269.867188 527.984375 271.886719 527.039062 273.882812 C 526.09375 275.882812 525.101562 277.855469 524.058594 279.800781 C 523.019531 281.75 521.929688 283.671875 520.792969 285.566406 C 519.65625 287.464844 518.476562 289.328125 517.25 291.167969 C 516.019531 293.003906 514.75 294.808594 513.433594 296.582031 C 512.117188 298.359375 510.757812 300.097656 509.355469 301.808594 C 507.953125 303.515625 506.511719 305.1875 505.027344 306.824219 C 503.542969 308.460938 502.023438 310.0625 500.460938 311.625 C 498.898438 313.1875 497.296875 314.707031 495.660156 316.191406 C 494.023438 317.675781 492.351562 319.117188 490.644531 320.519531 C 488.933594 321.921875 487.195312 323.28125 485.417969 324.597656 C 483.644531 325.914062 481.839844 327.183594 480 328.414062 C 478.164062 329.640625 476.296875 330.820312 474.402344 331.957031 C 472.507812 333.09375 470.585938 334.183594 468.636719 335.222656 C 466.691406 336.265625 464.71875 337.257812 462.71875 338.203125 C 460.722656 339.148438 458.703125 340.042969 456.664062 340.886719 C 454.621094 341.734375 452.558594 342.527344 450.480469 343.273438 C 448.398438 344.015625 446.300781 344.710938 444.1875 345.351562 C 442.074219 345.992188 439.945312 346.582031 437.800781 347.117188 C 435.660156 347.65625 433.503906 348.140625 431.335938 348.570312 C 429.171875 349 426.992188 349.378906 424.808594 349.703125 C 422.625 350.027344 420.429688 350.296875 418.230469 350.515625 C 416.035156 350.730469 413.832031 350.894531 411.625 351 C 409.417969 351.109375 407.210938 351.164062 405 351.164062 C 402.789062 351.164062 400.582031 351.109375 398.375 351 C 396.167969 350.894531 393.964844 350.730469 391.769531 350.515625 C 389.570312 350.296875 387.375 350.027344 385.191406 349.703125 C 383.007812 349.378906 380.828125 349 378.664062 348.570312 C 376.496094 348.140625 374.339844 347.65625 372.199219 347.117188 C 370.054688 346.582031 367.925781 345.992188 365.8125 345.351562 C 363.699219 344.710938 361.601562 344.015625 359.519531 343.273438 C 357.441406 342.527344 355.378906 341.734375 353.335938 340.886719 C 351.296875 340.042969 349.277344 339.148438 347.28125 338.203125 C 345.28125 337.257812 343.308594 336.265625 341.363281 335.222656 C 339.414062 334.183594 337.492188 333.09375 335.597656 331.957031 C 333.699219 330.820312 331.835938 329.640625 329.996094 328.414062 C 328.160156 327.183594 326.355469 325.914062 324.582031 324.597656 C 322.804688 323.28125 321.066406 321.921875 319.355469 320.519531 C 317.648438 319.117188 315.976562 317.675781 314.339844 316.191406 C 312.703125 314.707031 311.101562 313.1875 309.539062 311.625 C 307.976562 310.0625 306.457031 308.460938 304.972656 306.824219 C 303.488281 305.1875 302.046875 303.515625 300.644531 301.808594 C 299.242188 300.097656 297.882812 298.359375 296.566406 296.582031 C 295.25 294.808594 293.980469 293.003906 292.75 291.164062 C 291.523438 289.328125 290.34375 287.464844 289.207031 285.566406 C 288.070312 283.671875 286.980469 281.75 285.941406 279.800781 C 284.898438 277.855469 283.90625 275.882812 282.960938 273.882812 C 282.015625 271.886719 281.121094 269.867188 280.277344 267.828125 C 279.429688 265.785156 278.636719 263.722656 277.890625 261.644531 C 277.148438 259.5625 276.453125 257.464844 275.8125 255.351562 C 275.171875 253.238281 274.582031 251.109375 274.046875 248.964844 C 273.507812 246.824219 273.023438 244.667969 272.59375 242.5 C 272.164062 240.335938 271.785156 238.15625 271.460938 235.972656 C 271.136719 233.789062 270.867188 231.59375 270.648438 229.394531 C 270.433594 227.199219 270.269531 224.996094 270.164062 222.789062 C 270.054688 220.582031 270 218.375 270 216.164062 C 270 213.953125 270.054688 211.746094 270.164062 209.539062 C 270.269531 207.332031 270.433594 205.128906 270.648438 202.933594 C 270.867188 200.734375 271.136719 198.539062 271.460938 196.355469 C 271.785156 194.171875 272.164062 191.992188 272.59375 189.828125 C 273.023438 187.660156 273.507812 185.503906 274.046875 183.363281 C 274.582031 181.21875 275.171875 179.089844 275.8125 176.976562 C 276.453125 174.863281 277.148438 172.765625 277.890625 170.683594 C 278.636719 168.605469 279.429688 166.542969 280.277344 164.5 C 281.121094 162.460938 282.015625 160.441406 282.960938 158.445312 C 283.90625 156.445312 284.898438 154.472656 285.941406 152.527344 C 286.980469 150.578125 288.070312 148.65625 289.207031 146.761719 C 290.34375 144.863281 291.523438 143 292.75 141.160156 C 293.980469 139.324219 295.25 137.519531 296.566406 135.746094 C 297.882812 133.96875 299.242188 132.230469 300.644531 130.519531 C 302.046875 128.8125 303.488281 127.140625 304.972656 125.503906 C 306.457031 123.867188 307.976562 122.265625 309.539062 120.703125 C 311.101562 119.140625 312.703125 117.621094 314.339844 116.136719 C 315.976562 114.652344 317.648438 113.210938 319.355469 111.808594 C 321.066406 110.40625 322.804688 109.046875 324.582031 107.730469 C 326.355469 106.414062 328.160156 105.144531 329.996094 103.914062 C 331.835938 102.6875 333.699219 101.507812 335.597656 100.371094 C 337.492188 99.234375 339.414062 98.144531 341.363281 97.105469 C 343.308594 96.0625 345.28125 95.070312 347.28125 94.125 C 349.277344 93.179688 351.296875 92.285156 353.335938 91.441406 C 355.378906 90.59375 357.441406 89.800781 359.519531 89.054688 C 361.601562 88.3125 363.699219 87.617188 365.8125 86.976562 C 367.925781 86.335938 370.054688 85.746094 372.199219 85.210938 C 374.339844 84.671875 376.496094 84.1875 378.664062 83.757812 C 380.828125 83.328125 383.007812 82.949219 385.191406 82.625 C 387.375 82.300781 389.570312 82.03125 391.769531 81.8125 C 393.964844 81.597656 396.167969 81.433594 398.375 81.328125 C 400.582031 81.21875 402.789062 81.164062 405 81.164062 C 407.210938 81.164062 409.417969 81.21875 411.625 81.328125 C 413.832031 81.433594 416.035156 81.597656 418.230469 81.8125 C 420.429688 82.03125 422.625 82.300781 424.808594 82.625 C 426.992188 82.949219 429.171875 83.328125 431.335938 83.757812 C 433.503906 84.1875 435.660156 84.671875 437.800781 85.210938 C 439.945312 85.746094 442.074219 86.335938 444.1875 86.976562 C 446.300781 87.617188 448.398438 88.3125 450.480469 89.054688 C 452.558594 89.800781 454.621094 90.59375 456.664062 91.441406 C 458.703125 92.285156 460.722656 93.179688 462.71875 94.125 C 464.71875 95.070312 466.691406 96.0625 468.636719 97.105469 C 470.585938 98.144531 472.507812 99.234375 474.402344 100.371094 C 476.300781 101.507812 478.164062 102.6875 480.003906 103.914062 C 481.839844 105.144531 483.644531 106.414062 485.417969 107.730469 C 487.195312 109.046875 488.933594 110.40625 490.644531 111.808594 C 492.351562 113.210938 494.023438 114.652344 495.660156 116.136719 C 497.296875 117.621094 498.898438 119.140625 500.460938 120.703125 C 502.023438 122.265625 503.542969 123.867188 505.027344 125.503906 C 506.511719 127.140625 507.953125 128.8125 509.355469 130.519531 C 510.757812 132.230469 512.117188 133.96875 513.433594 135.746094 C 514.75 137.519531 516.019531 139.324219 517.25 141.160156 C 518.476562 143 519.65625 144.863281 520.792969 146.761719 C 521.929688 148.65625 523.019531 150.578125 524.058594 152.527344 C 525.101562 154.472656 526.09375 156.445312 527.039062 158.445312 C 527.984375 160.441406 528.878906 162.460938 529.722656 164.5 C 530.570312 166.542969 531.363281 168.605469 532.109375 170.683594 C 532.851562 172.765625 533.546875 174.863281 534.1875 176.976562 C 534.828125 179.089844 535.417969 181.21875 535.953125 183.363281 C 536.492188 185.503906 536.976562 187.660156 537.40625 189.828125 C 537.835938 191.992188 538.214844 194.171875 538.539062 196.355469 C 538.863281 198.539062 539.132812 200.734375 539.351562 202.933594 C 539.566406 205.128906 539.730469 207.332031 539.835938 209.539062 C 539.945312 211.746094 540 213.953125 540 216.164062 Z M 540 216.164062 " fill-opacity="1" fill-rule="nonzero"/></svg>