<svg xmlns="http://www.w3.org/2000/svg" xmlns:xlink="http://www.w3.org/1999/xlink" width="1080" zoomAndPan="magnify" viewBox="0 0 810 809.999993" height="1080" preserveAspectRatio="xMidYMid meet" version="1.0"><rect x="-81" width="972" fill="#ffffff" y="-80.999999" height="971.999992" fill-opacity="1"/><rect x="-81" width="972" fill="#ffffff" y="-80.999999" height="971.999992" fill-opacity="1"/><path fill="#00a5e9" d="M 751.394531 386.636719 L 774.742188 314.566406 C 792.195312 260.625 767.910156 201.953125 717.421875 176.164062 L 649.964844 141.703125 L 615.507812 74.25 C 589.71875 23.761719 531.046875 -0.5625 477.105469 16.929688 L 404.996094 40.242188 L 332.925781 16.890625 C 278.984375 -0.5625 220.3125 23.722656 194.523438 74.210938 L 160.027344 141.667969 L 92.570312 176.164062 C 42.082031 201.953125 17.796875 260.625 35.25 314.566406 L 58.601562 386.636719 L 35.25 458.707031 C 17.796875 512.648438 42.082031 571.320312 92.570312 597.109375 L 160.027344 631.570312 L 194.484375 699.023438 C 220.273438 749.511719 278.945312 773.835938 332.886719 756.34375 L 404.996094 733.03125 L 477.070312 756.382812 C 531.011719 773.835938 589.679688 749.550781 615.46875 699.0625 L 649.929688 631.605469 L 717.382812 597.148438 C 767.871094 571.359375 792.195312 512.6875 774.703125 458.746094 Z M 340.921875 525.789062 L 254.847656 439.714844 C 240.207031 425.074219 240.207031 401.277344 254.847656 386.636719 C 269.484375 371.996094 293.285156 371.996094 307.925781 386.636719 L 367.460938 446.171875 L 539.605469 274.023438 C 554.246094 259.382812 578.042969 259.382812 592.683594 274.023438 C 607.324219 288.664062 607.324219 312.460938 592.683594 327.101562 L 394 525.789062 C 379.359375 540.429688 355.558594 540.429688 340.921875 525.789062 Z M 340.921875 525.789062 " fill-opacity="1" fill-rule="nonzero"/></svg>