<svg xmlns="http://www.w3.org/2000/svg" xmlns:xlink="http://www.w3.org/1999/xlink" width="1080" zoomAndPan="magnify" viewBox="0 0 810 809.999993" height="1080" preserveAspectRatio="xMidYMid meet" version="1.0"><defs><clipPath id="93292c4c0e"><path d="M 153 186 L 809.941406 186 L 809.941406 626.511719 L 153 626.511719 Z M 153 186 " clip-rule="nonzero"/></clipPath><clipPath id="91b2cafb2a"><path d="M 0 183.320312 L 682.519531 183.320312 L 682.519531 626.511719 L 0 626.511719 Z M 0 183.320312 " clip-rule="nonzero"/></clipPath></defs><rect x="-81" width="972" fill="#ffffff" y="-80.999999" height="971.999992" fill-opacity="1"/><rect x="-81" width="972" fill="#ffffff" y="-80.999999" height="971.999992" fill-opacity="1"/><g clip-path="url(#93292c4c0e)"><path fill="#00a5e9" d="M 805.007812 339.652344 L 764.90625 364.636719 C 754.042969 371.402344 744.082031 378.496094 734.632812 386.230469 C 733.285156 387.265625 731.921875 388.34375 730.597656 389.492188 C 727.824219 391.695312 725.089844 393.984375 722.46875 396.300781 C 712.574219 405.113281 703.253906 414.742188 694.15625 424.523438 C 687.324219 431.796875 680.605469 439.132812 673.773438 446.292969 L 673.441406 446.007812 L 667.800781 441.46875 C 660.816406 435.828125 652.578125 432.941406 644.203125 432.546875 C 634.488281 432.039062 624.703125 435.035156 616.839844 441.402344 C 614.632812 443.121094 612.585938 445.171875 610.757812 447.441406 C 604.960938 454.601562 602.054688 463.128906 601.765625 471.722656 C 601.765625 471.898438 601.613281 472.007812 601.4375 471.898438 L 586.1875 459.558594 C 569.070312 445.679688 543.464844 446.535156 528.921875 463.085938 C 522.3125 470.53125 519.074219 479.632812 518.789062 488.796875 C 518.789062 488.953125 518.609375 489.019531 518.457031 488.90625 C 510.082031 482.296875 499.726562 479.34375 489.152344 480.425781 C 478.355469 481.570312 468.683594 486.792969 461.851562 495.210938 C 448.609375 511.535156 450.195312 535.089844 464.871094 549.589844 C 464.980469 549.699219 464.9375 549.875 464.761719 549.941406 C 456.34375 551.925781 448.5 556.597656 442.636719 563.800781 C 442.394531 564.042969 442.242188 564.332031 442 564.617188 C 441.957031 564.726562 441.777344 564.726562 441.667969 564.835938 L 382.859375 619.945312 C 378.011719 624.503906 371.644531 626.882812 365.058594 626.664062 C 357.476562 626.445312 350.535156 622.851562 345.929688 616.703125 C 338.152344 606.414062 340.3125 591.675781 349.742188 582.859375 L 407.714844 528.546875 C 410.84375 525.59375 410.996094 520.59375 408.046875 517.464844 C 405.09375 514.269531 400.136719 514.09375 396.960938 517.113281 C 396.960938 517.113281 379.378906 533.546875 379.335938 533.613281 L 320.460938 588.789062 C 315.636719 593.28125 309.355469 595.726562 302.65625 595.441406 C 296.003906 595.265625 289.855469 592.46875 285.316406 587.640625 C 280.753906 582.75 278.417969 576.425781 278.597656 569.773438 C 278.816406 563.183594 281.613281 557.035156 286.441406 552.496094 L 345.316406 497.324219 C 348.488281 494.371094 348.664062 489.414062 345.644531 486.21875 C 342.691406 483.089844 337.757812 482.9375 334.5625 485.890625 L 317.046875 502.328125 L 275.753906 541.0625 C 275.355469 541.347656 275.070312 541.746094 274.738281 542.074219 L 258.238281 557.5 C 253.390625 562.039062 247.152344 564.484375 240.433594 564.21875 C 233.824219 563.976562 227.632812 561.203125 223.136719 556.355469 C 218.597656 551.527344 216.195312 545.203125 216.417969 538.550781 C 216.59375 531.894531 219.433594 525.75 224.28125 521.210938 L 283.089844 466.101562 C 286.285156 463.128906 286.441406 458.191406 283.488281 455 C 280.535156 451.824219 275.535156 451.714844 272.40625 454.667969 L 268.921875 457.90625 C 268.921875 457.90625 213.53125 509.773438 213.464844 509.882812 L 196.476562 525.816406 C 186.914062 534.738281 171.777344 535.882812 161.992188 527.179688 C 150.953125 517.332031 150.953125 500.34375 161.484375 490.429688 L 291.332031 365.035156 L 331.257812 326.519531 L 342.007812 316.164062 C 342.074219 316.050781 342.1875 316.050781 342.296875 316.117188 L 391.5625 342.667969 L 470.953125 385.546875 C 477.714844 389.820312 485.625 392.089844 493.757812 392.089844 C 497.0625 392.089844 500.367188 391.695312 503.605469 390.96875 C 515.042969 388.34375 524.824219 381.472656 531.082031 371.511719 C 532.84375 368.714844 534.253906 365.761719 535.335938 362.699219 C 537.164062 357.519531 537.957031 351.988281 537.738281 346.414062 C 537.625 343.75 537.339844 341.082031 536.699219 338.394531 C 534.101562 326.980469 527.203125 317.199219 517.246094 310.984375 L 424.195312 248.035156 C 424.042969 247.925781 424.085938 247.679688 424.261719 247.570312 C 445.480469 239.15625 471.195312 236.027344 496.378906 239.042969 C 506.734375 240.300781 517.378906 242.746094 527.667969 245.058594 C 549.613281 250.015625 572.308594 255.195312 596.191406 250.371094 C 619.746094 245.589844 640.0625 233.910156 660.179688 221.636719 C 662.582031 220.269531 664.914062 218.839844 667.230469 217.363281 C 669.410156 216.0625 671.503906 214.761719 673.664062 213.398438 C 676.109375 211.921875 678.554688 210.378906 680.957031 208.792969 C 691.863281 201.785156 702.441406 194.734375 712.683594 188.257812 C 717.6875 185.0625 724.230469 186.605469 727.292969 191.605469 L 808.421875 325.328125 C 811.417969 330.21875 809.898438 336.632812 805.007812 339.652344 " fill-opacity="1" fill-rule="nonzero"/></g><g clip-path="url(#91b2cafb2a)"><path fill="#00a5e9" d="M 161.421875 468.703125 L 335.378906 300.761719 C 336.191406 300.035156 336.984375 299.527344 337.84375 299.175781 C 337.957031 299.128906 338.042969 299.085938 338.152344 299.042969 C 338.460938 298.933594 338.769531 298.84375 339.101562 298.777344 C 339.652344 298.644531 340.203125 298.601562 340.777344 298.578125 C 340.886719 298.578125 340.996094 298.578125 341.105469 298.578125 C 341.988281 298.625 342.847656 298.800781 343.683594 299.128906 C 343.816406 299.195312 343.925781 299.242188 344.058594 299.285156 C 344.214844 299.371094 344.390625 299.417969 344.542969 299.503906 L 345.910156 300.230469 L 478.863281 372.039062 C 485.230469 376.050781 492.789062 377.328125 500.148438 375.652344 C 507.507812 373.980469 513.742188 369.550781 517.773438 363.160156 C 521.785156 356.792969 523.082031 349.234375 521.410156 341.875 C 519.734375 334.515625 515.285156 328.257812 508.695312 324.09375 L 392.203125 245.28125 C 391.980469 245.148438 391.804688 244.972656 391.609375 244.816406 L 391.429688 245.039062 C 391.1875 244.925781 390.945312 244.839844 390.726562 244.730469 C 368.316406 234.152344 339.761719 229.988281 311.824219 233.402344 C 287.519531 236.378906 264.207031 244.882812 239.683594 246.449219 C 188.984375 249.664062 139.847656 211.921875 97.257812 184.929688 C 92.300781 181.777344 85.710938 183.296875 82.671875 188.320312 L 1.519531 322.046875 C -1.453125 326.960938 0.0664062 333.347656 4.9375 336.367188 L 45.082031 361.332031 C 69.671875 376.625 89.523438 393.808594 109.53125 414.632812 C 125.328125 431.089844 141.105469 447.550781 156.902344 463.988281 C 158.402344 465.550781 159.921875 467.140625 161.421875 468.703125 Z M 543.640625 509.222656 L 585.042969 542.804688 C 590.222656 546.988281 596.699219 548.882812 603.285156 548.203125 C 609.898438 547.519531 615.824219 544.300781 620.011719 539.144531 C 624.195312 533.988281 626.113281 527.511719 625.429688 520.902344 C 624.726562 514.292969 621.507812 508.363281 616.351562 504.175781 L 574.929688 470.597656 C 570.324219 466.875 564.792969 465.066406 559.285156 465.066406 C 552.035156 465.089844 544.875 468.21875 539.960938 474.277344 C 531.347656 484.921875 532.976562 500.609375 543.640625 509.222656 Z M 477.695312 540.046875 L 540.359375 590.835938 C 545.515625 595.023438 552.015625 596.941406 558.601562 596.257812 C 565.210938 595.550781 571.140625 592.335938 575.324219 587.179688 C 579.492188 582.023438 581.429688 575.546875 580.722656 568.933594 C 580.042969 562.324219 576.824219 556.398438 571.667969 552.210938 L 509.003906 501.421875 C 504.53125 497.808594 499.066406 495.871094 493.359375 495.894531 C 492.5 495.894531 491.640625 495.9375 490.761719 496.023438 C 484.148438 496.707031 478.222656 499.945312 474.035156 505.101562 C 465.421875 515.746094 467.050781 531.433594 477.695312 540.046875 Z M 626.621094 492.28125 L 641.933594 504.683594 C 647.089844 508.871094 653.566406 510.789062 660.179688 510.105469 C 666.789062 509.421875 672.714844 506.183594 676.902344 501.027344 C 685.539062 490.382812 683.886719 474.695312 673.246094 466.058594 L 657.929688 453.652344 C 653.304688 449.910156 647.773438 448.101562 642.265625 448.125 C 635.015625 448.125 627.855469 451.273438 622.964844 457.3125 C 614.324219 467.953125 615.980469 483.640625 626.621094 492.28125 Z M 474.101562 564.484375 C 479.609375 564.484375 485.140625 566.292969 489.746094 570.015625 L 505.105469 582.464844 C 515.722656 591.078125 517.378906 606.765625 508.738281 617.410156 C 500.101562 628.050781 484.414062 629.703125 473.773438 621.066406 L 458.457031 608.640625 C 447.816406 600.023438 446.164062 584.335938 454.800781 573.671875 C 459.691406 567.636719 466.851562 564.507812 474.101562 564.484375 " fill-opacity="1" fill-rule="nonzero"/></g></svg>