<svg xmlns="http://www.w3.org/2000/svg" xmlns:xlink="http://www.w3.org/1999/xlink" width="1080" zoomAndPan="magnify" viewBox="0 0 810 809.999993" height="1080" preserveAspectRatio="xMidYMid meet" version="1.0"><rect x="-81" width="972" fill="#ffffff" y="-80.999999" height="971.999992" fill-opacity="1"/><rect x="-81" width="972" fill="#ffffff" y="-80.999999" height="971.999992" fill-opacity="1"/><path fill="#00a5e9" d="M 175.921875 98.71875 C 180.984375 98.71875 184.78125 95.554688 188.578125 93.023438 C 194.273438 89.226562 195.539062 81 191.742188 75.304688 C 187.945312 69.609375 179.71875 68.34375 174.023438 72.140625 C 172.125 73.40625 170.226562 74.671875 168.960938 75.9375 C 163.265625 79.734375 162 87.960938 165.796875 93.65625 C 167.695312 96.820312 171.492188 98.71875 175.921875 98.71875 Z M 175.921875 98.71875 " fill-opacity="1" fill-rule="nonzero"/><path fill="#00a5e9" d="M 131.625 135.421875 C 137.320312 135.421875 141.117188 130.992188 144.914062 127.828125 C 149.976562 122.765625 150.609375 115.171875 145.546875 110.109375 C 140.484375 105.046875 132.890625 104.414062 127.828125 109.476562 C 125.929688 110.742188 124.664062 112.640625 122.765625 113.90625 C 117.703125 118.96875 117.703125 126.5625 122.765625 131.625 C 124.664062 134.15625 128.460938 135.421875 131.625 135.421875 Z M 131.625 135.421875 " fill-opacity="1" fill-rule="nonzero"/><path fill="#00a5e9" d="M 25.945312 433.476562 C 25.945312 431.578125 25.945312 429.679688 25.3125 427.148438 C 24.679688 420.1875 18.984375 415.125 12.023438 415.125 C 5.0625 415.757812 0 421.453125 0 428.414062 C 0 430.3125 0 432.84375 0.632812 434.742188 C 1.265625 441.703125 7.59375 446.765625 13.921875 446.132812 C 20.882812 446.765625 25.945312 440.4375 25.945312 433.476562 Z M 25.945312 433.476562 " fill-opacity="1" fill-rule="nonzero"/><path fill="#00a5e9" d="M 12.023438 389.8125 C 18.984375 389.8125 25.3125 384.75 25.3125 377.789062 C 25.3125 375.890625 25.3125 373.992188 25.945312 371.460938 C 26.578125 364.5 21.515625 358.171875 14.554688 357.539062 C 7.59375 356.90625 1.265625 361.96875 0.632812 368.929688 C 0.632812 370.828125 0 373.359375 0 375.257812 C 0 382.851562 5.0625 389.179688 12.023438 389.8125 Z M 12.023438 389.8125 " fill-opacity="1" fill-rule="nonzero"/><path fill="#00a5e9" d="M 55.6875 224.648438 C 62.015625 227.8125 69.609375 225.914062 72.773438 219.585938 C 74.039062 217.6875 74.671875 215.789062 75.9375 214.523438 C 79.734375 208.195312 77.203125 200.601562 71.507812 197.4375 C 65.179688 193.640625 57.585938 196.171875 54.421875 201.867188 C 53.15625 203.765625 52.523438 205.664062 51.257812 207.5625 C 47.460938 213.257812 49.359375 220.851562 55.6875 224.648438 Z M 55.6875 224.648438 " fill-opacity="1" fill-rule="nonzero"/><path fill="#00a5e9" d="M 32.90625 277.171875 C 39.234375 279.703125 46.828125 276.539062 49.359375 269.578125 C 49.992188 267.679688 50.625 265.78125 51.890625 263.882812 C 54.421875 257.554688 51.257812 249.960938 44.929688 247.429688 C 38.601562 244.898438 31.007812 248.0625 28.476562 254.390625 C 27.84375 256.289062 26.578125 258.1875 25.945312 260.71875 C 23.414062 267.679688 26.578125 274.640625 32.90625 277.171875 Z M 32.90625 277.171875 " fill-opacity="1" fill-rule="nonzero"/><path fill="#00a5e9" d="M 18.351562 332.859375 C 25.3125 334.125 31.640625 329.695312 33.539062 323.367188 C 34.171875 321.46875 34.171875 319.570312 34.804688 317.039062 C 36.703125 310.078125 32.273438 303.75 25.3125 301.851562 C 18.351562 299.953125 11.390625 304.382812 10.125 311.34375 C 9.492188 313.242188 8.859375 315.773438 8.859375 317.671875 C 7.59375 324.632812 11.390625 330.960938 18.351562 332.859375 Z M 18.351562 332.859375 " fill-opacity="1" fill-rule="nonzero"/><path fill="#00a5e9" d="M 85.429688 175.921875 C 91.125 180.351562 98.71875 179.085938 103.148438 173.390625 C 104.414062 171.492188 105.679688 170.226562 106.945312 168.328125 C 111.375 162.632812 110.109375 155.039062 105.046875 150.609375 C 99.351562 146.179688 91.757812 147.445312 87.328125 152.507812 C 86.0625 154.40625 84.796875 155.671875 83.53125 157.570312 C 79.101562 163.265625 80.367188 171.492188 85.429688 175.921875 Z M 85.429688 175.921875 " fill-opacity="1" fill-rule="nonzero"/><path fill="#00a5e9" d="M 691.03125 155.671875 C 695.460938 160.734375 703.6875 161.367188 708.75 156.9375 C 713.8125 152.507812 714.445312 144.28125 710.015625 139.21875 C 708.75 137.320312 706.851562 136.054688 705.585938 134.15625 C 701.15625 129.09375 692.929688 128.460938 687.867188 133.523438 C 682.804688 137.953125 682.171875 146.179688 687.234375 151.242188 C 688.5 152.507812 689.765625 153.773438 691.03125 155.671875 Z M 691.03125 155.671875 " fill-opacity="1" fill-rule="nonzero"/><path fill="#00a5e9" d="M 651.796875 116.4375 C 656.859375 120.867188 665.085938 120.234375 669.515625 115.171875 C 673.945312 110.109375 673.3125 101.882812 668.25 97.453125 C 666.351562 96.1875 665.085938 94.921875 663.1875 93.023438 C 657.492188 88.59375 649.898438 89.226562 645.46875 94.921875 C 641.039062 100.617188 641.671875 108.210938 647.367188 112.640625 C 648.632812 113.90625 649.898438 115.171875 651.796875 116.4375 Z M 651.796875 116.4375 " fill-opacity="1" fill-rule="nonzero"/><path fill="#00a5e9" d="M 724.570312 199.96875 C 728.367188 205.664062 736.59375 207.5625 742.289062 203.765625 C 747.984375 199.96875 749.882812 192.375 746.085938 186.046875 C 744.820312 184.148438 743.554688 182.25 742.289062 180.351562 C 738.492188 174.65625 730.265625 172.757812 724.570312 176.554688 C 718.875 180.351562 716.976562 188.578125 720.773438 194.273438 C 722.039062 196.171875 723.304688 198.070312 724.570312 199.96875 Z M 724.570312 199.96875 " fill-opacity="1" fill-rule="nonzero"/><path fill="#00a5e9" d="M 748.617188 243 C 749.25 244.898438 750.515625 246.796875 751.148438 248.695312 C 753.679688 255.023438 761.90625 257.554688 767.601562 255.023438 C 773.929688 251.859375 777.09375 244.898438 773.929688 238.570312 C 773.296875 236.671875 772.03125 234.773438 771.398438 232.875 C 768.234375 226.546875 760.640625 224.015625 754.3125 226.546875 C 747.984375 229.078125 745.453125 236.671875 748.617188 243 Z M 748.617188 243 " fill-opacity="1" fill-rule="nonzero"/><path fill="#00a5e9" d="M 791.015625 334.125 C 784.054688 335.390625 779.625 341.71875 780.257812 348.679688 C 780.257812 350.578125 780.890625 352.476562 780.890625 355.007812 C 781.523438 361.335938 787.21875 365.765625 793.546875 365.765625 C 801.140625 365.765625 806.835938 358.804688 806.203125 351.210938 C 806.203125 349.3125 805.570312 346.78125 805.570312 344.882812 C 804.304688 337.921875 797.976562 332.859375 791.015625 334.125 Z M 791.015625 334.125 " fill-opacity="1" fill-rule="nonzero"/><path fill="#00a5e9" d="M 768.234375 294.257812 C 768.867188 296.15625 769.5 298.054688 770.132812 299.953125 C 772.03125 306.28125 778.992188 310.710938 785.953125 308.8125 C 792.914062 306.914062 796.710938 299.953125 794.8125 292.992188 C 794.179688 291.09375 793.546875 288.5625 792.914062 286.664062 C 791.015625 279.703125 784.054688 275.90625 777.09375 278.4375 C 770.132812 280.96875 766.335938 287.929688 768.234375 294.257812 Z M 768.234375 294.257812 " fill-opacity="1" fill-rule="nonzero"/><path fill="#00a5e9" d="M 601.804688 80.367188 C 603.703125 81.632812 605.601562 82.265625 606.867188 83.53125 C 612.5625 87.328125 620.789062 85.429688 624.585938 79.734375 C 628.382812 74.039062 626.484375 65.8125 620.789062 62.015625 C 618.890625 60.75 616.992188 59.484375 615.09375 58.851562 C 608.765625 55.054688 601.171875 56.953125 597.375 62.648438 C 594.210938 68.976562 596.109375 76.570312 601.804688 80.367188 Z M 601.804688 80.367188 " fill-opacity="1" fill-rule="nonzero"/><path fill="#00a5e9" d="M 224.648438 68.976562 C 229.078125 68.976562 232.242188 66.445312 236.039062 64.546875 C 242.367188 61.382812 244.898438 53.789062 241.734375 47.460938 C 238.570312 41.132812 230.976562 38.601562 224.648438 41.765625 C 222.75 43.03125 220.851562 43.664062 218.953125 44.929688 C 212.625 48.09375 210.09375 55.6875 213.257812 62.015625 C 215.15625 66.445312 219.585938 68.976562 224.648438 68.976562 Z M 224.648438 68.976562 " fill-opacity="1" fill-rule="nonzero"/><path fill="#00a5e9" d="M 34.171875 492.960938 C 34.171875 491.695312 34.171875 489.796875 34.171875 487.898438 C 33.539062 486 33.539062 484.101562 32.90625 481.570312 C 31.640625 474.609375 24.679688 470.179688 17.71875 471.445312 C 10.757812 473.976562 6.328125 480.304688 7.59375 487.265625 C 8.226562 489.164062 8.226562 491.695312 8.859375 493.59375 C 10.125 499.289062 15.1875 503.71875 21.515625 503.71875 C 27.210938 503.71875 32.90625 499.289062 34.171875 492.960938 Z M 34.171875 492.960938 " fill-opacity="1" fill-rule="nonzero"/><path fill="#00a5e9" d="M 332.226562 31.640625 C 334.757812 31.640625 337.921875 31.007812 340.453125 30.375 C 347.414062 29.109375 351.84375 22.78125 350.578125 15.820312 C 349.3125 8.859375 342.984375 4.429688 336.023438 5.695312 C 334.125 6.328125 331.59375 6.328125 329.695312 6.960938 C 322.734375 8.226562 318.304688 14.554688 319.570312 21.515625 C 321.46875 27.84375 326.53125 31.640625 332.226562 31.640625 Z M 332.226562 31.640625 " fill-opacity="1" fill-rule="nonzero"/><path fill="#00a5e9" d="M 277.171875 46.195312 C 280.335938 46.195312 284.132812 44.929688 287.296875 43.664062 C 294.257812 41.765625 297.421875 34.171875 295.523438 27.84375 C 293.625 20.882812 286.03125 17.71875 279.703125 19.617188 C 277.804688 20.25 275.273438 20.882812 273.375 21.515625 C 267.046875 24.046875 263.25 31.007812 265.78125 37.335938 C 267.046875 43.03125 272.109375 46.195312 277.171875 46.195312 Z M 277.171875 46.195312 " fill-opacity="1" fill-rule="nonzero"/><path fill="#00a5e9" d="M 389.179688 25.3125 C 389.179688 25.3125 393.609375 25.3125 395.507812 25.3125 C 402.46875 25.3125 408.164062 19.617188 408.164062 12.65625 C 408.164062 5.695312 402.46875 0 395.507812 0 C 393.609375 0 391.078125 0 389.179688 0 C 382.21875 0 376.523438 6.328125 377.15625 13.289062 C 377.15625 20.25 382.851562 25.3125 389.179688 25.3125 Z M 389.179688 25.3125 " fill-opacity="1" fill-rule="nonzero"/><path fill="#00a5e9" d="M 552.445312 55.054688 C 554.34375 55.6875 556.242188 56.953125 558.140625 57.585938 C 564.46875 60.117188 572.0625 57.585938 574.59375 51.257812 C 577.125 44.929688 574.59375 37.335938 568.265625 34.804688 C 566.367188 34.171875 564.46875 32.90625 561.9375 32.273438 C 555.609375 29.742188 548.015625 32.273438 545.484375 39.234375 C 542.953125 44.929688 546.117188 52.523438 552.445312 55.054688 Z M 552.445312 55.054688 " fill-opacity="1" fill-rule="nonzero"/><path fill="#00a5e9" d="M 499.921875 37.335938 C 503.085938 37.96875 506.25 39.234375 509.414062 39.234375 C 515.109375 39.234375 520.171875 35.4375 521.4375 29.742188 C 523.335938 22.78125 519.539062 15.820312 512.578125 13.921875 C 510.679688 13.289062 508.148438 12.65625 506.25 12.023438 C 499.289062 10.125 492.328125 14.554688 491.0625 20.882812 C 489.164062 28.476562 492.960938 35.4375 499.921875 37.335938 Z M 499.921875 37.335938 " fill-opacity="1" fill-rule="nonzero"/><path fill="#00a5e9" d="M 445.5 27.210938 C 448.03125 27.210938 450.5625 27.84375 453.09375 27.84375 C 459.421875 27.84375 465.117188 23.414062 465.75 16.453125 C 466.382812 9.492188 461.953125 3.164062 454.992188 2.53125 C 453.09375 2.53125 450.5625 1.898438 448.664062 1.898438 C 441.703125 1.265625 435.375 6.328125 434.742188 13.289062 C 433.476562 20.25 438.539062 26.578125 445.5 27.210938 Z M 445.5 27.210938 " fill-opacity="1" fill-rule="nonzero"/><path fill="#00a5e9" d="M 602.4375 729 C 600.539062 730.265625 598.640625 730.898438 597.375 732.164062 C 591.046875 735.960938 589.148438 743.554688 592.945312 749.25 C 596.742188 754.945312 604.335938 757.476562 610.03125 753.679688 C 611.929688 752.414062 613.828125 751.148438 615.726562 750.515625 C 621.421875 746.71875 623.320312 739.125 620.15625 732.796875 C 616.359375 727.734375 608.765625 725.835938 602.4375 729 Z M 602.4375 729 " fill-opacity="1" fill-rule="nonzero"/><path fill="#00a5e9" d="M 501.1875 772.664062 C 499.289062 773.296875 497.390625 773.929688 495.492188 773.929688 C 488.53125 775.828125 484.734375 782.15625 486 789.117188 C 487.265625 794.8125 492.328125 798.609375 498.023438 798.609375 C 501.1875 798.609375 504.351562 797.34375 507.515625 796.710938 C 514.476562 794.8125 518.273438 787.851562 516.375 781.523438 C 514.476562 774.5625 508.148438 770.765625 501.1875 772.664062 Z M 501.1875 772.664062 " fill-opacity="1" fill-rule="nonzero"/><path fill="#00a5e9" d="M 446.765625 782.789062 C 444.867188 782.789062 442.96875 783.421875 440.4375 783.421875 C 433.476562 784.054688 428.414062 790.382812 429.046875 797.34375 C 429.679688 803.671875 435.375 808.734375 441.703125 808.734375 C 444.234375 808.734375 446.765625 808.101562 449.296875 808.101562 C 456.257812 807.46875 461.320312 801.140625 460.6875 794.179688 C 460.054688 786.585938 453.726562 782.15625 446.765625 782.789062 Z M 446.765625 782.789062 " fill-opacity="1" fill-rule="nonzero"/><path fill="#00a5e9" d="M 784.6875 506.25 C 777.726562 504.351562 770.765625 508.148438 768.867188 514.476562 C 768.234375 516.375 767.601562 518.273438 766.96875 520.171875 C 765.070312 527.132812 768.234375 534.09375 775.195312 535.992188 C 781.523438 537.890625 789.117188 534.09375 791.015625 527.765625 C 791.648438 525.867188 792.28125 523.335938 792.914062 521.4375 C 794.8125 515.109375 791.015625 508.148438 784.6875 506.25 Z M 784.6875 506.25 " fill-opacity="1" fill-rule="nonzero"/><path fill="#00a5e9" d="M 391.078125 784.6875 C 389.179688 784.6875 386.648438 784.6875 384.75 784.6875 C 377.789062 784.6875 372.09375 789.75 371.460938 796.710938 C 370.828125 803.671875 376.523438 809.367188 383.484375 810 C 385.382812 810 390.445312 810 390.445312 810 C 397.40625 810 403.101562 804.304688 403.101562 797.976562 C 403.734375 791.015625 398.039062 784.6875 391.078125 784.6875 Z M 391.078125 784.6875 " fill-opacity="1" fill-rule="nonzero"/><path fill="#00a5e9" d="M 765.703125 560.039062 C 759.375 556.875 751.78125 560.039062 748.617188 566.367188 C 747.984375 568.265625 746.71875 570.164062 746.085938 572.0625 C 743.554688 577.757812 745.453125 585.351562 751.148438 588.515625 C 757.476562 591.679688 765.703125 589.78125 768.867188 582.820312 C 770.132812 580.921875 770.765625 579.023438 772.03125 577.125 C 774.5625 570.796875 772.03125 563.203125 765.703125 560.039062 Z M 765.703125 560.039062 " fill-opacity="1" fill-rule="nonzero"/><path fill="#00a5e9" d="M 336.023438 778.992188 C 334.125 778.359375 332.226562 778.359375 329.695312 777.726562 C 322.734375 776.460938 316.40625 780.890625 314.507812 787.851562 C 313.242188 794.8125 317.671875 801.140625 324.632812 803.039062 C 326.53125 803.671875 329.0625 803.671875 330.960938 804.304688 C 337.921875 805.570312 344.25 801.140625 345.515625 794.179688 C 347.414062 786.585938 342.984375 780.257812 336.023438 778.992188 Z M 336.023438 778.992188 " fill-opacity="1" fill-rule="nonzero"/><path fill="#00a5e9" d="M 648 696.726562 C 646.734375 697.992188 644.835938 699.257812 642.9375 700.523438 C 637.242188 704.953125 636.609375 713.179688 641.039062 718.242188 C 645.46875 723.304688 653.695312 724.570312 658.757812 720.140625 C 660.65625 718.875 661.921875 717.609375 663.820312 715.710938 C 668.882812 711.28125 670.148438 703.054688 665.71875 697.992188 C 661.289062 693.5625 653.0625 692.296875 648 696.726562 Z M 648 696.726562 " fill-opacity="1" fill-rule="nonzero"/><path fill="#00a5e9" d="M 739.125 611.296875 C 733.429688 607.5 725.203125 608.765625 721.40625 615.09375 C 720.140625 616.992188 718.875 618.257812 718.242188 620.15625 C 714.445312 625.851562 715.710938 634.078125 721.40625 637.875 C 727.101562 641.671875 735.328125 640.40625 739.125 634.710938 C 740.390625 632.8125 741.65625 630.914062 742.921875 629.015625 C 746.71875 622.6875 744.820312 615.09375 739.125 611.296875 Z M 739.125 611.296875 " fill-opacity="1" fill-rule="nonzero"/><path fill="#00a5e9" d="M 687.867188 658.757812 C 686.601562 660.023438 685.335938 661.921875 683.4375 663.1875 C 678.375 668.25 679.007812 676.476562 684.070312 680.90625 C 689.132812 685.335938 697.359375 685.335938 701.789062 680.273438 C 703.054688 678.375 704.953125 677.109375 706.21875 675.210938 C 710.648438 670.148438 710.648438 661.921875 704.953125 657.492188 C 700.523438 653.0625 692.296875 653.0625 687.867188 658.757812 Z M 687.867188 658.757812 " fill-opacity="1" fill-rule="nonzero"/><path fill="#00a5e9" d="M 553.710938 754.945312 C 551.8125 755.578125 549.914062 756.84375 548.015625 757.476562 C 541.6875 760.007812 538.523438 767.601562 541.054688 773.929688 C 542.953125 778.992188 548.015625 781.523438 553.078125 781.523438 C 556.875 781.523438 560.671875 779.625 563.835938 778.359375 C 570.164062 775.828125 573.328125 768.234375 570.796875 761.90625 C 567.632812 754.945312 560.039062 751.78125 553.710938 754.945312 Z M 553.710938 754.945312 " fill-opacity="1" fill-rule="nonzero"/><path fill="#00a5e9" d="M 136.6875 674.578125 C 131.625 669.515625 123.398438 669.515625 118.96875 674.578125 C 113.90625 679.640625 113.90625 687.234375 118.96875 692.296875 C 120.234375 693.5625 122.132812 695.460938 123.398438 696.726562 C 128.460938 701.789062 136.6875 701.15625 141.117188 696.09375 C 146.179688 691.03125 145.546875 682.804688 140.484375 678.375 C 139.851562 677.109375 137.953125 675.84375 136.6875 674.578125 Z M 136.6875 674.578125 " fill-opacity="1" fill-rule="nonzero"/><path fill="#00a5e9" d="M 184.148438 714.445312 C 182.25 713.179688 180.984375 711.914062 179.085938 710.648438 C 173.390625 706.21875 165.796875 707.484375 161.367188 713.179688 C 156.9375 718.875 158.203125 726.46875 163.898438 730.898438 C 165.796875 732.164062 167.695312 733.429688 168.960938 734.695312 C 174.65625 738.492188 182.882812 737.226562 186.679688 731.53125 C 191.109375 726.46875 189.210938 718.242188 184.148438 714.445312 Z M 184.148438 714.445312 " fill-opacity="1" fill-rule="nonzero"/><path fill="#00a5e9" d="M 100.617188 632.8125 C 96.1875 627.117188 88.59375 625.851562 82.898438 630.28125 C 77.203125 634.710938 75.9375 642.304688 80.367188 648 C 81.632812 649.898438 82.898438 651.796875 84.164062 653.0625 C 88.59375 658.757812 96.1875 659.390625 101.882812 655.59375 C 107.578125 651.164062 108.210938 643.570312 104.414062 637.875 C 103.148438 635.976562 101.882812 634.078125 100.617188 632.8125 Z M 100.617188 632.8125 " fill-opacity="1" fill-rule="nonzero"/><path fill="#00a5e9" d="M 70.242188 585.984375 C 67.078125 579.65625 59.484375 577.757812 53.15625 580.921875 C 46.828125 584.085938 44.929688 591.679688 48.09375 598.007812 C 49.359375 599.90625 49.992188 601.804688 51.257812 603.703125 C 54.421875 609.398438 62.648438 611.929688 68.34375 608.765625 C 74.671875 605.601562 76.570312 597.375 73.40625 591.679688 C 72.140625 589.78125 71.507812 587.882812 70.242188 585.984375 Z M 70.242188 585.984375 " fill-opacity="1" fill-rule="nonzero"/><path fill="#00a5e9" d="M 794.8125 449.929688 C 787.851562 448.664062 781.523438 453.726562 780.257812 460.6875 C 780.257812 462.585938 779.625 464.484375 779.625 467.015625 C 778.359375 473.976562 783.421875 480.304688 790.382812 481.570312 C 797.34375 482.835938 803.671875 477.773438 804.9375 470.8125 C 805.570312 468.914062 805.570312 466.382812 806.203125 464.484375 C 806.835938 456.890625 801.773438 450.5625 794.8125 449.929688 Z M 794.8125 449.929688 " fill-opacity="1" fill-rule="nonzero"/><path fill="#00a5e9" d="M 797.34375 391.078125 C 790.382812 391.078125 784.6875 396.773438 784.6875 403.734375 C 784.6875 403.734375 784.6875 408.796875 784.6875 411.328125 C 784.6875 418.289062 790.382812 423.984375 797.34375 423.984375 C 804.304688 423.984375 810 418.289062 810 411.328125 C 810 409.429688 810 403.734375 810 403.734375 C 810 396.773438 804.304688 391.078125 797.34375 391.078125 Z M 797.34375 391.078125 " fill-opacity="1" fill-rule="nonzero"/><path fill="#00a5e9" d="M 49.992188 541.054688 C 49.359375 539.15625 48.726562 537.257812 48.09375 535.359375 C 45.5625 529.03125 38.601562 525.234375 31.640625 527.765625 C 25.3125 530.296875 21.515625 537.257812 24.046875 544.21875 C 24.679688 546.117188 25.3125 548.015625 26.578125 550.546875 C 29.109375 556.875 36.703125 560.039062 43.03125 558.140625 C 49.359375 554.976562 52.523438 548.015625 49.992188 541.054688 Z M 49.992188 541.054688 " fill-opacity="1" fill-rule="nonzero"/><path fill="#00a5e9" d="M 282.234375 765.070312 C 280.335938 764.4375 278.4375 763.804688 276.539062 763.171875 C 270.210938 760.640625 262.617188 764.4375 260.085938 770.765625 C 257.554688 777.09375 261.351562 784.6875 267.679688 787.21875 C 269.578125 787.851562 272.109375 788.484375 274.007812 789.117188 C 280.335938 791.648438 287.929688 787.851562 289.828125 780.890625 C 292.359375 773.929688 289.195312 766.96875 282.234375 765.070312 Z M 282.234375 765.070312 " fill-opacity="1" fill-rule="nonzero"/><path fill="#00a5e9" d="M 230.976562 742.921875 C 229.078125 742.289062 227.179688 741.023438 225.28125 739.757812 C 218.953125 736.59375 211.359375 738.492188 208.195312 744.820312 C 205.03125 751.148438 206.929688 758.742188 213.257812 761.90625 C 215.15625 763.171875 217.054688 763.804688 218.953125 765.070312 C 225.28125 768.234375 232.875 765.703125 236.039062 759.375 C 239.835938 753.679688 237.304688 746.085938 230.976562 742.921875 Z M 230.976562 742.921875 " fill-opacity="1" fill-rule="nonzero"/><path fill="#00a5e9" d="M 308.8125 460.054688 C 310.078125 456.257812 309.445312 451.828125 306.914062 448.664062 C 304.382812 445.5 300.585938 443.601562 296.789062 443.601562 L 296.15625 443.601562 L 220.21875 261.984375 C 224.648438 255.65625 227.179688 248.0625 227.179688 239.835938 C 227.179688 224.015625 217.054688 210.09375 203.765625 204.398438 C 217.054688 184.78125 233.507812 177.820312 254.390625 177.1875 C 257.554688 182.25 297.421875 248.695312 365.132812 267.046875 C 387.914062 273.375 411.960938 273.375 435.375 268.945312 C 508.78125 254.390625 551.179688 183.515625 554.976562 177.1875 C 575.859375 177.820312 592.3125 184.78125 605.601562 204.398438 C 591.679688 210.09375 581.554688 223.382812 581.554688 239.835938 C 581.554688 248.0625 584.085938 255.65625 588.515625 261.984375 L 513.210938 442.96875 L 512.578125 442.96875 C 508.78125 442.96875 504.351562 444.867188 502.453125 448.03125 C 499.921875 451.195312 499.289062 455.625 500.554688 459.421875 C 520.804688 518.90625 567.632812 556.875 620.15625 556.875 C 672.679688 556.875 719.507812 518.90625 739.757812 459.421875 C 741.023438 455.625 740.390625 451.195312 737.859375 448.03125 C 735.328125 444.867188 731.53125 442.96875 727.734375 442.96875 L 727.101562 442.96875 L 650.53125 261.984375 C 654.960938 255.65625 657.492188 248.0625 657.492188 239.835938 C 657.492188 224.648438 648 211.359375 635.34375 205.03125 C 600.539062 136.6875 541.054688 149.34375 488.53125 161.367188 C 475.242188 164.53125 461.320312 167.0625 448.03125 168.960938 C 446.765625 158.835938 442.335938 148.078125 435.375 137.320312 C 426.515625 124.03125 422.085938 113.90625 419.554688 107.578125 C 415.757812 97.453125 408.796875 94.921875 404.367188 94.921875 C 399.9375 94.921875 392.976562 96.820312 389.179688 107.578125 C 386.648438 113.90625 382.21875 124.664062 373.359375 137.320312 C 366.398438 148.078125 361.96875 158.835938 360.703125 168.960938 C 347.414062 167.0625 334.125 164.53125 320.203125 161.367188 C 267.679688 149.976562 208.195312 136.6875 173.390625 205.03125 C 160.101562 210.726562 151.242188 224.015625 151.242188 239.835938 C 151.242188 248.0625 153.773438 255.65625 158.203125 261.984375 L 82.265625 442.96875 L 81.632812 442.96875 C 77.835938 442.96875 73.40625 444.867188 71.507812 448.03125 C 68.976562 451.195312 68.34375 455.625 69.609375 459.421875 C 89.859375 518.90625 136.6875 556.875 189.210938 556.875 C 241.734375 556.875 288.5625 518.90625 308.8125 460.054688 Z M 699.890625 442.96875 L 540.421875 442.96875 L 610.664062 276.539062 C 613.828125 277.171875 616.992188 277.804688 620.15625 277.804688 C 623.320312 277.804688 626.484375 277.171875 629.648438 276.539062 Z M 620.15625 227.179688 C 627.117188 227.179688 632.8125 232.875 632.8125 239.835938 C 632.8125 246.796875 627.117188 252.492188 620.15625 252.492188 C 613.195312 252.492188 607.5 246.796875 607.5 239.835938 C 607.5 232.875 613.195312 227.179688 620.15625 227.179688 Z M 315.140625 186.046875 C 331.59375 189.84375 348.046875 193.007812 364.5 194.90625 C 370.828125 208.195312 383.484375 218.320312 397.40625 220.851562 C 402.46875 221.484375 407.53125 221.484375 412.59375 220.851562 C 426.515625 218.320312 438.539062 207.5625 444.867188 194.90625 C 461.320312 193.007812 477.773438 189.84375 494.226562 186.046875 C 504.351562 184.148438 513.210938 181.617188 522.070312 180.351562 C 506.882812 201.234375 474.609375 235.40625 430.3125 244.265625 C 420.820312 246.164062 411.328125 246.796875 403.101562 246.796875 C 391.710938 246.796875 377.789062 244.265625 371.460938 242.367188 C 330.960938 231.609375 301.21875 199.96875 286.664062 180.351562 C 296.15625 181.617188 305.015625 183.515625 315.140625 186.046875 Z M 189.210938 227.179688 C 196.171875 227.179688 201.867188 232.875 201.867188 239.835938 C 201.867188 246.796875 196.171875 252.492188 189.210938 252.492188 C 182.25 252.492188 176.554688 246.796875 176.554688 239.835938 C 176.554688 232.875 182.25 227.179688 189.210938 227.179688 Z M 179.71875 276.539062 C 182.882812 277.171875 186.046875 277.804688 189.210938 277.804688 C 192.375 277.804688 195.539062 277.171875 198.703125 276.539062 L 268.945312 442.96875 L 109.476562 442.96875 Z M 179.71875 276.539062 " fill-opacity="1" fill-rule="nonzero"/><path fill="#00a5e9" d="M 522.703125 607.5 L 491.695312 607.5 C 461.953125 602.4375 461.953125 573.328125 461.953125 570.164062 C 461.953125 567 460.6875 563.203125 458.789062 560.671875 C 456.257812 558.140625 453.09375 556.875 449.296875 556.875 L 442.96875 556.875 L 442.96875 293.625 C 442.335938 293.625 425.25 296.789062 417.65625 297.421875 L 417.65625 556.875 L 392.34375 556.875 L 392.34375 296.789062 C 383.484375 296.15625 373.992188 294.890625 367.03125 292.992188 L 367.03125 556.875 L 360.070312 556.875 C 356.90625 556.875 353.109375 558.140625 351.210938 560.671875 C 348.679688 563.203125 347.414062 566.367188 347.414062 570.164062 C 347.414062 573.328125 348.046875 602.4375 317.671875 607.5 L 286.664062 607.5 C 267.679688 607.5 252.492188 623.320312 252.492188 642.304688 L 252.492188 670.78125 C 252.492188 677.742188 258.1875 683.4375 265.148438 683.4375 L 543.585938 683.4375 C 550.546875 683.4375 556.242188 677.742188 556.242188 670.78125 L 556.242188 642.304688 C 556.875 623.320312 541.6875 607.5 522.703125 607.5 Z M 404.367188 632.8125 C 397.40625 632.8125 391.710938 627.117188 391.710938 620.15625 C 391.710938 613.195312 397.40625 607.5 404.367188 607.5 C 411.328125 607.5 417.023438 613.195312 417.023438 620.15625 C 417.023438 627.117188 411.960938 632.8125 404.367188 632.8125 Z M 404.367188 632.8125 " fill-opacity="1" fill-rule="nonzero"/></svg>