<svg xmlns="http://www.w3.org/2000/svg" xmlns:xlink="http://www.w3.org/1999/xlink" width="1080" zoomAndPan="magnify" viewBox="0 0 810 809.999993" height="1080" preserveAspectRatio="xMidYMid meet" version="1.0"><defs><clipPath id="4e68640b8e"><path d="M 106.035156 0 L 703.785156 0 L 703.785156 810 L 106.035156 810 Z M 106.035156 0 " clip-rule="nonzero"/></clipPath></defs><rect x="-81" width="972" fill="#ffffff" y="-80.999999" height="971.999992" fill-opacity="1"/><rect x="-81" width="972" fill="#ffffff" y="-80.999999" height="971.999992" fill-opacity="1"/><g clip-path="url(#4e68640b8e)"><path fill="#00a5e9" d="M 238.121094 546.328125 L 155.648438 729.921875 C 154.074219 733.429688 154.535156 737.515625 156.855469 740.585938 C 159.171875 743.652344 162.980469 745.214844 166.785156 744.65625 L 252.953125 732.015625 C 252.953125 732.015625 300.734375 804.824219 300.734375 804.824219 C 302.84375 808.039062 306.539062 809.851562 310.375 809.546875 C 314.210938 809.242188 317.570312 806.871094 319.144531 803.363281 L 404.914062 612.429688 L 490.683594 803.363281 C 492.257812 806.871094 495.621094 809.242188 499.457031 809.546875 C 503.289062 809.851562 506.984375 808.039062 509.09375 804.824219 L 556.878906 732.015625 C 556.878906 732.015625 643.046875 744.65625 643.046875 744.65625 C 646.851562 745.214844 650.65625 743.652344 652.976562 740.585938 C 655.292969 737.515625 655.753906 733.429688 654.179688 729.921875 L 571.707031 546.328125 C 651.246094 492.644531 703.589844 401.683594 703.589844 298.589844 C 703.589844 133.746094 569.757812 -0.0859375 404.914062 -0.0859375 C 240.074219 -0.0859375 106.242188 133.746094 106.242188 298.589844 C 106.242188 401.683594 158.585938 492.644531 238.121094 546.328125 Z M 553.675781 557.585938 C 514.238281 580.304688 469.125 594.277344 421.003906 596.835938 L 502.023438 777.210938 L 542.953125 714.84375 C 545.203125 711.417969 549.230469 709.605469 553.285156 710.199219 C 553.285156 710.199219 627.09375 721.027344 627.09375 721.027344 Z M 256.152344 557.585938 L 182.734375 721.027344 L 256.542969 710.199219 C 260.597656 709.605469 264.628906 711.417969 266.875 714.84375 C 266.875 714.84375 307.804688 777.210938 307.804688 777.210938 L 388.828125 596.835938 C 340.707031 594.28125 295.589844 580.308594 256.152344 557.585938 Z M 404.914062 20.980469 C 558.132812 20.980469 682.527344 145.371094 682.527344 298.589844 C 682.527344 451.808594 558.132812 576.199219 404.914062 576.199219 C 251.699219 576.199219 127.304688 451.808594 127.304688 298.589844 C 127.304688 145.371094 251.699219 20.980469 404.914062 20.980469 Z M 404.914062 50.167969 C 267.808594 50.167969 156.496094 161.484375 156.496094 298.589844 C 156.496094 435.695312 267.808594 547.011719 404.914062 547.011719 C 542.023438 547.011719 653.335938 435.695312 653.335938 298.589844 C 653.335938 161.484375 542.023438 50.167969 404.914062 50.167969 Z M 404.914062 71.230469 C 530.398438 71.230469 632.273438 173.109375 632.273438 298.589844 C 632.273438 424.070312 530.398438 525.949219 404.914062 525.949219 C 279.433594 525.949219 177.558594 424.070312 177.558594 298.589844 C 177.558594 173.109375 279.433594 71.230469 404.914062 71.230469 Z M 414.492188 125.605469 C 412.777344 121.859375 409.035156 119.453125 404.914062 119.453125 C 400.792969 119.453125 397.050781 121.859375 395.335938 125.605469 L 350.578125 223.519531 C 350.578125 223.519531 243.628906 235.832031 243.628906 235.832031 C 239.53125 236.300781 236.089844 239.117188 234.816406 243.039062 C 233.542969 246.957031 234.671875 251.261719 237.707031 254.050781 L 316.996094 326.871094 C 316.996094 326.871094 295.65625 432.394531 295.65625 432.394531 C 294.839844 436.433594 296.453125 440.578125 299.789062 443 C 303.125 445.425781 307.5625 445.679688 311.152344 443.652344 L 404.914062 390.75 C 404.914062 390.75 498.675781 443.652344 498.675781 443.652344 C 502.265625 445.679688 506.707031 445.425781 510.042969 443 C 513.375 440.578125 514.992188 436.433594 514.175781 432.394531 L 492.832031 326.871094 C 492.832031 326.871094 572.121094 254.050781 572.121094 254.050781 C 575.160156 251.261719 576.289062 246.957031 575.015625 243.039062 C 573.742188 239.117188 570.296875 236.300781 566.203125 235.832031 L 459.25 223.519531 C 459.25 223.519531 414.492188 125.605469 414.492188 125.605469 Z M 404.914062 155.316406 L 442.566406 237.679688 C 444.097656 241.035156 447.273438 243.34375 450.9375 243.765625 L 540.90625 254.121094 C 540.90625 254.121094 474.207031 315.378906 474.207031 315.378906 C 471.492188 317.875 470.28125 321.609375 471.007812 325.222656 L 488.960938 413.988281 C 488.960938 413.988281 410.089844 369.484375 410.089844 369.484375 C 406.878906 367.671875 402.953125 367.671875 399.738281 369.484375 L 320.867188 413.988281 C 320.867188 413.988281 338.820312 325.222656 338.820312 325.222656 C 339.550781 321.609375 338.335938 317.875 335.621094 315.378906 L 268.921875 254.121094 C 268.921875 254.121094 358.890625 243.765625 358.890625 243.765625 C 362.554688 243.34375 365.730469 241.035156 367.265625 237.679688 Z M 404.914062 155.316406 " fill-opacity="1" fill-rule="evenodd"/></g></svg>