<svg xmlns="http://www.w3.org/2000/svg" xmlns:xlink="http://www.w3.org/1999/xlink" width="1080" zoomAndPan="magnify" viewBox="0 0 810 809.999993" height="1080" preserveAspectRatio="xMidYMid meet" version="1.0"><defs><clipPath id="82e118a1b2"><path d="M 2 0 L 807.75 0 L 807.75 810 L 2 810 Z M 2 0 " clip-rule="nonzero"/></clipPath></defs><rect x="-81" width="972" fill="#ffffff" y="-80.999999" height="971.999992" fill-opacity="1"/><rect x="-81" width="972" fill="#ffffff" y="-80.999999" height="971.999992" fill-opacity="1"/><path fill="#00a5e9" d="M 404.222656 646.671875 C 272.707031 646.671875 165.402344 539.367188 165.402344 407.847656 C 165.402344 276.332031 272.707031 168.550781 404.222656 168.550781 C 536.214844 168.550781 643.519531 276.332031 643.519531 407.847656 C 643.519531 540.316406 536.214844 646.671875 404.222656 646.671875 Z M 404.222656 191.816406 C 285.050781 191.816406 188.191406 288.675781 188.191406 407.847656 C 188.191406 527.023438 285.050781 623.878906 404.222656 623.878906 C 523.398438 623.878906 620.253906 527.023438 620.253906 407.847656 C 620.253906 288.675781 523.398438 191.816406 404.222656 191.816406 Z M 404.222656 191.816406 " fill-opacity="1" fill-rule="evenodd"/><path fill="#00a5e9" d="M 362.917969 536.992188 C 361.015625 536.992188 358.644531 536.042969 356.746094 535.570312 C 356.269531 535.09375 355.792969 534.144531 354.371094 533.667969 L 312.113281 491.886719 L 253.714844 433.488281 C 237.570312 416.871094 237.570312 390.757812 253.714844 375.089844 C 269.855469 358.945312 296.445312 358.945312 312.113281 375.089844 L 362.917969 425.417969 L 496.332031 290.574219 C 504.40625 282.503906 514.375 278.703125 525.296875 278.703125 C 536.691406 278.703125 546.664062 282.503906 554.257812 290.574219 C 562.332031 298.644531 567.078125 309.089844 567.078125 320.011719 C 567.078125 331.40625 562.332031 341.378906 554.257812 348.972656 L 370.511719 533.667969 C 370.039062 534.144531 368.613281 535.09375 368.140625 535.570312 C 366.714844 536.042969 364.816406 536.992188 363.390625 536.992188 C 363.390625 536.992188 363.390625 536.992188 362.917969 536.992188 Z M 283.152344 386.007812 C 278.402344 386.007812 273.179688 387.90625 269.855469 391.230469 C 263.210938 397.878906 263.210938 409.746094 270.804688 416.871094 L 362.917969 508.503906 L 538.589844 332.832031 C 541.914062 329.507812 543.8125 324.757812 543.8125 320.011719 C 543.8125 314.789062 541.914062 310.515625 538.589844 307.191406 C 531.945312 300.546875 520.074219 300.546875 512.953125 307.191406 L 370.511719 450.105469 C 366.238281 454.378906 358.644531 454.378906 354.371094 450.105469 C 353.421875 449.15625 352.945312 448.679688 352.472656 447.730469 L 296.445312 391.230469 C 293.121094 387.433594 287.898438 386.007812 283.152344 386.007812 Z M 283.152344 386.007812 " fill-opacity="1" fill-rule="evenodd"/><g clip-path="url(#82e118a1b2)"><path fill="#00a5e9" d="M 406.121094 810 C 384.757812 810 367.664062 793.855469 350.097656 777.238281 C 338.226562 765.84375 326.832031 753.972656 314.960938 750.652344 C 303.566406 748.277344 286.949219 752.074219 271.28125 756.347656 C 247.542969 762.046875 223.328125 767.742188 202.910156 756.824219 C 182.496094 744.953125 175.371094 720.738281 168.726562 697 C 163.976562 680.855469 159.230469 665.1875 151.632812 657.117188 C 143.5625 649.519531 126.945312 644.296875 111.273438 639.546875 C 88.960938 632.902344 65.21875 626.253906 54.773438 607.261719 C 44.328125 588.269531 50.027344 565.007812 56.199219 542.214844 C 59.996094 526.546875 64.746094 510.40625 61.421875 499.484375 C 58.574219 488.5625 46.703125 477.167969 35.78125 465.300781 C 19.164062 448.679688 0.171875 429.6875 2.546875 405 C 0.171875 381.261719 19.164062 362.269531 35.78125 345.175781 C 46.703125 334.253906 58.574219 322.386719 61.898438 310.992188 C 64.746094 300.546875 60.472656 283.925781 56.675781 268.257812 C 50.5 245.945312 44.328125 222.203125 55.25 203.6875 C 65.695312 184.695312 89.433594 178.046875 111.75 171.402344 C 127.894531 166.652344 144.035156 162.378906 152.109375 153.832031 C 160.179688 145.761719 164.453125 129.144531 169.199219 113.949219 C 175.847656 90.210938 182.96875 65.996094 203.386719 54.125 C 223.800781 42.257812 248.492188 48.429688 271.757812 54.125 C 287.898438 57.925781 304.042969 62.199219 315.4375 59.347656 C 326.832031 56.976562 339.175781 45.105469 351.046875 33.234375 C 368.140625 16.617188 385.230469 0 407.074219 0 C 428.914062 0 446.003906 17.09375 462.148438 33.710938 C 474.019531 45.105469 485.886719 57.449219 496.332031 60.300781 C 507.730469 62.671875 523.398438 58.875 539.066406 55.078125 C 561.855469 48.902344 585.59375 42.257812 604.585938 53.652344 C 623.578125 64.097656 630.226562 86.886719 636.875 109.675781 C 641.144531 125.347656 645.894531 141.964844 654.441406 149.558594 C 662.988281 158.105469 679.128906 162.855469 694.796875 167.601562 C 718.539062 174.25 742.753906 181.371094 754.148438 201.789062 C 765.066406 221.253906 759.371094 246.417969 753.199219 270.160156 C 749.398438 285.828125 745.601562 302.445312 747.976562 313.839844 C 751.296875 324.757812 763.167969 337.105469 774.5625 348.972656 C 790.707031 366.542969 807.800781 383.632812 807.324219 405 C 807.800781 426.839844 790.707031 444.882812 774.5625 461.976562 C 763.167969 473.84375 751.296875 486.191406 747.976562 497.109375 C 745.601562 508.503906 749.398438 525.125 753.199219 540.792969 C 759.371094 564.53125 765.066406 588.746094 754.148438 609.160156 C 742.277344 629.578125 717.589844 637.175781 693.847656 643.347656 C 678.179688 648.09375 662.511719 652.84375 654.441406 660.441406 C 645.894531 668.984375 641.144531 685.605469 636.875 701.273438 C 630.226562 724.0625 623.578125 746.851562 604.585938 758.246094 C 585.59375 768.691406 562.332031 762.519531 539.066406 756.824219 C 523.398438 753.023438 507.730469 748.277344 496.332031 751.601562 C 485.414062 753.972656 473.542969 765.84375 462.148438 777.714844 C 445.054688 792.90625 427.964844 810 406.121094 810 Z M 306.414062 727.386719 C 311.640625 727.386719 315.910156 727.859375 320.660156 729.285156 C 337.753906 733.558594 352.472656 747.328125 366.238281 760.621094 C 380.007812 773.914062 393.777344 787.683594 406.121094 787.210938 C 418.941406 787.210938 432.710938 773.441406 446.003906 760.148438 C 459.773438 746.378906 473.542969 732.609375 490.636719 727.859375 C 507.730469 723.113281 526.722656 728.335938 545.238281 733.082031 C 562.804688 737.832031 582.273438 743.054688 592.71875 736.882812 C 603.164062 731.183594 608.386719 712.191406 613.609375 694.148438 C 618.832031 675.160156 625.003906 656.167969 637.347656 643.347656 C 649.691406 631.476562 668.210938 626.253906 686.726562 621.03125 C 705.71875 615.808594 726.132812 610.113281 732.78125 597.292969 C 739.429688 585.421875 734.679688 565.007812 730.40625 546.015625 C 725.660156 527.496094 720.910156 508.03125 725.183594 491.414062 C 729.457031 474.320312 743.226562 459.601562 757.472656 445.832031 C 770.289062 432.0625 784.058594 418.292969 783.585938 405.949219 C 783.585938 405.949219 783.585938 405 783.585938 405 C 784.058594 392.65625 770.289062 378.886719 757.472656 365.117188 C 744.175781 351.347656 729.457031 336.628906 725.183594 319.535156 C 720.4375 302.445312 725.660156 283.453125 730.40625 264.460938 C 734.679688 244.996094 739.902344 224.578125 732.78125 212.707031 C 725.660156 200.363281 705.71875 195.140625 686.726562 188.96875 C 668.210938 183.746094 649.21875 178.046875 636.875 166.179688 C 624.054688 153.832031 618.355469 134.367188 613.132812 115.375 C 607.910156 97.808594 602.6875 79.289062 591.769531 73.117188 C 580.847656 67.421875 562.332031 72.167969 543.8125 76.441406 C 525.296875 81.191406 506.304688 86.414062 489.210938 81.664062 C 472.121094 77.390625 458.351562 63.621094 444.582031 49.378906 C 431.285156 36.558594 417.519531 22.789062 405.648438 22.789062 C 393.304688 22.789062 379.058594 35.609375 366.238281 48.902344 C 352.472656 62.671875 337.753906 76.441406 320.183594 80.714844 C 303.566406 84.988281 283.625 79.765625 265.582031 75.96875 C 246.117188 71.21875 225.699219 65.996094 213.832031 73.117188 C 201.484375 80.714844 195.789062 100.183594 190.089844 119.171875 C 184.867188 137.691406 179.644531 156.207031 167.777344 168.550781 C 155.429688 181.371094 136.4375 187.070312 117.449219 192.292969 C 98.929688 197.515625 80.414062 203.210938 73.765625 214.132812 C 68.070312 224.578125 72.34375 244.042969 77.089844 261.613281 C 81.839844 280.128906 87.0625 299.121094 82.3125 316.214844 C 77.566406 333.304688 63.796875 347.074219 50.027344 360.371094 C 35.78125 375.089844 21.539062 389.332031 23.914062 402.625 C 23.914062 404.050781 23.914062 405 23.914062 405.949219 C 21.539062 419.71875 35.78125 433.488281 50.5 448.679688 C 63.796875 462.449219 77.566406 476.21875 82.3125 492.835938 C 87.0625 509.929688 81.839844 528.921875 77.089844 547.4375 C 72.34375 565.007812 67.121094 584.472656 73.292969 594.917969 C 78.988281 605.839844 97.980469 611.0625 116.5 616.757812 C 135.015625 621.980469 154.007812 627.679688 166.828125 640.023438 C 178.222656 652.84375 184.394531 671.359375 189.617188 689.402344 C 194.839844 708.867188 201.011719 729.285156 213.355469 735.933594 C 225.226562 742.105469 245.640625 737.832031 264.632812 733.082031 C 279.828125 730.234375 293.597656 727.386719 306.414062 727.386719 Z M 306.414062 727.386719 " fill-opacity="1" fill-rule="evenodd"/></g></svg>