<svg xmlns="http://www.w3.org/2000/svg" xmlns:xlink="http://www.w3.org/1999/xlink" width="1080" zoomAndPan="magnify" viewBox="0 0 810 809.999993" height="1080" preserveAspectRatio="xMidYMid meet" version="1.0"><defs><clipPath id="a5194e8bea"><path d="M 0 81 L 810 81 L 810 717.75 L 0 717.75 Z M 0 81 " clip-rule="nonzero"/></clipPath></defs><rect x="-81" width="972" fill="#ffffff" y="-80.999999" height="971.999992" fill-opacity="1"/><rect x="-81" width="972" fill="#ffffff" y="-80.999999" height="971.999992" fill-opacity="1"/><g clip-path="url(#a5194e8bea)"><path fill="#00a5e9" d="M 607.554688 515.070312 L 607.554688 649.402344 C 607.554688 659.101562 602.695312 668.152344 594.617188 673.507812 C 594.617188 673.507812 529.96875 717.667969 405.117188 717.667969 C 280.265625 717.667969 215.617188 673.507812 215.617188 673.507812 C 207.53125 668.152344 202.671875 659.101562 202.671875 649.402344 L 202.671875 515.070312 C 202.671875 435.292969 267.339844 370.621094 347.121094 370.621094 L 463.109375 370.621094 C 542.886719 370.621094 607.554688 435.292969 607.554688 515.070312 Z M 405.117188 81.417969 C 470.875 81.417969 524.3125 127.144531 524.3125 200.878906 C 524.3125 242.320312 506.148438 283.773438 478.441406 310.347656 C 457.957031 330.003906 432.4375 341.699219 405.117188 341.699219 C 377.792969 341.699219 352.277344 330.003906 331.792969 310.347656 C 304.085938 283.773438 285.921875 242.320312 285.921875 200.878906 C 285.921875 127.144531 339.351562 81.417969 405.117188 81.417969 Z M 650.9375 150.105469 C 704.242188 150.105469 747.566406 187.160156 747.566406 246.929688 C 747.566406 279.988281 733.039062 313.042969 710.933594 334.253906 C 694.191406 350.320312 673.277344 359.78125 650.9375 359.78125 C 628.601562 359.78125 607.6875 350.320312 590.9375 334.253906 C 568.839844 313.042969 554.3125 279.988281 554.3125 246.929688 C 554.3125 187.160156 597.628906 150.105469 650.9375 150.105469 Z M 159.292969 150.105469 C 212.597656 150.105469 255.917969 187.160156 255.917969 246.929688 C 255.917969 279.988281 241.398438 313.042969 219.289062 334.253906 C 202.542969 350.320312 181.628906 359.78125 159.292969 359.78125 C 136.957031 359.78125 116.042969 350.320312 99.296875 334.253906 C 77.1875 313.042969 62.667969 279.988281 62.667969 246.929688 C 62.667969 187.160156 105.988281 150.105469 159.292969 150.105469 Z M 145.433594 659.585938 C 58.207031 656.539062 13.171875 625.503906 13.171875 625.503906 C 5.085938 620.148438 0.230469 611.097656 0.230469 601.398438 L 0.230469 529.527344 C 0.230469 449.757812 64.902344 385.082031 144.675781 385.082031 L 173.910156 385.082031 C 179.78125 385.082031 185.570312 385.433594 191.253906 386.113281 C 162.265625 421.125 144.835938 466.058594 144.835938 515.070312 L 144.835938 649.402344 C 144.835938 652.832031 145.035156 656.226562 145.433594 659.585938 Z M 618.972656 386.113281 C 624.664062 385.433594 630.453125 385.082031 636.324219 385.082031 L 665.554688 385.082031 C 745.332031 385.082031 810 449.757812 810 529.527344 L 810 601.398438 C 810 611.097656 805.140625 620.148438 797.054688 625.503906 C 797.054688 625.503906 752.023438 656.539062 664.796875 659.585938 C 665.199219 656.226562 665.402344 652.832031 665.402344 649.402344 L 665.402344 515.070312 C 665.402344 466.058594 647.972656 421.125 618.972656 386.113281 Z M 618.972656 386.113281 " fill-opacity="1" fill-rule="evenodd"/></g></svg>