<svg xmlns="http://www.w3.org/2000/svg" xmlns:xlink="http://www.w3.org/1999/xlink" width="1080" zoomAndPan="magnify" viewBox="0 0 810 809.999993" height="1080" preserveAspectRatio="xMidYMid meet" version="1.0"><defs><clipPath id="ad15c3d2ef"><path d="M 2 97.707031 L 808 97.707031 L 808 711.957031 L 2 711.957031 Z M 2 97.707031 " clip-rule="nonzero"/></clipPath></defs><rect x="-81" width="972" fill="#ffffff" y="-80.999999" height="971.999992" fill-opacity="1"/><rect x="-81" width="972" fill="#ffffff" y="-80.999999" height="971.999992" fill-opacity="1"/><path fill="#00a5e9" d="M 591.117188 424.382812 C 543.621094 424.382812 504.84375 385.609375 504.84375 338.109375 C 504.84375 290.609375 543.621094 251.835938 591.117188 251.835938 C 638.617188 251.835938 677.390625 290.609375 677.390625 338.109375 C 677.390625 385.609375 638.617188 424.382812 591.117188 424.382812 Z M 591.117188 271.222656 C 554.28125 271.222656 524.230469 301.273438 524.230469 338.109375 C 524.230469 374.945312 554.28125 404.996094 591.117188 404.996094 C 627.953125 404.996094 658.003906 374.945312 658.003906 338.109375 C 658.003906 301.273438 627.953125 271.222656 591.117188 271.222656 Z M 591.117188 271.222656 " fill-opacity="1" fill-rule="nonzero"/><path fill="#00a5e9" d="M 749.125 547.492188 L 684.175781 431.167969 C 690.960938 429.230469 697.75 426.320312 702.59375 419.535156 C 708.410156 410.8125 708.410156 400.148438 707.441406 390.453125 C 707.441406 384.636719 706.472656 379.792969 707.441406 375.914062 C 708.410156 373.007812 712.289062 368.160156 715.195312 364.28125 C 721.011719 356.527344 728.769531 348.773438 728.769531 337.140625 C 728.769531 325.507812 721.984375 317.753906 715.195312 309.996094 C 712.289062 306.121094 708.410156 302.242188 707.441406 298.363281 C 706.472656 294.488281 706.472656 289.640625 707.441406 283.824219 C 708.410156 274.128906 708.410156 263.46875 702.59375 254.742188 C 695.808594 246.019531 686.117188 243.109375 676.421875 241.171875 C 671.574219 240.203125 665.757812 238.265625 662.851562 236.324219 C 659.941406 234.386719 657.035156 229.539062 654.128906 224.691406 C 649.28125 216.9375 643.464844 207.246094 632.800781 204.335938 C 623.105469 201.429688 613.414062 205.304688 604.6875 208.214844 C 599.84375 210.152344 594.027344 212.089844 590.148438 212.089844 C 586.269531 212.089844 581.425781 210.152344 575.609375 208.214844 C 566.882812 204.335938 557.191406 200.460938 547.496094 204.335938 C 536.832031 207.246094 531.015625 216.9375 526.171875 224.691406 C 523.261719 229.539062 520.355469 233.417969 517.445312 236.324219 C 514.539062 238.265625 508.722656 240.203125 503.875 241.171875 C 494.179688 243.109375 484.488281 246.019531 477.703125 254.742188 C 471.886719 263.46875 471.886719 274.128906 472.855469 283.824219 C 472.855469 289.640625 473.824219 294.488281 472.855469 298.363281 C 471.886719 301.273438 468.007812 306.121094 465.101562 309.996094 C 459.285156 317.753906 451.53125 325.507812 451.53125 337.140625 C 451.53125 347.800781 458.316406 356.527344 465.101562 364.28125 C 468.007812 368.160156 471.886719 372.035156 472.855469 375.914062 C 473.824219 379.792969 473.824219 384.636719 472.855469 390.453125 C 471.886719 400.148438 471.886719 410.8125 477.703125 419.535156 C 483.519531 427.289062 492.242188 430.199219 500.96875 432.136719 L 436.988281 547.492188 C 435.050781 550.398438 435.050781 554.277344 436.988281 557.1875 C 438.929688 560.09375 441.835938 562.03125 445.714844 562.03125 L 487.394531 559.125 L 506.785156 595.960938 C 508.722656 598.867188 511.628906 600.808594 515.507812 600.808594 C 519.386719 600.808594 522.292969 598.867188 524.230469 595.960938 L 594.027344 472.851562 L 661.882812 594.992188 C 663.820312 597.898438 666.730469 599.835938 670.605469 599.835938 C 674.484375 599.835938 677.390625 597.898438 679.332031 594.992188 L 698.71875 558.15625 L 740.402344 561.0625 C 744.277344 561.0625 747.1875 559.125 749.125 556.214844 C 751.0625 554.277344 751.0625 550.398438 749.125 547.492188 Z M 493.210938 391.425781 C 493.210938 384.636719 494.179688 376.882812 492.242188 370.097656 C 490.304688 363.3125 485.457031 357.496094 480.609375 352.648438 C 476.734375 347.800781 471.886719 341.988281 471.886719 338.109375 C 471.886719 334.230469 476.734375 328.414062 480.609375 323.570312 C 485.457031 317.753906 490.304688 312.90625 492.242188 306.121094 C 494.179688 299.335938 494.179688 291.578125 493.210938 284.792969 C 493.210938 278.007812 492.242188 271.222656 494.179688 268.316406 C 496.121094 265.40625 502.90625 263.46875 508.722656 262.5 C 515.507812 260.558594 523.261719 258.621094 529.078125 254.742188 C 534.894531 250.867188 538.773438 244.082031 542.648438 238.265625 C 546.527344 232.449219 549.433594 226.632812 553.3125 225.664062 C 554.28125 225.664062 554.28125 225.664062 555.25 225.664062 C 559.128906 225.664062 563.976562 227.601562 568.824219 229.539062 C 575.609375 232.449219 582.394531 235.355469 590.148438 235.355469 C 597.902344 235.355469 604.6875 232.449219 611.476562 229.539062 C 617.289062 227.601562 623.105469 224.691406 626.984375 225.664062 C 630.863281 226.632812 633.769531 232.449219 637.648438 238.265625 C 641.523438 244.082031 645.402344 250.867188 651.21875 254.742188 C 657.035156 258.621094 664.789062 260.558594 671.574219 262.5 C 678.359375 264.4375 684.175781 265.40625 686.117188 268.316406 C 688.054688 271.222656 688.054688 278.007812 687.085938 284.792969 C 687.085938 291.578125 686.117188 299.335938 688.054688 306.121094 C 689.992188 312.90625 694.839844 318.722656 699.6875 323.570312 C 703.5625 328.414062 708.410156 334.230469 708.410156 338.109375 C 708.410156 341.988281 703.5625 347.800781 699.6875 352.648438 C 694.839844 358.464844 689.992188 363.3125 688.054688 370.097656 C 686.117188 376.882812 686.117188 384.636719 687.085938 391.425781 C 687.085938 398.210938 688.054688 404.996094 686.117188 407.902344 C 684.175781 410.8125 677.390625 412.75 671.574219 413.71875 C 664.789062 415.660156 657.035156 417.597656 651.21875 421.472656 C 645.402344 425.351562 641.523438 432.136719 637.648438 437.953125 C 633.769531 443.769531 630.863281 449.585938 626.984375 450.554688 C 624.078125 451.523438 617.289062 448.617188 611.476562 446.679688 C 606.628906 444.738281 600.8125 442.800781 595.964844 441.832031 C 594.027344 441.832031 592.085938 440.863281 590.148438 440.863281 C 582.394531 440.863281 575.609375 443.769531 568.824219 446.679688 C 563.007812 448.617188 557.191406 451.523438 553.3125 450.554688 C 549.433594 449.585938 546.527344 443.769531 542.648438 437.953125 C 538.773438 432.136719 534.894531 425.351562 529.078125 421.472656 C 523.261719 417.597656 515.507812 415.660156 508.722656 413.71875 C 501.9375 411.78125 496.121094 410.8125 494.179688 407.902344 C 492.242188 404.996094 493.210938 398.210938 493.210938 391.425781 Z M 517.445312 570.757812 L 502.90625 544.582031 C 500.96875 541.675781 497.089844 539.738281 494.179688 539.738281 L 464.132812 540.707031 L 520.355469 438.921875 C 522.292969 440.863281 525.203125 444.738281 527.140625 448.617188 C 531.988281 456.371094 537.804688 466.066406 548.464844 468.972656 C 551.375 469.941406 553.3125 469.941406 556.222656 469.941406 C 563.007812 469.941406 570.761719 467.035156 576.578125 464.125 Z M 693.871094 538.769531 C 689.992188 538.769531 686.117188 540.707031 685.148438 543.613281 L 670.605469 569.789062 L 614.382812 468.003906 C 620.199219 469.941406 626.984375 470.914062 633.769531 468.972656 C 644.433594 466.066406 650.25 456.371094 655.097656 448.617188 C 658.003906 443.769531 660.914062 439.890625 663.820312 436.984375 C 664.789062 436.015625 665.757812 436.015625 666.730469 436.015625 L 724.890625 540.707031 Z M 693.871094 538.769531 " fill-opacity="1" fill-rule="nonzero"/><g clip-path="url(#ad15c3d2ef)"><path fill="#00a5e9" d="M 765.605469 712.285156 L 44.394531 712.285156 C 21.132812 712.285156 2.714844 693.867188 2.714844 670.601562 L 2.714844 139.390625 C 2.714844 116.125 21.132812 97.707031 44.394531 97.707031 L 765.605469 97.707031 C 788.867188 97.707031 807.285156 116.125 807.285156 139.390625 L 807.285156 670.601562 C 807.285156 692.898438 787.898438 712.285156 765.605469 712.285156 Z M 44.394531 117.09375 C 31.792969 117.09375 22.101562 126.789062 22.101562 139.390625 L 22.101562 670.601562 C 22.101562 683.203125 31.792969 692.898438 44.394531 692.898438 L 765.605469 692.898438 C 778.207031 692.898438 787.898438 683.203125 787.898438 670.601562 L 787.898438 139.390625 C 787.898438 126.789062 778.207031 117.09375 765.605469 117.09375 Z M 44.394531 117.09375 " fill-opacity="1" fill-rule="nonzero"/></g><path fill="#00a5e9" d="M 731.675781 671.570312 L 81.230469 671.570312 C 60.875 671.570312 44.394531 655.089844 44.394531 634.734375 L 44.394531 175.253906 C 44.394531 154.898438 60.875 138.417969 81.230469 138.417969 L 731.675781 138.417969 C 752.03125 138.417969 768.511719 154.898438 768.511719 175.253906 L 768.511719 634.734375 C 768.511719 655.089844 752.03125 671.570312 731.675781 671.570312 Z M 81.230469 148.113281 C 66.691406 148.113281 54.089844 160.714844 54.089844 175.253906 L 54.089844 634.734375 C 54.089844 649.277344 66.691406 661.878906 81.230469 661.878906 L 731.675781 661.878906 C 746.214844 661.878906 758.820312 649.277344 758.820312 634.734375 L 758.820312 175.253906 C 758.820312 160.714844 746.214844 148.113281 731.675781 148.113281 Z M 81.230469 148.113281 " fill-opacity="1" fill-rule="nonzero"/><path fill="#00a5e9" d="M 429.234375 242.140625 L 115.160156 242.140625 C 109.34375 242.140625 105.464844 238.265625 105.464844 232.449219 C 105.464844 226.632812 109.34375 222.753906 115.160156 222.753906 L 428.265625 222.753906 C 434.082031 222.753906 437.957031 226.632812 437.957031 232.449219 C 437.957031 238.265625 434.082031 242.140625 429.234375 242.140625 Z M 429.234375 242.140625 " fill-opacity="1" fill-rule="nonzero"/><path fill="#00a5e9" d="M 393.367188 484.484375 L 115.160156 484.484375 C 109.34375 484.484375 105.464844 480.605469 105.464844 474.789062 C 105.464844 468.972656 109.34375 465.097656 115.160156 465.097656 L 393.367188 465.097656 C 399.183594 465.097656 403.0625 468.972656 403.0625 474.789062 C 403.0625 480.605469 399.183594 484.484375 393.367188 484.484375 Z M 393.367188 484.484375 " fill-opacity="1" fill-rule="nonzero"/><path fill="#00a5e9" d="M 393.367188 373.007812 L 115.160156 373.007812 C 109.34375 373.007812 105.464844 369.128906 105.464844 363.3125 C 105.464844 357.496094 109.34375 353.617188 115.160156 353.617188 L 393.367188 353.617188 C 399.183594 353.617188 403.0625 357.496094 403.0625 363.3125 C 403.0625 369.128906 399.183594 373.007812 393.367188 373.007812 Z M 393.367188 373.007812 " fill-opacity="1" fill-rule="nonzero"/><path fill="#00a5e9" d="M 262.503906 558.15625 L 115.160156 558.15625 C 109.34375 558.15625 105.464844 554.277344 105.464844 548.460938 C 105.464844 542.644531 109.34375 538.769531 115.160156 538.769531 L 262.503906 538.769531 C 268.320312 538.769531 272.195312 542.644531 272.195312 548.460938 C 272.195312 554.277344 268.320312 558.15625 262.503906 558.15625 Z M 262.503906 558.15625 " fill-opacity="1" fill-rule="nonzero"/></svg>