<svg xmlns="http://www.w3.org/2000/svg" xmlns:xlink="http://www.w3.org/1999/xlink" width="1080" zoomAndPan="magnify" viewBox="0 0 810 809.999993" height="1080" preserveAspectRatio="xMidYMid meet" version="1.0"><defs><clipPath id="4dcaaba793"><path d="M 622 324 L 744.5625 324 L 744.5625 357 L 622 357 Z M 622 324 " clip-rule="nonzero"/></clipPath></defs><rect x="-81" width="972" fill="#ffffff" y="-80.999999" height="971.999992" fill-opacity="1"/><rect x="-81" width="972" fill="#ffffff" y="-80.999999" height="971.999992" fill-opacity="1"/><path fill="#00a5e9" d="M 606.765625 338.472656 C 606.765625 335.167969 606.6875 331.867188 606.523438 328.570312 C 606.363281 325.273438 606.121094 321.980469 605.796875 318.695312 C 605.472656 315.410156 605.066406 312.132812 604.582031 308.867188 C 604.097656 305.597656 603.535156 302.347656 602.890625 299.109375 C 602.246094 295.871094 601.523438 292.648438 600.71875 289.445312 C 599.917969 286.242188 599.039062 283.0625 598.078125 279.902344 C 597.121094 276.742188 596.085938 273.605469 594.972656 270.496094 C 593.859375 267.390625 592.671875 264.308594 591.410156 261.257812 C 590.144531 258.207031 588.808594 255.191406 587.394531 252.203125 C 585.984375 249.21875 584.5 246.269531 582.941406 243.359375 C 581.386719 240.445312 579.757812 237.574219 578.0625 234.742188 C 576.363281 231.910156 574.597656 229.121094 572.761719 226.375 C 570.929688 223.628906 569.027344 220.929688 567.0625 218.277344 C 565.09375 215.625 563.0625 213.023438 560.96875 210.472656 C 558.875 207.917969 556.71875 205.417969 554.5 202.972656 C 552.28125 200.527344 550.007812 198.136719 547.671875 195.800781 C 545.335938 193.464844 542.945312 191.1875 540.5 188.972656 C 538.050781 186.753906 535.550781 184.597656 533 182.503906 C 530.449219 180.40625 527.84375 178.378906 525.191406 176.410156 C 522.539062 174.441406 519.839844 172.542969 517.097656 170.707031 C 514.351562 168.875 511.5625 167.105469 508.730469 165.410156 C 505.898438 163.710938 503.023438 162.085938 500.113281 160.527344 C 497.199219 158.972656 494.25 157.488281 491.265625 156.074219 C 488.28125 154.664062 485.265625 153.324219 482.214844 152.0625 C 479.164062 150.796875 476.082031 149.609375 472.972656 148.5 C 469.863281 147.386719 466.730469 146.351562 463.570312 145.390625 C 460.410156 144.433594 457.230469 143.554688 454.027344 142.75 C 450.824219 141.949219 447.601562 141.226562 444.363281 140.582031 C 441.125 139.9375 437.871094 139.371094 434.605469 138.886719 C 431.339844 138.402344 428.0625 138 424.777344 137.675781 C 421.492188 137.351562 418.199219 137.109375 414.898438 136.945312 C 411.601562 136.785156 408.300781 136.703125 405 136.703125 C 401.699219 136.703125 398.398438 136.785156 395.101562 136.945312 C 391.800781 137.109375 388.507812 137.351562 385.222656 137.675781 C 381.9375 138 378.660156 138.402344 375.394531 138.886719 C 372.128906 139.371094 368.875 139.9375 365.636719 140.582031 C 362.398438 141.226562 359.175781 141.949219 355.972656 142.75 C 352.769531 143.554688 349.589844 144.433594 346.429688 145.390625 C 343.269531 146.351562 340.136719 147.386719 337.027344 148.5 C 333.917969 149.609375 330.835938 150.796875 327.785156 152.0625 C 324.734375 153.324219 321.71875 154.664062 318.734375 156.074219 C 315.75 157.488281 312.800781 158.972656 309.886719 160.527344 C 306.976562 162.085938 304.101562 163.710938 301.269531 165.410156 C 298.4375 167.105469 295.648438 168.875 292.902344 170.707031 C 290.160156 172.542969 287.460938 174.441406 284.808594 176.410156 C 282.15625 178.378906 279.550781 180.40625 277 182.503906 C 274.449219 184.597656 271.949219 186.753906 269.5 188.972656 C 267.054688 191.1875 264.664062 193.464844 262.328125 195.800781 C 259.992188 198.136719 257.71875 200.527344 255.5 202.972656 C 253.28125 205.417969 251.125 207.917969 249.03125 210.472656 C 246.9375 213.023438 244.90625 215.625 242.9375 218.277344 C 240.972656 220.929688 239.070312 223.628906 237.238281 226.375 C 235.402344 229.121094 233.636719 231.910156 231.9375 234.742188 C 230.242188 237.574219 228.613281 240.445312 227.058594 243.359375 C 225.5 246.269531 224.015625 249.21875 222.605469 252.203125 C 221.191406 255.191406 219.855469 258.207031 218.589844 261.257812 C 217.328125 264.308594 216.140625 267.390625 215.027344 270.496094 C 213.914062 273.605469 212.878906 276.742188 211.921875 279.902344 C 210.960938 283.0625 210.082031 286.242188 209.277344 289.445312 C 208.476562 292.648438 207.753906 295.871094 207.109375 299.109375 C 206.464844 302.347656 205.902344 305.597656 205.417969 308.867188 C 204.933594 312.132812 204.527344 315.410156 204.203125 318.695312 C 203.878906 321.980469 203.636719 325.273438 203.476562 328.570312 C 203.3125 331.867188 203.234375 335.167969 203.234375 338.472656 C 203.234375 397.691406 236.496094 456.695312 265.835938 508.71875 C 282.976562 536.316406 297.046875 565.402344 308.042969 595.96875 L 301.5 595.96875 C 300.78125 595.996094 300.074219 596.089844 299.378906 596.253906 C 298.679688 596.417969 298.007812 596.648438 297.355469 596.945312 C 296.703125 597.242188 296.085938 597.601562 295.503906 598.019531 C 294.921875 598.4375 294.386719 598.910156 293.898438 599.433594 C 293.410156 599.957031 292.976562 600.523438 292.601562 601.132812 C 292.222656 601.742188 291.910156 602.382812 291.660156 603.054688 C 291.40625 603.726562 291.222656 604.414062 291.109375 605.125 C 290.992188 605.832031 290.949219 606.542969 290.972656 607.257812 C 291 607.972656 291.09375 608.679688 291.257812 609.378906 C 291.421875 610.074219 291.652344 610.75 291.949219 611.402344 C 292.246094 612.054688 292.605469 612.671875 293.023438 613.253906 C 293.441406 613.835938 293.914062 614.371094 294.4375 614.859375 C 294.960938 615.347656 295.527344 615.78125 296.136719 616.15625 C 296.746094 616.535156 297.386719 616.847656 298.058594 617.097656 C 298.730469 617.351562 299.417969 617.53125 300.128906 617.648438 C 300.835938 617.761719 301.546875 617.808594 302.261719 617.78125 L 303.027344 617.78125 L 311.859375 617.128906 C 311.859375 618.546875 311.859375 620.074219 311.859375 621.492188 L 311.859375 628.035156 L 303.460938 628.6875 C 302.746094 628.714844 302.039062 628.808594 301.34375 628.976562 C 300.644531 629.140625 299.972656 629.371094 299.320312 629.667969 C 298.667969 629.964844 298.050781 630.324219 297.472656 630.742188 C 296.890625 631.160156 296.355469 631.632812 295.867188 632.15625 C 295.378906 632.679688 294.945312 633.246094 294.570312 633.855469 C 294.195312 634.464844 293.878906 635.105469 293.628906 635.777344 C 293.378906 636.449219 293.195312 637.136719 293.082031 637.84375 C 292.964844 638.550781 292.921875 639.261719 292.945312 639.976562 C 292.972656 640.691406 293.066406 641.398438 293.230469 642.097656 C 293.394531 642.792969 293.625 643.46875 293.921875 644.121094 C 294.21875 644.769531 294.578125 645.386719 294.996094 645.96875 C 295.414062 646.550781 295.882812 647.085938 296.40625 647.574219 C 296.929688 648.0625 297.496094 648.496094 298.105469 648.871094 C 298.714844 649.25 299.355469 649.5625 300.023438 649.816406 C 300.695312 650.066406 301.382812 650.25 302.089844 650.363281 C 302.796875 650.480469 303.507812 650.527344 304.226562 650.5 L 311.859375 650.5 L 311.859375 661.410156 L 305.859375 661.410156 C 305.144531 661.433594 304.4375 661.527344 303.742188 661.695312 C 303.046875 661.859375 302.371094 662.089844 301.71875 662.386719 C 301.066406 662.683594 300.453125 663.042969 299.871094 663.460938 C 299.289062 663.878906 298.753906 664.351562 298.265625 664.875 C 297.777344 665.398438 297.347656 665.964844 296.96875 666.574219 C 296.59375 667.183594 296.28125 667.824219 296.027344 668.496094 C 295.777344 669.167969 295.597656 669.855469 295.480469 670.5625 C 295.367188 671.269531 295.320312 671.980469 295.347656 672.695312 C 295.371094 673.410156 295.464844 674.117188 295.628906 674.816406 C 295.792969 675.511719 296.023438 676.1875 296.320312 676.839844 C 296.617188 677.492188 296.976562 678.105469 297.394531 678.6875 C 297.8125 679.269531 298.28125 679.804688 298.808594 680.292969 C 299.332031 680.78125 299.898438 681.214844 300.503906 681.589844 C 301.113281 681.96875 301.753906 682.28125 302.425781 682.535156 C 303.09375 682.785156 303.785156 682.96875 304.492188 683.085938 C 305.199219 683.199219 305.910156 683.246094 306.625 683.222656 L 311.859375 683.222656 L 311.859375 694.128906 L 308.152344 694.128906 C 307.4375 694.152344 306.730469 694.25 306.035156 694.414062 C 305.339844 694.582031 304.664062 694.8125 304.015625 695.109375 C 303.363281 695.40625 302.75 695.765625 302.167969 696.183594 C 301.589844 696.605469 301.054688 697.074219 300.566406 697.597656 C 300.078125 698.125 299.648438 698.691406 299.273438 699.296875 C 298.894531 699.90625 298.582031 700.546875 298.332031 701.21875 C 298.082031 701.886719 297.898438 702.578125 297.785156 703.28125 C 297.671875 703.988281 297.625 704.699219 297.648438 705.414062 C 297.675781 706.128906 297.769531 706.835938 297.933594 707.53125 C 298.097656 708.230469 298.328125 708.902344 298.625 709.554688 C 298.921875 710.207031 299.277344 710.820312 299.695312 711.402344 C 300.113281 711.984375 300.582031 712.519531 301.105469 713.007812 C 301.628906 713.496094 302.195312 713.929688 302.800781 714.304688 C 303.410156 714.683594 304.050781 714.996094 304.71875 715.25 C 305.390625 715.5 306.078125 715.683594 306.78125 715.800781 C 307.488281 715.917969 308.199219 715.964844 308.914062 715.941406 L 311.75 715.941406 L 311.75 722.703125 C 316.113281 750.296875 337.707031 767.636719 363.882812 776.035156 C 364.207031 777.140625 364.574219 778.234375 364.984375 779.316406 C 365.390625 780.394531 365.84375 781.457031 366.339844 782.5 C 366.832031 783.542969 367.367188 784.566406 367.941406 785.566406 C 368.519531 786.566406 369.132812 787.542969 369.785156 788.496094 C 370.4375 789.449219 371.128906 790.371094 371.855469 791.269531 C 372.582031 792.167969 373.339844 793.035156 374.136719 793.871094 C 374.929688 794.707031 375.757812 795.511719 376.617188 796.285156 C 377.476562 797.054688 378.363281 797.792969 379.28125 798.492188 C 380.199219 799.195312 381.144531 799.855469 382.113281 800.484375 C 383.082031 801.109375 384.078125 801.695312 385.09375 802.242188 C 386.109375 802.789062 387.148438 803.296875 388.203125 803.761719 C 389.261719 804.226562 390.335938 804.648438 391.425781 805.027344 C 392.515625 805.40625 393.617188 805.742188 394.734375 806.035156 C 395.851562 806.324219 396.980469 806.574219 398.117188 806.773438 C 399.253906 806.976562 400.394531 807.132812 401.542969 807.246094 C 402.695312 807.359375 403.84375 807.425781 405 807.445312 C 406.136719 807.40625 407.269531 807.320312 408.398438 807.195312 C 409.53125 807.066406 410.652344 806.894531 411.769531 806.679688 C 412.886719 806.464844 413.992188 806.203125 415.089844 805.902344 C 416.183594 805.601562 417.269531 805.253906 418.335938 804.867188 C 419.40625 804.480469 420.460938 804.054688 421.496094 803.585938 C 422.53125 803.117188 423.546875 802.605469 424.542969 802.058594 C 425.539062 801.507812 426.511719 800.921875 427.460938 800.296875 C 428.414062 799.671875 429.335938 799.011719 430.234375 798.316406 C 431.132812 797.617188 432.003906 796.886719 432.84375 796.121094 C 433.6875 795.359375 434.496094 794.5625 435.277344 793.734375 C 436.054688 792.902344 436.800781 792.046875 437.511719 791.160156 C 438.226562 790.273438 438.902344 789.359375 439.542969 788.421875 C 440.183594 787.480469 440.785156 786.519531 441.351562 785.53125 C 441.917969 784.542969 442.441406 783.539062 442.929688 782.507812 C 443.414062 781.480469 443.859375 780.4375 444.265625 779.375 C 444.671875 778.3125 445.03125 777.234375 445.351562 776.144531 C 447.980469 775.464844 450.5625 774.644531 453.097656 773.679688 C 455.632812 772.714844 458.109375 771.617188 460.523438 770.378906 C 462.941406 769.144531 465.28125 767.777344 467.542969 766.285156 C 469.808594 764.789062 471.984375 763.175781 474.070312 761.441406 C 476.15625 759.707031 478.140625 757.863281 480.023438 755.910156 C 481.910156 753.957031 483.679688 751.90625 485.335938 749.757812 C 486.992188 747.613281 488.527344 745.378906 489.9375 743.0625 C 491.351562 740.746094 492.628906 738.355469 493.777344 735.898438 L 508.28125 734.808594 C 508.996094 734.753906 509.695312 734.628906 510.382812 734.4375 C 511.070312 734.242188 511.734375 733.984375 512.371094 733.664062 C 513.007812 733.339844 513.605469 732.957031 514.167969 732.519531 C 514.730469 732.078125 515.242188 731.585938 515.710938 731.042969 C 516.175781 730.503906 516.582031 729.921875 516.933594 729.300781 C 517.285156 728.679688 517.574219 728.027344 517.796875 727.351562 C 518.019531 726.671875 518.175781 725.976562 518.265625 725.269531 C 518.351562 724.5625 518.367188 723.851562 518.316406 723.136719 C 518.269531 722.421875 518.152344 721.714844 517.960938 721.023438 C 517.773438 720.328125 517.519531 719.660156 517.203125 719.019531 C 516.882812 718.375 516.503906 717.769531 516.0625 717.199219 C 515.621094 716.632812 515.132812 716.113281 514.589844 715.640625 C 514.046875 715.171875 513.464844 714.757812 512.839844 714.402344 C 512.21875 714.042969 511.5625 713.753906 510.882812 713.527344 C 510.199219 713.296875 509.503906 713.140625 508.792969 713.050781 C 508.078125 712.960938 507.363281 712.941406 506.648438 712.996094 L 497.375 713.648438 L 497.375 702.742188 L 505.882812 702.089844 C 506.597656 702.035156 507.296875 701.910156 507.984375 701.71875 C 508.671875 701.523438 509.332031 701.265625 509.96875 700.945312 C 510.605469 700.621094 511.207031 700.238281 511.769531 699.796875 C 512.332031 699.359375 512.84375 698.867188 513.308594 698.324219 C 513.777344 697.785156 514.183594 697.203125 514.535156 696.582031 C 514.886719 695.960938 515.175781 695.308594 515.398438 694.632812 C 515.621094 693.953125 515.777344 693.257812 515.863281 692.550781 C 515.953125 691.84375 515.96875 691.132812 515.917969 690.417969 C 515.867188 689.703125 515.75 688.996094 515.5625 688.304688 C 515.375 687.609375 515.121094 686.941406 514.800781 686.300781 C 514.480469 685.65625 514.101562 685.050781 513.664062 684.480469 C 513.222656 683.914062 512.734375 683.394531 512.191406 682.921875 C 511.648438 682.453125 511.066406 682.039062 510.441406 681.679688 C 509.816406 681.324219 509.164062 681.035156 508.484375 680.808594 C 507.800781 680.578125 507.105469 680.421875 506.390625 680.332031 C 505.679688 680.242188 504.964844 680.222656 504.246094 680.277344 L 497.375 680.277344 L 497.375 669.371094 L 503.484375 669.371094 C 504.214844 669.347656 504.9375 669.257812 505.648438 669.089844 C 506.359375 668.925781 507.046875 668.691406 507.714844 668.386719 C 508.378906 668.082031 509.003906 667.714844 509.597656 667.285156 C 510.1875 666.855469 510.730469 666.371094 511.222656 665.832031 C 511.714844 665.292969 512.152344 664.707031 512.527344 664.082031 C 512.902344 663.457031 513.214844 662.796875 513.457031 662.109375 C 513.703125 661.417969 513.875 660.714844 513.976562 659.988281 C 514.078125 659.265625 514.109375 658.539062 514.0625 657.808594 C 514.015625 657.09375 513.898438 656.386719 513.710938 655.695312 C 513.523438 655 513.269531 654.332031 512.949219 653.6875 C 512.628906 653.046875 512.25 652.441406 511.808594 651.871094 C 511.371094 651.304688 510.878906 650.785156 510.335938 650.3125 C 509.792969 649.839844 509.210938 649.425781 508.585938 649.070312 C 507.964844 648.714844 507.3125 648.425781 506.628906 648.195312 C 505.949219 647.96875 505.25 647.8125 504.539062 647.722656 C 503.824219 647.632812 503.109375 647.613281 502.394531 647.667969 L 497.921875 647.667969 L 497.921875 636.761719 L 501.519531 636.761719 C 502.234375 636.703125 502.933594 636.582031 503.621094 636.386719 C 504.308594 636.195312 504.96875 635.9375 505.609375 635.613281 C 506.246094 635.292969 506.84375 634.910156 507.40625 634.46875 C 507.96875 634.027344 508.480469 633.539062 508.949219 632.996094 C 509.414062 632.457031 509.820312 631.875 510.171875 631.25 C 510.523438 630.628906 510.8125 629.980469 511.035156 629.300781 C 511.257812 628.625 511.414062 627.929688 511.503906 627.222656 C 511.589844 626.511719 511.605469 625.800781 511.554688 625.089844 C 511.507812 624.375 511.386719 623.667969 511.199219 622.976562 C 511.011719 622.28125 510.757812 621.613281 510.441406 620.96875 C 510.121094 620.328125 509.738281 619.722656 509.300781 619.152344 C 508.859375 618.585938 508.371094 618.066406 507.828125 617.59375 C 507.285156 617.121094 506.703125 616.707031 506.078125 616.351562 C 505.453125 615.996094 504.800781 615.703125 504.121094 615.476562 C 503.4375 615.25 502.742188 615.09375 502.027344 615.003906 C 501.316406 614.914062 500.601562 614.894531 499.886719 614.945312 L 498.46875 614.945312 C 501.414062 584.082031 523.117188 543.945312 546.347656 501.628906 C 575.902344 447.535156 606.765625 391.039062 606.765625 338.472656 Z M 405 785.632812 C 403.015625 785.640625 401.089844 785.320312 399.21875 784.664062 C 397.34375 784.007812 395.636719 783.058594 394.09375 781.8125 C 397.582031 781.8125 401.074219 781.8125 405 781.8125 C 408.597656 781.8125 412.089844 781.8125 415.90625 781.8125 C 414.359375 783.054688 412.652344 784.003906 410.78125 784.65625 C 408.910156 785.3125 406.984375 785.636719 405 785.632812 Z M 464.984375 716.15625 L 408.925781 720.195312 C 408.210938 720.21875 407.503906 720.3125 406.804688 720.476562 C 406.109375 720.640625 405.433594 720.871094 404.78125 721.167969 C 404.128906 721.46875 403.511719 721.824219 402.929688 722.242188 C 402.351562 722.664062 401.816406 723.132812 401.324219 723.65625 C 400.835938 724.183594 400.40625 724.75 400.027344 725.359375 C 399.652344 725.96875 399.335938 726.609375 399.085938 727.277344 C 398.835938 727.949219 398.652344 728.640625 398.535156 729.347656 C 398.421875 730.054688 398.375 730.765625 398.402344 731.480469 C 398.425781 732.199219 398.519531 732.90625 398.6875 733.601562 C 398.851562 734.300781 399.082031 734.972656 399.378906 735.625 C 399.675781 736.277344 400.03125 736.894531 400.453125 737.476562 C 400.871094 738.058594 401.34375 738.59375 401.867188 739.082031 C 402.390625 739.570312 402.957031 740.003906 403.566406 740.378906 C 404.175781 740.757812 404.816406 741.070312 405.488281 741.320312 C 406.15625 741.574219 406.847656 741.757812 407.554688 741.871094 C 408.261719 741.984375 408.972656 742.03125 409.691406 742.007812 L 410.453125 742.007812 L 448.625 739.0625 C 441.914062 742.613281 434.863281 745.265625 427.472656 747.019531 C 420.082031 748.773438 412.59375 749.574219 405 749.421875 C 378.933594 749.421875 349.488281 739.714844 345.234375 718.667969 L 345.234375 713.757812 L 465.203125 705.035156 Z M 464.984375 683.4375 L 345.015625 692.164062 L 345.015625 681.257812 L 464.984375 672.53125 Z M 464.984375 650.71875 L 345.015625 659.445312 L 345.015625 648.539062 L 464.984375 639.8125 Z M 464.984375 618 L 345.015625 626.726562 L 345.015625 622.035156 C 345.015625 619.855469 345.015625 617.566406 345.015625 615.382812 L 401.074219 611.128906 C 401.785156 611.074219 402.484375 610.949219 403.171875 610.757812 C 403.859375 610.566406 404.523438 610.308594 405.160156 609.984375 C 405.796875 609.664062 406.398438 609.28125 406.957031 608.839844 C 407.519531 608.398438 408.035156 607.910156 408.5 607.367188 C 408.964844 606.824219 409.375 606.242188 409.726562 605.621094 C 410.078125 605 410.363281 604.351562 410.585938 603.671875 C 410.8125 602.992188 410.96875 602.300781 411.054688 601.589844 C 411.140625 600.882812 411.160156 600.171875 411.109375 599.460938 C 411.058594 598.742188 410.941406 598.039062 410.753906 597.34375 C 410.566406 596.652344 410.3125 595.984375 409.992188 595.339844 C 409.671875 594.695312 409.292969 594.089844 408.851562 593.523438 C 408.414062 592.953125 407.921875 592.433594 407.378906 591.964844 C 406.839844 591.492188 406.253906 591.078125 405.632812 590.722656 C 405.007812 590.367188 404.355469 590.074219 403.671875 589.847656 C 402.992188 589.621094 402.292969 589.460938 401.582031 589.375 C 400.867188 589.285156 400.152344 589.265625 399.4375 589.316406 L 341.199219 593.570312 C 333.34375 561.722656 314.367188 528.132812 294.300781 492.46875 C 265.617188 441.753906 235.953125 389.078125 235.953125 338.472656 C 235.953125 335.703125 236.019531 332.941406 236.15625 330.175781 C 236.289062 327.414062 236.496094 324.65625 236.765625 321.902344 C 237.035156 319.148438 237.375 316.402344 237.78125 313.667969 C 238.1875 310.929688 238.660156 308.203125 239.199219 305.492188 C 239.738281 302.777344 240.34375 300.078125 241.019531 297.394531 C 241.691406 294.710938 242.425781 292.046875 243.230469 289.398438 C 244.035156 286.75 244.902344 284.125 245.832031 281.519531 C 246.765625 278.914062 247.761719 276.335938 248.820312 273.777344 C 249.878906 271.222656 251 268.695312 252.183594 266.195312 C 253.363281 263.691406 254.609375 261.222656 255.914062 258.78125 C 257.214844 256.34375 258.578125 253.9375 260.003906 251.5625 C 261.425781 249.191406 262.902344 246.851562 264.441406 244.554688 C 265.976562 242.253906 267.570312 239.992188 269.21875 237.769531 C 270.867188 235.546875 272.570312 233.367188 274.324219 231.226562 C 276.078125 229.089844 277.886719 226.996094 279.742188 224.945312 C 281.601562 222.894531 283.507812 220.890625 285.464844 218.9375 C 287.421875 216.980469 289.425781 215.074219 291.472656 213.214844 C 293.523438 211.355469 295.617188 209.550781 297.757812 207.796875 C 299.894531 206.039062 302.074219 204.339844 304.296875 202.691406 C 306.519531 201.042969 308.78125 199.449219 311.082031 197.914062 C 313.382812 196.375 315.71875 194.894531 318.089844 193.472656 C 320.464844 192.050781 322.871094 190.6875 325.3125 189.382812 C 327.75 188.078125 330.222656 186.835938 332.722656 185.652344 C 335.222656 184.46875 337.75 183.347656 340.308594 182.289062 C 342.863281 181.230469 345.445312 180.238281 348.050781 179.304688 C 350.652344 178.371094 353.28125 177.503906 355.929688 176.703125 C 358.574219 175.898438 361.242188 175.160156 363.925781 174.488281 C 366.609375 173.816406 369.308594 173.210938 372.019531 172.671875 C 374.734375 172.132812 377.457031 171.660156 380.195312 171.253906 C 382.933594 170.847656 385.675781 170.507812 388.429688 170.238281 C 391.183594 169.964844 393.941406 169.761719 396.707031 169.625 C 399.46875 169.492188 402.234375 169.421875 405 169.421875 C 407.765625 169.421875 410.53125 169.492188 413.292969 169.625 C 416.058594 169.761719 418.816406 169.964844 421.570312 170.238281 C 424.324219 170.507812 427.066406 170.847656 429.804688 171.253906 C 432.542969 171.660156 435.265625 172.132812 437.980469 172.671875 C 440.691406 173.210938 443.390625 173.816406 446.074219 174.488281 C 448.757812 175.160156 451.425781 175.898438 454.070312 176.703125 C 456.71875 177.503906 459.347656 178.371094 461.949219 179.304688 C 464.554688 180.238281 467.136719 181.230469 469.691406 182.289062 C 472.246094 183.347656 474.777344 184.46875 477.277344 185.652344 C 479.777344 186.835938 482.25 188.078125 484.6875 189.382812 C 487.128906 190.6875 489.535156 192.050781 491.90625 193.472656 C 494.28125 194.894531 496.617188 196.375 498.917969 197.914062 C 501.21875 199.449219 503.480469 201.042969 505.703125 202.691406 C 507.925781 204.339844 510.105469 206.039062 512.242188 207.796875 C 514.382812 209.550781 516.476562 211.355469 518.527344 213.214844 C 520.574219 215.074219 522.578125 216.980469 524.535156 218.9375 C 526.492188 220.890625 528.398438 222.894531 530.257812 224.945312 C 532.113281 226.996094 533.921875 229.089844 535.675781 231.226562 C 537.429688 233.367188 539.132812 235.546875 540.78125 237.769531 C 542.429688 239.992188 544.023438 242.253906 545.558594 244.554688 C 547.09375 246.851562 548.574219 249.191406 549.996094 251.5625 C 551.421875 253.9375 552.78125 256.34375 554.085938 258.78125 C 555.390625 261.222656 556.636719 263.691406 557.816406 266.195312 C 559 268.695312 560.121094 271.222656 561.179688 273.777344 C 562.238281 276.335938 563.234375 278.914062 564.167969 281.519531 C 565.097656 284.125 565.964844 286.75 566.769531 289.398438 C 567.574219 292.046875 568.308594 294.710938 568.980469 297.394531 C 569.65625 300.078125 570.261719 302.777344 570.800781 305.492188 C 571.339844 308.203125 571.8125 310.929688 572.21875 313.667969 C 572.625 316.402344 572.964844 319.148438 573.234375 321.902344 C 573.503906 324.65625 573.710938 327.414062 573.84375 330.175781 C 573.980469 332.941406 574.046875 335.703125 574.046875 338.472656 C 574.046875 382.097656 545.253906 435.210938 517.445312 486.144531 C 491.488281 533.585938 467.058594 578.410156 465.3125 617.566406 Z M 464.984375 618 " fill-opacity="1" fill-rule="nonzero"/><path fill="#00a5e9" d="M 421.359375 107.582031 L 421.359375 18.589844 C 421.359375 18.050781 421.332031 17.519531 421.28125 16.984375 C 421.226562 16.453125 421.148438 15.921875 421.046875 15.394531 C 420.941406 14.871094 420.8125 14.351562 420.65625 13.839844 C 420.5 13.328125 420.320312 12.824219 420.113281 12.328125 C 419.910156 11.832031 419.679688 11.347656 419.429688 10.875 C 419.175781 10.402344 418.898438 9.945312 418.601562 9.5 C 418.304688 9.054688 417.984375 8.625 417.644531 8.210938 C 417.304688 7.796875 416.945312 7.398438 416.566406 7.019531 C 416.1875 6.640625 415.792969 6.28125 415.378906 5.941406 C 414.964844 5.601562 414.535156 5.285156 414.089844 4.984375 C 413.644531 4.6875 413.183594 4.414062 412.710938 4.160156 C 412.238281 3.90625 411.753906 3.679688 411.261719 3.472656 C 410.765625 3.269531 410.261719 3.089844 409.75 2.933594 C 409.234375 2.777344 408.71875 2.648438 408.191406 2.542969 C 407.667969 2.4375 407.136719 2.359375 406.601562 2.308594 C 406.070312 2.253906 405.535156 2.226562 405 2.226562 C 404.464844 2.226562 403.929688 2.253906 403.398438 2.308594 C 402.863281 2.359375 402.332031 2.4375 401.808594 2.542969 C 401.28125 2.648438 400.765625 2.777344 400.25 2.933594 C 399.738281 3.089844 399.234375 3.269531 398.738281 3.472656 C 398.246094 3.679688 397.761719 3.90625 397.289062 4.160156 C 396.816406 4.414062 396.355469 4.6875 395.910156 4.984375 C 395.464844 5.285156 395.035156 5.601562 394.621094 5.941406 C 394.207031 6.28125 393.8125 6.640625 393.433594 7.019531 C 393.054688 7.398438 392.695312 7.796875 392.355469 8.210938 C 392.015625 8.625 391.695312 9.054688 391.398438 9.5 C 391.101562 9.945312 390.824219 10.402344 390.570312 10.875 C 390.320312 11.347656 390.089844 11.832031 389.886719 12.328125 C 389.679688 12.824219 389.5 13.328125 389.34375 13.839844 C 389.1875 14.351562 389.058594 14.871094 388.953125 15.394531 C 388.851562 15.921875 388.773438 16.453125 388.71875 16.984375 C 388.667969 17.519531 388.640625 18.050781 388.640625 18.589844 L 388.640625 107.691406 C 388.640625 108.230469 388.667969 108.761719 388.71875 109.296875 C 388.773438 109.828125 388.851562 110.359375 388.953125 110.882812 C 389.058594 111.410156 389.1875 111.929688 389.34375 112.441406 C 389.5 112.953125 389.679688 113.457031 389.886719 113.953125 C 390.089844 114.449219 390.320312 114.933594 390.570312 115.40625 C 390.824219 115.878906 391.101562 116.335938 391.398438 116.78125 C 391.695312 117.226562 392.015625 117.65625 392.355469 118.070312 C 392.695312 118.484375 393.054688 118.882812 393.433594 119.261719 C 393.8125 119.640625 394.207031 120 394.621094 120.339844 C 395.035156 120.679688 395.464844 120.996094 395.910156 121.296875 C 396.355469 121.59375 396.816406 121.867188 397.289062 122.121094 C 397.761719 122.375 398.246094 122.601562 398.738281 122.808594 C 399.234375 123.011719 399.738281 123.191406 400.25 123.347656 C 400.765625 123.503906 401.28125 123.632812 401.808594 123.738281 C 402.332031 123.84375 402.863281 123.921875 403.398438 123.972656 C 403.929688 124.027344 404.464844 124.050781 405 124.050781 C 405.535156 124.050781 406.070312 124.027344 406.601562 123.972656 C 407.136719 123.921875 407.667969 123.84375 408.191406 123.738281 C 408.71875 123.632812 409.234375 123.503906 409.75 123.347656 C 410.261719 123.191406 410.765625 123.011719 411.261719 122.808594 C 411.753906 122.601562 412.238281 122.375 412.710938 122.121094 C 413.183594 121.867188 413.644531 121.59375 414.089844 121.296875 C 414.535156 120.996094 414.964844 120.679688 415.378906 120.339844 C 415.792969 120 416.1875 119.640625 416.566406 119.261719 C 416.945312 118.882812 417.304688 118.484375 417.644531 118.070312 C 417.984375 117.65625 418.304688 117.226562 418.601562 116.78125 C 418.898438 116.335938 419.175781 115.878906 419.429688 115.40625 C 419.679688 114.933594 419.910156 114.449219 420.113281 113.953125 C 420.320312 113.457031 420.5 112.953125 420.65625 112.441406 C 420.8125 111.929688 420.941406 111.410156 421.046875 110.882812 C 421.148438 110.359375 421.226562 109.828125 421.28125 109.296875 C 421.332031 108.761719 421.359375 108.230469 421.359375 107.691406 Z M 421.359375 107.582031 " fill-opacity="1" fill-rule="nonzero"/><path fill="#00a5e9" d="M 288.300781 155.570312 C 288.65625 155.570312 289.007812 155.554688 289.359375 155.53125 C 289.710938 155.503906 290.0625 155.46875 290.414062 155.421875 C 290.765625 155.371094 291.113281 155.3125 291.457031 155.242188 C 291.804688 155.171875 292.148438 155.089844 292.488281 154.996094 C 292.828125 154.902344 293.167969 154.800781 293.5 154.6875 C 293.835938 154.570312 294.164062 154.445312 294.492188 154.308594 C 294.816406 154.171875 295.136719 154.027344 295.453125 153.871094 C 295.769531 153.714844 296.082031 153.546875 296.386719 153.371094 C 296.695312 153.191406 296.992188 153.003906 297.285156 152.808594 C 297.582031 152.613281 297.867188 152.40625 298.148438 152.191406 C 298.429688 151.976562 298.699219 151.753906 298.964844 151.519531 C 299.230469 151.289062 299.492188 151.046875 299.742188 150.796875 C 299.992188 150.546875 300.234375 150.289062 300.464844 150.023438 C 300.699219 149.761719 300.925781 149.488281 301.140625 149.207031 C 301.355469 148.929688 301.5625 148.640625 301.757812 148.347656 C 301.957031 148.054688 302.144531 147.757812 302.324219 147.453125 C 302.5 147.148438 302.667969 146.835938 302.824219 146.519531 C 302.984375 146.203125 303.132812 145.882812 303.269531 145.558594 C 303.40625 145.230469 303.53125 144.902344 303.648438 144.570312 C 303.761719 144.234375 303.867188 143.898438 303.960938 143.558594 C 304.054688 143.214844 304.136719 142.871094 304.210938 142.527344 C 304.28125 142.179688 304.339844 141.832031 304.390625 141.484375 C 304.4375 141.132812 304.476562 140.78125 304.503906 140.429688 C 304.53125 140.078125 304.542969 139.726562 304.546875 139.371094 C 304.550781 139.019531 304.542969 138.664062 304.523438 138.3125 C 304.503906 137.960938 304.472656 137.609375 304.429688 137.257812 C 304.390625 136.90625 304.335938 136.558594 304.269531 136.210938 C 304.207031 135.863281 304.128906 135.519531 304.042969 135.175781 C 303.957031 134.835938 303.859375 134.496094 303.75 134.160156 C 303.640625 133.824219 303.519531 133.492188 303.390625 133.164062 C 303.257812 132.835938 303.117188 132.511719 302.964844 132.191406 C 302.8125 131.871094 302.652344 131.558594 302.480469 131.25 L 257.980469 53.925781 C 257.714844 53.460938 257.425781 53.011719 257.113281 52.574219 C 256.800781 52.136719 256.46875 51.71875 256.113281 51.316406 C 255.761719 50.914062 255.386719 50.527344 254.996094 50.160156 C 254.605469 49.792969 254.199219 49.449219 253.773438 49.121094 C 253.347656 48.796875 252.90625 48.488281 252.453125 48.207031 C 251.996094 47.921875 251.527344 47.664062 251.046875 47.425781 C 250.566406 47.1875 250.078125 46.976562 249.574219 46.785156 C 249.074219 46.597656 248.5625 46.433594 248.046875 46.292969 C 247.527344 46.15625 247.003906 46.042969 246.476562 45.957031 C 245.945312 45.867188 245.414062 45.804688 244.878906 45.769531 C 244.34375 45.734375 243.808594 45.726562 243.273438 45.746094 C 242.738281 45.761719 242.203125 45.804688 241.671875 45.875 C 241.140625 45.945312 240.613281 46.039062 240.09375 46.164062 C 239.570312 46.285156 239.054688 46.429688 238.546875 46.601562 C 238.039062 46.773438 237.542969 46.972656 237.054688 47.191406 C 236.566406 47.414062 236.089844 47.65625 235.625 47.925781 C 235.160156 48.195312 234.710938 48.484375 234.273438 48.796875 C 233.839844 49.109375 233.417969 49.441406 233.015625 49.792969 C 232.613281 50.148438 232.226562 50.519531 231.859375 50.910156 C 231.496094 51.300781 231.148438 51.710938 230.820312 52.136719 C 230.496094 52.5625 230.191406 53 229.90625 53.457031 C 229.625 53.910156 229.363281 54.378906 229.125 54.859375 C 228.886719 55.339844 228.675781 55.832031 228.488281 56.332031 C 228.296875 56.835938 228.132812 57.34375 227.996094 57.863281 C 227.855469 58.378906 227.742188 58.902344 227.65625 59.433594 C 227.566406 59.960938 227.507812 60.492188 227.472656 61.027344 C 227.4375 61.5625 227.425781 62.097656 227.445312 62.632812 C 227.460938 63.171875 227.503906 63.703125 227.574219 64.234375 C 227.644531 64.765625 227.742188 65.292969 227.863281 65.816406 C 227.984375 66.339844 228.128906 66.851562 228.300781 67.359375 C 228.476562 67.867188 228.671875 68.367188 228.890625 68.855469 C 229.113281 69.34375 229.359375 69.820312 229.625 70.285156 L 274.125 147.390625 C 274.84375 148.636719 275.710938 149.765625 276.726562 150.78125 C 277.742188 151.796875 278.871094 152.664062 280.117188 153.382812 C 281.359375 154.101562 282.675781 154.644531 284.066406 155.015625 C 285.453125 155.386719 286.867188 155.574219 288.300781 155.570312 Z M 288.300781 155.570312 " fill-opacity="1" fill-rule="nonzero"/><path fill="#00a5e9" d="M 217.191406 233.226562 C 217.6875 232.304688 218.09375 231.347656 218.40625 230.351562 C 218.71875 229.355469 218.933594 228.339844 219.050781 227.304688 C 219.171875 226.265625 219.1875 225.226562 219.109375 224.1875 C 219.027344 223.144531 218.847656 222.121094 218.570312 221.113281 C 218.292969 220.109375 217.925781 219.136719 217.460938 218.199219 C 217 217.265625 216.453125 216.382812 215.820312 215.550781 C 215.1875 214.71875 214.484375 213.957031 213.707031 213.261719 C 212.925781 212.5625 212.089844 211.949219 211.195312 211.414062 L 134.085938 166.914062 C 133.621094 166.648438 133.144531 166.402344 132.65625 166.179688 C 132.167969 165.960938 131.671875 165.761719 131.164062 165.589844 C 130.65625 165.417969 130.140625 165.273438 129.617188 165.152344 C 129.097656 165.027344 128.570312 164.933594 128.039062 164.863281 C 127.507812 164.792969 126.972656 164.75 126.4375 164.734375 C 125.902344 164.714844 125.367188 164.722656 124.832031 164.757812 C 124.296875 164.792969 123.765625 164.855469 123.234375 164.945312 C 122.707031 165.03125 122.183594 165.144531 121.664062 165.28125 C 121.148438 165.421875 120.636719 165.585938 120.136719 165.773438 C 119.632812 165.964844 119.144531 166.175781 118.664062 166.414062 C 118.179688 166.652344 117.714844 166.910156 117.257812 167.195312 C 116.804688 167.476562 116.363281 167.785156 115.9375 168.109375 C 115.511719 168.4375 115.105469 168.78125 114.714844 169.148438 C 114.320312 169.515625 113.949219 169.902344 113.597656 170.304688 C 113.242188 170.707031 112.910156 171.125 112.597656 171.5625 C 112.285156 172 111.996094 172.449219 111.726562 172.914062 C 111.460938 173.378906 111.214844 173.855469 110.996094 174.34375 C 110.773438 174.832031 110.578125 175.328125 110.40625 175.835938 C 110.234375 176.34375 110.085938 176.859375 109.964844 177.378906 C 109.84375 177.902344 109.746094 178.429688 109.675781 178.960938 C 109.609375 179.492188 109.5625 180.027344 109.546875 180.5625 C 109.527344 181.097656 109.539062 181.632812 109.574219 182.167969 C 109.609375 182.703125 109.667969 183.234375 109.757812 183.765625 C 109.84375 184.292969 109.957031 184.816406 110.097656 185.335938 C 110.234375 185.851562 110.398438 186.363281 110.589844 186.863281 C 110.777344 187.363281 110.992188 187.855469 111.226562 188.335938 C 111.464844 188.816406 111.726562 189.285156 112.007812 189.742188 C 112.292969 190.195312 112.597656 190.636719 112.921875 191.0625 C 113.25 191.488281 113.597656 191.894531 113.964844 192.285156 C 114.328125 192.675781 114.714844 193.050781 115.117188 193.402344 C 115.519531 193.757812 115.941406 194.089844 116.375 194.402344 C 116.8125 194.714844 117.261719 195.003906 117.726562 195.269531 L 194.835938 239.769531 C 195.753906 240.265625 196.710938 240.667969 197.707031 240.980469 C 198.703125 241.292969 199.71875 241.511719 200.757812 241.628906 C 201.792969 241.746094 202.832031 241.765625 203.875 241.683594 C 204.914062 241.601562 205.9375 241.425781 206.945312 241.148438 C 207.953125 240.871094 208.921875 240.5 209.859375 240.039062 C 210.792969 239.574219 211.679688 239.027344 212.507812 238.394531 C 213.339844 237.765625 214.101562 237.058594 214.800781 236.28125 C 215.496094 235.503906 216.113281 234.667969 216.648438 233.769531 Z M 217.191406 233.226562 " fill-opacity="1" fill-rule="nonzero"/><path fill="#00a5e9" d="M 83.042969 358.210938 L 172.148438 358.210938 C 172.683594 358.210938 173.21875 358.183594 173.753906 358.132812 C 174.285156 358.082031 174.816406 358 175.339844 357.898438 C 175.867188 357.792969 176.386719 357.664062 176.898438 357.507812 C 177.410156 357.351562 177.914062 357.171875 178.410156 356.964844 C 178.90625 356.761719 179.390625 356.53125 179.859375 356.28125 C 180.332031 356.027344 180.792969 355.753906 181.238281 355.453125 C 181.683594 355.15625 182.113281 354.839844 182.527344 354.5 C 182.941406 354.160156 183.339844 353.800781 183.71875 353.421875 C 184.097656 353.042969 184.457031 352.644531 184.796875 352.230469 C 185.136719 351.816406 185.453125 351.386719 185.75 350.941406 C 186.050781 350.496094 186.324219 350.035156 186.578125 349.5625 C 186.828125 349.089844 187.058594 348.609375 187.261719 348.113281 C 187.46875 347.617188 187.648438 347.113281 187.804688 346.601562 C 187.960938 346.089844 188.089844 345.570312 188.195312 345.042969 C 188.300781 344.519531 188.378906 343.988281 188.429688 343.457031 C 188.484375 342.921875 188.507812 342.386719 188.507812 341.851562 C 188.507812 341.316406 188.484375 340.78125 188.429688 340.25 C 188.378906 339.714844 188.300781 339.1875 188.195312 338.660156 C 188.089844 338.136719 187.960938 337.617188 187.804688 337.101562 C 187.648438 336.589844 187.46875 336.085938 187.261719 335.589844 C 187.058594 335.097656 186.828125 334.613281 186.578125 334.140625 C 186.324219 333.667969 186.050781 333.207031 185.75 332.761719 C 185.453125 332.316406 185.136719 331.886719 184.796875 331.472656 C 184.457031 331.058594 184.097656 330.664062 183.71875 330.285156 C 183.339844 329.90625 182.941406 329.546875 182.527344 329.207031 C 182.113281 328.867188 181.683594 328.546875 181.238281 328.25 C 180.792969 327.953125 180.332031 327.675781 179.859375 327.425781 C 179.390625 327.171875 178.90625 326.941406 178.410156 326.738281 C 177.914062 326.53125 177.410156 326.351562 176.898438 326.195312 C 176.386719 326.042969 175.867188 325.910156 175.339844 325.808594 C 174.816406 325.703125 174.285156 325.625 173.753906 325.570312 C 173.21875 325.519531 172.683594 325.492188 172.148438 325.492188 L 83.042969 325.492188 C 82.507812 325.492188 81.972656 325.519531 81.441406 325.570312 C 80.90625 325.625 80.378906 325.703125 79.851562 325.808594 C 79.328125 325.910156 78.808594 326.042969 78.296875 326.195312 C 77.78125 326.351562 77.277344 326.53125 76.785156 326.738281 C 76.289062 326.941406 75.804688 327.171875 75.332031 327.425781 C 74.859375 327.675781 74.402344 327.953125 73.957031 328.25 C 73.511719 328.546875 73.082031 328.867188 72.667969 329.207031 C 72.253906 329.546875 71.855469 329.90625 71.476562 330.285156 C 71.097656 330.664062 70.738281 331.058594 70.398438 331.472656 C 70.058594 331.886719 69.738281 332.316406 69.441406 332.761719 C 69.144531 333.207031 68.871094 333.667969 68.617188 334.140625 C 68.363281 334.613281 68.136719 335.097656 67.929688 335.589844 C 67.726562 336.085938 67.546875 336.589844 67.390625 337.101562 C 67.234375 337.617188 67.105469 338.136719 67 338.660156 C 66.894531 339.1875 66.816406 339.714844 66.765625 340.25 C 66.710938 340.78125 66.683594 341.316406 66.683594 341.851562 C 66.683594 342.386719 66.710938 342.921875 66.765625 343.457031 C 66.816406 343.988281 66.894531 344.519531 67 345.042969 C 67.105469 345.570312 67.234375 346.089844 67.390625 346.601562 C 67.546875 347.113281 67.726562 347.617188 67.929688 348.113281 C 68.136719 348.609375 68.363281 349.089844 68.617188 349.5625 C 68.871094 350.035156 69.144531 350.496094 69.441406 350.941406 C 69.738281 351.386719 70.058594 351.816406 70.398438 352.230469 C 70.738281 352.644531 71.097656 353.042969 71.476562 353.421875 C 71.855469 353.800781 72.253906 354.160156 72.667969 354.5 C 73.082031 354.839844 73.511719 355.15625 73.957031 355.453125 C 74.402344 355.753906 74.859375 356.027344 75.332031 356.28125 C 75.804688 356.53125 76.289062 356.761719 76.785156 356.964844 C 77.277344 357.171875 77.78125 357.351562 78.296875 357.507812 C 78.808594 357.664062 79.328125 357.792969 79.851562 357.898438 C 80.378906 358 80.90625 358.082031 81.441406 358.132812 C 81.972656 358.183594 82.507812 358.210938 83.042969 358.210938 Z M 83.042969 358.210938 " fill-opacity="1" fill-rule="nonzero"/><path fill="#00a5e9" d="M 112.382812 511.335938 C 112.917969 512.234375 113.535156 513.070312 114.230469 513.847656 C 114.925781 514.625 115.691406 515.332031 116.519531 515.960938 C 117.351562 516.59375 118.234375 517.140625 119.171875 517.605469 C 120.105469 518.066406 121.078125 518.4375 122.085938 518.714844 C 123.089844 518.992188 124.117188 519.167969 125.15625 519.25 C 126.195312 519.332031 127.234375 519.3125 128.273438 519.195312 C 129.3125 519.078125 130.328125 518.859375 131.324219 518.546875 C 132.320312 518.234375 133.277344 517.832031 134.195312 517.335938 L 211.304688 472.835938 C 211.769531 472.570312 212.21875 472.28125 212.652344 471.96875 C 213.089844 471.65625 213.507812 471.324219 213.910156 470.96875 C 214.316406 470.617188 214.699219 470.242188 215.066406 469.851562 C 215.433594 469.460938 215.78125 469.054688 216.105469 468.628906 C 216.433594 468.203125 216.738281 467.761719 217.019531 467.308594 C 217.304688 466.851562 217.5625 466.382812 217.800781 465.902344 C 218.039062 465.421875 218.253906 464.933594 218.441406 464.429688 C 218.628906 463.929688 218.792969 463.417969 218.933594 462.902344 C 219.070312 462.382812 219.183594 461.859375 219.273438 461.332031 C 219.359375 460.800781 219.421875 460.269531 219.457031 459.734375 C 219.492188 459.199219 219.5 458.664062 219.484375 458.128906 C 219.464844 457.59375 219.421875 457.058594 219.351562 456.527344 C 219.28125 455.996094 219.1875 455.46875 219.066406 454.949219 C 218.945312 454.425781 218.796875 453.910156 218.625 453.402344 C 218.453125 452.894531 218.257812 452.398438 218.035156 451.910156 C 217.8125 451.421875 217.570312 450.945312 217.300781 450.480469 C 217.035156 450.015625 216.742188 449.566406 216.433594 449.128906 C 216.121094 448.691406 215.785156 448.273438 215.433594 447.871094 C 215.082031 447.46875 214.707031 447.082031 214.316406 446.714844 C 213.925781 446.347656 213.515625 446.003906 213.09375 445.675781 C 212.667969 445.351562 212.226562 445.042969 211.773438 444.761719 C 211.316406 444.476562 210.847656 444.21875 210.367188 443.980469 C 209.886719 443.742188 209.394531 443.53125 208.894531 443.339844 C 208.390625 443.152344 207.882812 442.988281 207.363281 442.851562 C 206.847656 442.710938 206.324219 442.597656 205.796875 442.511719 C 205.265625 442.421875 204.734375 442.359375 204.199219 442.324219 C 203.664062 442.289062 203.128906 442.28125 202.59375 442.300781 C 202.058594 442.316406 201.523438 442.359375 200.992188 442.429688 C 200.460938 442.5 199.933594 442.59375 199.410156 442.71875 C 198.890625 442.839844 198.375 442.984375 197.867188 443.15625 C 197.359375 443.328125 196.859375 443.527344 196.371094 443.746094 C 195.882812 443.96875 195.40625 444.214844 194.945312 444.480469 L 118.382812 488.980469 C 117.917969 489.246094 117.464844 489.535156 117.03125 489.847656 C 116.59375 490.160156 116.175781 490.492188 115.769531 490.847656 C 115.367188 491.199219 114.984375 491.570312 114.617188 491.960938 C 114.25 492.355469 113.902344 492.761719 113.574219 493.1875 C 113.25 493.613281 112.945312 494.050781 112.660156 494.507812 C 112.378906 494.960938 112.117188 495.429688 111.878906 495.910156 C 111.640625 496.390625 111.429688 496.882812 111.238281 497.386719 C 111.050781 497.886719 110.886719 498.398438 110.746094 498.914062 C 110.609375 499.433594 110.496094 499.957031 110.40625 500.484375 C 110.320312 501.015625 110.257812 501.546875 110.222656 502.082031 C 110.1875 502.617188 110.179688 503.152344 110.199219 503.6875 C 110.214844 504.222656 110.257812 504.757812 110.328125 505.289062 C 110.398438 505.820312 110.496094 506.347656 110.617188 506.871094 C 110.738281 507.390625 110.886719 507.90625 111.058594 508.414062 C 111.230469 508.921875 111.425781 509.417969 111.648438 509.90625 C 111.871094 510.394531 112.113281 510.871094 112.382812 511.335938 Z M 112.382812 511.335938 " fill-opacity="1" fill-rule="nonzero"/><path fill="#00a5e9" d="M 600.113281 471.527344 L 677.660156 516.136719 C 678.125 516.402344 678.597656 516.644531 679.085938 516.867188 C 679.574219 517.085938 680.074219 517.28125 680.582031 517.453125 C 681.089844 517.625 681.601562 517.769531 682.125 517.890625 C 682.644531 518.011719 683.171875 518.105469 683.703125 518.175781 C 684.234375 518.242188 684.769531 518.285156 685.304688 518.304688 C 685.839844 518.320312 686.371094 518.308594 686.90625 518.273438 C 687.441406 518.238281 687.972656 518.175781 688.5 518.089844 C 689.027344 518 689.550781 517.886719 690.070312 517.75 C 690.585938 517.609375 691.09375 517.445312 691.597656 517.253906 C 692.097656 517.066406 692.585938 516.851562 693.066406 516.617188 C 693.546875 516.378906 694.015625 516.117188 694.46875 515.835938 C 694.921875 515.550781 695.363281 515.246094 695.789062 514.921875 C 696.210938 514.59375 696.621094 514.25 697.011719 513.882812 C 697.402344 513.515625 697.773438 513.132812 698.125 512.726562 C 698.476562 512.324219 698.808594 511.90625 699.121094 511.472656 C 699.433594 511.035156 699.722656 510.585938 699.992188 510.121094 C 700.257812 509.660156 700.503906 509.183594 700.722656 508.695312 C 700.945312 508.207031 701.140625 507.710938 701.3125 507.203125 C 701.484375 506.695312 701.632812 506.179688 701.753906 505.660156 C 701.875 505.136719 701.972656 504.613281 702.039062 504.082031 C 702.109375 503.550781 702.15625 503.015625 702.171875 502.480469 C 702.191406 501.945312 702.179688 501.414062 702.148438 500.878906 C 702.113281 500.34375 702.050781 499.8125 701.964844 499.285156 C 701.875 498.753906 701.765625 498.234375 701.625 497.714844 C 701.488281 497.199219 701.324219 496.6875 701.136719 496.1875 C 700.949219 495.6875 700.734375 495.195312 700.5 494.714844 C 700.261719 494.234375 700.003906 493.765625 699.722656 493.3125 C 699.4375 492.855469 699.132812 492.417969 698.808594 491.992188 C 698.484375 491.566406 698.136719 491.160156 697.773438 490.765625 C 697.40625 490.375 697.023438 490.003906 696.621094 489.648438 C 696.21875 489.296875 695.800781 488.964844 695.367188 488.652344 C 694.929688 488.339844 694.480469 488.046875 694.019531 487.777344 L 616.910156 443.28125 C 616.445312 443.011719 615.96875 442.769531 615.480469 442.546875 C 614.992188 442.328125 614.496094 442.128906 613.988281 441.957031 C 613.480469 441.785156 612.964844 441.640625 612.441406 441.515625 C 611.921875 441.394531 611.394531 441.300781 610.863281 441.230469 C 610.332031 441.160156 609.796875 441.117188 609.261719 441.097656 C 608.726562 441.082031 608.191406 441.089844 607.65625 441.125 C 607.121094 441.160156 606.589844 441.222656 606.058594 441.308594 C 605.53125 441.398438 605.007812 441.511719 604.488281 441.648438 C 603.972656 441.789062 603.460938 441.953125 602.960938 442.140625 C 602.457031 442.332031 601.96875 442.542969 601.484375 442.78125 C 601.003906 443.019531 600.539062 443.277344 600.082031 443.5625 C 599.628906 443.84375 599.1875 444.148438 598.761719 444.476562 C 598.335938 444.804688 597.929688 445.148438 597.539062 445.515625 C 597.144531 445.882812 596.773438 446.269531 596.421875 446.671875 C 596.066406 447.074219 595.734375 447.492188 595.421875 447.929688 C 595.109375 448.367188 594.820312 448.816406 594.550781 449.28125 C 594.285156 449.742188 594.039062 450.21875 593.820312 450.707031 C 593.597656 451.195312 593.402344 451.695312 593.230469 452.203125 C 593.058594 452.710938 592.910156 453.226562 592.789062 453.746094 C 592.667969 454.269531 592.570312 454.796875 592.5 455.328125 C 592.429688 455.859375 592.386719 456.394531 592.371094 456.929688 C 592.351562 457.464844 592.363281 458 592.398438 458.535156 C 592.433594 459.070312 592.492188 459.601562 592.582031 460.132812 C 592.667969 460.660156 592.78125 461.183594 592.921875 461.699219 C 593.058594 462.21875 593.222656 462.730469 593.414062 463.230469 C 593.601562 463.730469 593.816406 464.222656 594.050781 464.703125 C 594.289062 465.183594 594.550781 465.652344 594.832031 466.109375 C 595.117188 466.5625 595.421875 467.003906 595.746094 467.429688 C 596.074219 467.851562 596.421875 468.261719 596.789062 468.652344 C 597.152344 469.042969 597.539062 469.417969 597.941406 469.769531 C 598.34375 470.121094 598.765625 470.457031 599.199219 470.769531 C 599.636719 471.078125 600.085938 471.371094 600.550781 471.636719 Z M 600.113281 471.527344 " fill-opacity="1" fill-rule="nonzero"/><g clip-path="url(#4dcaaba793)"><path fill="#00a5e9" d="M 744.734375 340.542969 C 744.734375 340.007812 744.707031 339.472656 744.652344 338.941406 C 744.601562 338.40625 744.523438 337.878906 744.417969 337.351562 C 744.3125 336.828125 744.183594 336.308594 744.027344 335.792969 C 743.871094 335.28125 743.691406 334.777344 743.488281 334.28125 C 743.28125 333.789062 743.054688 333.304688 742.800781 332.832031 C 742.546875 332.359375 742.273438 331.898438 741.976562 331.453125 C 741.679688 331.007812 741.359375 330.578125 741.019531 330.164062 C 740.679688 329.75 740.320312 329.355469 739.941406 328.976562 C 739.5625 328.597656 739.164062 328.238281 738.75 327.898438 C 738.335938 327.558594 737.90625 327.238281 737.460938 326.941406 C 737.015625 326.644531 736.558594 326.367188 736.085938 326.117188 C 735.613281 325.863281 735.128906 325.632812 734.632812 325.429688 C 734.136719 325.222656 733.636719 325.042969 733.121094 324.886719 C 732.609375 324.734375 732.089844 324.601562 731.566406 324.5 C 731.039062 324.394531 730.511719 324.316406 729.976562 324.261719 C 729.445312 324.210938 728.910156 324.183594 728.375 324.183594 L 639.269531 324.183594 C 638.734375 324.183594 638.199219 324.210938 637.664062 324.261719 C 637.132812 324.316406 636.601562 324.394531 636.078125 324.5 C 635.550781 324.601562 635.03125 324.734375 634.519531 324.886719 C 634.007812 325.042969 633.503906 325.222656 633.007812 325.429688 C 632.511719 325.632812 632.027344 325.863281 631.554688 326.117188 C 631.085938 326.367188 630.625 326.644531 630.179688 326.941406 C 629.734375 327.238281 629.304688 327.558594 628.890625 327.898438 C 628.476562 328.238281 628.078125 328.597656 627.699219 328.976562 C 627.320312 329.355469 626.960938 329.75 626.621094 330.164062 C 626.28125 330.578125 625.964844 331.007812 625.664062 331.453125 C 625.367188 331.898438 625.09375 332.359375 624.839844 332.832031 C 624.589844 333.304688 624.359375 333.789062 624.152344 334.28125 C 623.949219 334.777344 623.769531 335.28125 623.613281 335.792969 C 623.457031 336.308594 623.328125 336.828125 623.222656 337.351562 C 623.117188 337.878906 623.039062 338.40625 622.988281 338.941406 C 622.933594 339.472656 622.910156 340.007812 622.910156 340.542969 C 622.910156 341.078125 622.933594 341.613281 622.988281 342.148438 C 623.039062 342.679688 623.117188 343.210938 623.222656 343.734375 C 623.328125 344.261719 623.457031 344.78125 623.613281 345.292969 C 623.769531 345.804688 623.949219 346.308594 624.152344 346.804688 C 624.359375 347.300781 624.589844 347.78125 624.839844 348.253906 C 625.09375 348.726562 625.367188 349.1875 625.664062 349.632812 C 625.964844 350.078125 626.28125 350.507812 626.621094 350.921875 C 626.960938 351.335938 627.320312 351.734375 627.699219 352.113281 C 628.078125 352.492188 628.476562 352.851562 628.890625 353.191406 C 629.304688 353.53125 629.734375 353.847656 630.179688 354.144531 C 630.625 354.445312 631.085938 354.71875 631.554688 354.972656 C 632.027344 355.222656 632.511719 355.453125 633.007812 355.65625 C 633.503906 355.863281 634.007812 356.042969 634.519531 356.199219 C 635.03125 356.355469 635.550781 356.484375 636.078125 356.589844 C 636.601562 356.691406 637.132812 356.773438 637.664062 356.824219 C 638.199219 356.875 638.734375 356.902344 639.269531 356.902344 L 728.375 356.902344 C 728.910156 356.902344 729.445312 356.875 729.976562 356.824219 C 730.511719 356.773438 731.039062 356.691406 731.566406 356.589844 C 732.089844 356.484375 732.609375 356.355469 733.121094 356.199219 C 733.636719 356.042969 734.140625 355.863281 734.632812 355.65625 C 735.128906 355.453125 735.613281 355.222656 736.085938 354.972656 C 736.558594 354.71875 737.015625 354.445312 737.460938 354.144531 C 737.90625 353.847656 738.335938 353.53125 738.75 353.191406 C 739.164062 352.851562 739.5625 352.492188 739.941406 352.113281 C 740.320312 351.734375 740.679688 351.335938 741.019531 350.921875 C 741.359375 350.507812 741.679688 350.078125 741.976562 349.632812 C 742.273438 349.1875 742.546875 348.726562 742.800781 348.253906 C 743.054688 347.78125 743.28125 347.300781 743.488281 346.804688 C 743.691406 346.308594 743.871094 345.804688 744.027344 345.292969 C 744.183594 344.78125 744.3125 344.261719 744.417969 343.734375 C 744.523438 343.210938 744.601562 342.679688 744.652344 342.148438 C 744.707031 341.613281 744.734375 341.078125 744.734375 340.542969 Z M 744.734375 340.542969 " fill-opacity="1" fill-rule="nonzero"/></g><path fill="#00a5e9" d="M 607.640625 240.3125 C 610.5625 240.324219 613.289062 239.59375 615.820312 238.132812 L 692.925781 193.417969 C 693.390625 193.148438 693.84375 192.859375 694.277344 192.546875 C 694.714844 192.234375 695.132812 191.902344 695.535156 191.546875 C 695.941406 191.195312 696.324219 190.824219 696.691406 190.433594 C 697.058594 190.039062 697.402344 189.632812 697.730469 189.207031 C 698.058594 188.78125 698.363281 188.34375 698.644531 187.886719 C 698.929688 187.429688 699.1875 186.964844 699.425781 186.484375 C 699.664062 186.003906 699.875 185.511719 700.066406 185.007812 C 700.253906 184.507812 700.417969 183.996094 700.558594 183.480469 C 700.695312 182.960938 700.808594 182.4375 700.898438 181.910156 C 700.984375 181.382812 701.046875 180.847656 701.082031 180.3125 C 701.117188 179.78125 701.125 179.242188 701.109375 178.707031 C 701.089844 178.171875 701.046875 177.640625 700.976562 177.105469 C 700.90625 176.574219 700.8125 176.050781 700.691406 175.527344 C 700.570312 175.003906 700.421875 174.488281 700.25 173.980469 C 700.078125 173.472656 699.878906 172.976562 699.660156 172.488281 C 699.4375 172 699.195312 171.523438 698.925781 171.058594 C 698.660156 170.59375 698.367188 170.144531 698.054688 169.707031 C 697.742188 169.273438 697.410156 168.851562 697.058594 168.449219 C 696.703125 168.046875 696.332031 167.660156 695.941406 167.296875 C 695.550781 166.929688 695.140625 166.582031 694.714844 166.253906 C 694.292969 165.929688 693.851562 165.625 693.394531 165.339844 C 692.941406 165.058594 692.472656 164.796875 691.992188 164.558594 C 691.511719 164.324219 691.019531 164.109375 690.519531 163.921875 C 690.015625 163.730469 689.507812 163.566406 688.988281 163.429688 C 688.472656 163.289062 687.949219 163.175781 687.417969 163.089844 C 686.890625 163 686.359375 162.941406 685.824219 162.90625 C 685.289062 162.871094 684.753906 162.859375 684.21875 162.878906 C 683.683594 162.894531 683.148438 162.941406 682.617188 163.007812 C 682.085938 163.078125 681.558594 163.175781 681.035156 163.296875 C 680.515625 163.417969 680 163.566406 679.492188 163.738281 C 678.984375 163.910156 678.484375 164.105469 677.996094 164.328125 C 677.507812 164.546875 677.03125 164.792969 676.566406 165.058594 L 599.460938 209.558594 C 598.683594 210.003906 597.949219 210.511719 597.257812 211.078125 C 596.566406 211.644531 595.921875 212.265625 595.332031 212.9375 C 594.742188 213.609375 594.210938 214.328125 593.738281 215.085938 C 593.261719 215.84375 592.855469 216.640625 592.511719 217.464844 C 592.167969 218.292969 591.894531 219.140625 591.691406 220.011719 C 591.488281 220.882812 591.355469 221.765625 591.296875 222.660156 C 591.238281 223.554688 591.253906 224.445312 591.339844 225.335938 C 591.429688 226.226562 591.585938 227.105469 591.820312 227.96875 C 592.050781 228.832031 592.351562 229.671875 592.722656 230.488281 C 593.089844 231.304688 593.523438 232.085938 594.019531 232.828125 C 594.519531 233.574219 595.074219 234.269531 595.6875 234.925781 C 596.296875 235.578125 596.960938 236.175781 597.667969 236.71875 C 598.378906 237.265625 599.128906 237.746094 599.917969 238.167969 C 600.710938 238.589844 601.527344 238.945312 602.375 239.230469 C 603.222656 239.519531 604.089844 239.734375 604.972656 239.878906 C 605.855469 240.023438 606.746094 240.097656 607.640625 240.097656 Z M 607.640625 240.3125 " fill-opacity="1" fill-rule="nonzero"/><path fill="#00a5e9" d="M 521.917969 154.917969 C 523.351562 154.917969 524.765625 154.734375 526.152344 154.363281 C 527.542969 153.992188 528.855469 153.445312 530.101562 152.726562 C 531.347656 152.011719 532.476562 151.144531 533.492188 150.128906 C 534.507812 149.113281 535.375 147.980469 536.09375 146.738281 L 580.59375 69.628906 C 580.859375 69.164062 581.105469 68.6875 581.324219 68.199219 C 581.546875 67.710938 581.742188 67.214844 581.914062 66.707031 C 582.085938 66.199219 582.234375 65.683594 582.355469 65.160156 C 582.476562 64.640625 582.574219 64.113281 582.644531 63.582031 C 582.714844 63.050781 582.757812 62.515625 582.773438 61.980469 C 582.792969 61.445312 582.78125 60.910156 582.746094 60.375 C 582.710938 59.839844 582.652344 59.308594 582.5625 58.777344 C 582.476562 58.25 582.363281 57.726562 582.222656 57.207031 C 582.085938 56.691406 581.921875 56.179688 581.730469 55.679688 C 581.542969 55.175781 581.328125 54.6875 581.09375 54.207031 C 580.855469 53.726562 580.59375 53.257812 580.3125 52.800781 C 580.027344 52.347656 579.722656 51.90625 579.398438 51.480469 C 579.070312 51.054688 578.722656 50.648438 578.355469 50.257812 C 577.992188 49.867188 577.605469 49.492188 577.203125 49.140625 C 576.800781 48.785156 576.378906 48.453125 575.945312 48.140625 C 575.507812 47.828125 575.058594 47.539062 574.59375 47.273438 C 574.128906 47.003906 573.652344 46.757812 573.164062 46.539062 C 572.675781 46.316406 572.179688 46.121094 571.671875 45.949219 C 571.164062 45.777344 570.648438 45.628906 570.125 45.507812 C 569.605469 45.386719 569.078125 45.289062 568.546875 45.222656 C 568.015625 45.152344 567.480469 45.105469 566.945312 45.089844 C 566.410156 45.074219 565.875 45.082031 565.339844 45.117188 C 564.804688 45.152344 564.269531 45.214844 563.742188 45.300781 C 563.214844 45.386719 562.691406 45.5 562.171875 45.640625 C 561.65625 45.78125 561.144531 45.941406 560.644531 46.132812 C 560.140625 46.320312 559.648438 46.535156 559.167969 46.773438 C 558.6875 47.007812 558.222656 47.269531 557.765625 47.550781 C 557.3125 47.835938 556.871094 48.140625 556.445312 48.46875 C 556.019531 48.792969 555.613281 49.140625 555.222656 49.507812 C 554.828125 49.875 554.457031 50.257812 554.105469 50.660156 C 553.75 51.066406 553.417969 51.484375 553.105469 51.917969 C 552.792969 52.355469 552.503906 52.804688 552.234375 53.269531 L 507.738281 130.378906 C 507.019531 131.621094 506.476562 132.9375 506.101562 134.324219 C 505.730469 135.710938 505.546875 137.125 505.546875 138.558594 C 505.546875 139.996094 505.734375 141.410156 506.105469 142.796875 C 506.476562 144.183594 507.023438 145.5 507.742188 146.742188 C 508.460938 147.984375 509.328125 149.117188 510.34375 150.128906 C 511.359375 151.144531 512.488281 152.011719 513.734375 152.730469 C 514.976562 153.445312 516.292969 153.992188 517.679688 154.363281 C 519.066406 154.734375 520.480469 154.917969 521.917969 154.917969 Z M 521.917969 154.917969 " fill-opacity="1" fill-rule="nonzero"/><path fill="#00a5e9" d="M 405 298.664062 C 403.699219 298.671875 402.398438 298.742188 401.105469 298.875 C 399.808594 299.011719 398.523438 299.207031 397.246094 299.46875 C 395.972656 299.730469 394.710938 300.050781 393.46875 300.4375 C 392.222656 300.820312 391 301.265625 389.800781 301.769531 C 388.597656 302.273438 387.425781 302.835938 386.28125 303.457031 C 385.136719 304.074219 384.023438 304.75 382.945312 305.476562 C 381.863281 306.207031 380.824219 306.984375 379.820312 307.816406 C 378.816406 308.648438 377.859375 309.527344 376.941406 310.449219 C 376.023438 311.375 375.15625 312.34375 374.335938 313.355469 C 373.511719 314.363281 372.742188 315.414062 372.023438 316.496094 C 371.304688 317.582031 370.640625 318.703125 370.03125 319.855469 C 369.421875 321.003906 368.871094 322.183594 368.378906 323.386719 C 367.882812 324.59375 367.453125 325.820312 367.078125 327.066406 C 366.707031 328.316406 366.394531 329.578125 366.144531 330.855469 C 365.894531 332.132812 365.710938 333.421875 365.585938 334.71875 C 365.464844 336.015625 365.40625 337.3125 365.410156 338.617188 C 365.414062 339.917969 365.484375 341.21875 365.617188 342.511719 C 365.746094 343.808594 365.941406 345.09375 366.203125 346.371094 C 366.460938 347.648438 366.78125 348.90625 367.164062 350.152344 C 367.542969 351.398438 367.988281 352.621094 368.488281 353.820312 C 368.992188 355.023438 369.550781 356.199219 370.167969 357.34375 C 370.785156 358.492188 371.457031 359.605469 372.183594 360.683594 C 372.910156 361.765625 373.6875 362.808594 374.519531 363.8125 C 375.347656 364.816406 376.222656 365.777344 377.144531 366.695312 C 378.070312 367.613281 379.035156 368.484375 380.042969 369.308594 C 381.054688 370.132812 382.101562 370.90625 383.183594 371.625 C 384.269531 372.347656 385.386719 373.011719 386.535156 373.625 C 387.6875 374.234375 388.863281 374.789062 390.066406 375.28125 C 391.273438 375.777344 392.496094 376.214844 393.746094 376.589844 C 394.992188 376.964844 396.253906 377.277344 397.53125 377.53125 C 398.808594 377.78125 400.097656 377.96875 401.394531 378.09375 C 402.6875 378.21875 403.988281 378.28125 405.289062 378.277344 C 406.59375 378.277344 407.890625 378.210938 409.1875 378.082031 C 410.484375 377.949219 411.769531 377.757812 413.046875 377.5 C 414.324219 377.246094 415.585938 376.925781 416.828125 376.546875 C 418.074219 376.167969 419.300781 375.726562 420.503906 375.226562 C 421.703125 374.726562 422.878906 374.171875 424.027344 373.554688 C 425.175781 372.9375 426.289062 372.269531 427.371094 371.542969 C 428.453125 370.820312 429.496094 370.042969 430.503906 369.21875 C 431.507812 368.390625 432.472656 367.515625 433.390625 366.59375 C 434.3125 365.671875 435.183594 364.707031 436.011719 363.699219 C 436.835938 362.691406 437.609375 361.648438 438.332031 360.5625 C 439.054688 359.480469 439.722656 358.363281 440.335938 357.214844 C 440.949219 356.066406 441.503906 354.890625 442.003906 353.6875 C 442.5 352.484375 442.9375 351.261719 443.316406 350.015625 C 443.695312 348.765625 444.007812 347.503906 444.261719 346.226562 C 444.515625 344.949219 444.707031 343.664062 444.835938 342.367188 C 444.960938 341.074219 445.027344 339.773438 445.027344 338.472656 C 445.027344 337.164062 444.960938 335.859375 444.832031 334.554688 C 444.703125 333.253906 444.511719 331.960938 444.257812 330.679688 C 444 329.394531 443.679688 328.128906 443.300781 326.875 C 442.917969 325.625 442.476562 324.394531 441.976562 323.1875 C 441.472656 321.980469 440.914062 320.796875 440.292969 319.644531 C 439.675781 318.492188 439 317.375 438.273438 316.285156 C 437.542969 315.199219 436.761719 314.152344 435.929688 313.144531 C 435.097656 312.132812 434.21875 311.167969 433.289062 310.246094 C 432.363281 309.324219 431.390625 308.449219 430.378906 307.621094 C 429.363281 306.792969 428.3125 306.019531 427.222656 305.296875 C 426.128906 304.574219 425.007812 303.90625 423.851562 303.292969 C 422.695312 302.679688 421.511719 302.125 420.300781 301.628906 C 419.089844 301.132812 417.859375 300.699219 416.605469 300.324219 C 415.351562 299.953125 414.082031 299.640625 412.796875 299.390625 C 411.511719 299.140625 410.21875 298.957031 408.917969 298.835938 C 407.613281 298.714844 406.308594 298.65625 405 298.664062 Z M 405 356.359375 C 404.410156 356.351562 403.824219 356.316406 403.238281 356.25 C 402.65625 356.183594 402.074219 356.09375 401.5 355.96875 C 400.921875 355.847656 400.355469 355.699219 399.792969 355.519531 C 399.230469 355.34375 398.679688 355.140625 398.140625 354.90625 C 397.597656 354.675781 397.070312 354.417969 396.554688 354.136719 C 396.039062 353.851562 395.535156 353.542969 395.050781 353.210938 C 394.566406 352.878906 394.097656 352.523438 393.648438 352.144531 C 393.195312 351.765625 392.765625 351.367188 392.351562 350.945312 C 391.941406 350.523438 391.550781 350.085938 391.183594 349.625 C 390.816406 349.167969 390.46875 348.691406 390.148438 348.199219 C 389.828125 347.707031 389.53125 347.199219 389.257812 346.675781 C 388.984375 346.152344 388.738281 345.621094 388.519531 345.074219 C 388.300781 344.527344 388.109375 343.972656 387.945312 343.40625 C 387.777344 342.839844 387.640625 342.269531 387.535156 341.691406 C 387.425781 341.113281 387.34375 340.53125 387.292969 339.945312 C 387.242188 339.359375 387.21875 338.769531 387.222656 338.183594 C 387.230469 337.59375 387.265625 337.007812 387.328125 336.421875 C 387.390625 335.835938 387.484375 335.253906 387.605469 334.679688 C 387.722656 334.101562 387.871094 333.535156 388.050781 332.972656 C 388.226562 332.410156 388.429688 331.859375 388.660156 331.316406 C 388.890625 330.777344 389.144531 330.246094 389.429688 329.730469 C 389.710938 329.214844 390.019531 328.714844 390.347656 328.226562 C 390.679688 327.742188 391.035156 327.269531 391.414062 326.820312 C 391.789062 326.367188 392.191406 325.9375 392.609375 325.523438 C 393.03125 325.113281 393.46875 324.71875 393.925781 324.351562 C 394.386719 323.980469 394.859375 323.636719 395.351562 323.3125 C 395.84375 322.992188 396.351562 322.691406 396.875 322.417969 C 397.394531 322.148438 397.929688 321.898438 398.472656 321.679688 C 399.019531 321.457031 399.574219 321.265625 400.140625 321.097656 C 400.703125 320.933594 401.277344 320.796875 401.855469 320.683594 C 402.433594 320.574219 403.015625 320.492188 403.601562 320.441406 C 404.1875 320.386719 404.773438 320.363281 405.363281 320.367188 C 405.953125 320.375 406.539062 320.40625 407.125 320.46875 C 407.710938 320.53125 408.289062 320.621094 408.867188 320.742188 C 409.441406 320.859375 410.011719 321.007812 410.574219 321.183594 C 411.136719 321.359375 411.6875 321.5625 412.230469 321.789062 C 412.773438 322.019531 413.300781 322.273438 413.820312 322.554688 C 414.335938 322.835938 414.835938 323.144531 415.324219 323.472656 C 415.8125 323.804688 416.28125 324.15625 416.734375 324.535156 C 417.1875 324.910156 417.617188 325.308594 418.03125 325.726562 C 418.445312 326.148438 418.835938 326.585938 419.207031 327.042969 C 419.578125 327.5 419.925781 327.976562 420.25 328.46875 C 420.570312 328.957031 420.871094 329.464844 421.144531 329.984375 C 421.417969 330.507812 421.667969 331.039062 421.886719 331.585938 C 422.109375 332.128906 422.304688 332.683594 422.472656 333.25 C 422.640625 333.8125 422.777344 334.386719 422.890625 334.964844 C 423 335.542969 423.082031 336.125 423.136719 336.710938 C 423.191406 337.296875 423.21875 337.882812 423.214844 338.472656 C 423.214844 339.066406 423.183594 339.65625 423.125 340.25 C 423.066406 340.839844 422.980469 341.425781 422.863281 342.007812 C 422.746094 342.589844 422.601562 343.167969 422.425781 343.734375 C 422.253906 344.300781 422.050781 344.859375 421.824219 345.410156 C 421.59375 345.957031 421.339844 346.492188 421.058594 347.015625 C 420.773438 347.539062 420.46875 348.046875 420.136719 348.539062 C 419.804688 349.03125 419.449219 349.503906 419.070312 349.960938 C 418.6875 350.417969 418.289062 350.855469 417.867188 351.273438 C 417.445312 351.691406 417 352.085938 416.539062 352.460938 C 416.078125 352.835938 415.597656 353.183594 415.101562 353.511719 C 414.605469 353.835938 414.09375 354.136719 413.570312 354.414062 C 413.042969 354.6875 412.503906 354.9375 411.953125 355.160156 C 411.402344 355.382812 410.84375 355.578125 410.273438 355.742188 C 409.703125 355.910156 409.125 356.050781 408.542969 356.160156 C 407.957031 356.269531 407.371094 356.347656 406.777344 356.398438 C 406.1875 356.453125 405.59375 356.472656 405 356.464844 Z M 405 356.359375 " fill-opacity="1" fill-rule="nonzero"/><path fill="#00a5e9" d="M 503.15625 310.878906 L 484.070312 310.878906 C 483.042969 307.863281 481.839844 304.917969 480.472656 302.042969 L 493.996094 288.519531 C 494.5 288.015625 494.949219 287.464844 495.34375 286.871094 C 495.738281 286.277344 496.070312 285.648438 496.34375 284.988281 C 496.617188 284.332031 496.820312 283.652344 496.960938 282.949219 C 497.097656 282.25 497.167969 281.542969 497.167969 280.832031 C 497.167969 280.117188 497.097656 279.410156 496.960938 278.710938 C 496.820312 278.011719 496.617188 277.332031 496.34375 276.671875 C 496.070312 276.011719 495.738281 275.386719 495.34375 274.792969 C 494.949219 274.199219 494.5 273.648438 493.996094 273.140625 L 470.4375 249.585938 C 469.933594 249.082031 469.382812 248.632812 468.789062 248.238281 C 468.195312 247.84375 467.566406 247.507812 466.90625 247.238281 C 466.25 246.964844 465.570312 246.757812 464.867188 246.621094 C 464.167969 246.480469 463.460938 246.414062 462.75 246.414062 C 462.035156 246.414062 461.328125 246.480469 460.628906 246.621094 C 459.929688 246.757812 459.25 246.964844 458.589844 247.238281 C 457.929688 247.507812 457.304688 247.84375 456.710938 248.238281 C 456.117188 248.632812 455.566406 249.082031 455.058594 249.585938 L 441.535156 263.109375 C 438.660156 261.738281 435.714844 260.539062 432.703125 259.507812 L 432.703125 240.3125 C 432.703125 239.597656 432.632812 238.890625 432.492188 238.1875 C 432.351562 237.484375 432.144531 236.800781 431.871094 236.140625 C 431.597656 235.480469 431.261719 234.851562 430.863281 234.253906 C 430.464844 233.660156 430.015625 233.109375 429.507812 232.601562 C 429 232.097656 428.449219 231.644531 427.855469 231.246094 C 427.257812 230.847656 426.632812 230.511719 425.96875 230.238281 C 425.308594 229.964844 424.625 229.757812 423.921875 229.617188 C 423.222656 229.476562 422.511719 229.40625 421.796875 229.40625 L 388.3125 229.40625 C 387.597656 229.40625 386.886719 229.476562 386.1875 229.617188 C 385.484375 229.757812 384.800781 229.964844 384.140625 230.238281 C 383.476562 230.511719 382.847656 230.847656 382.253906 231.246094 C 381.660156 231.644531 381.109375 232.097656 380.601562 232.601562 C 380.09375 233.109375 379.644531 233.660156 379.246094 234.253906 C 378.847656 234.851562 378.511719 235.480469 378.238281 236.140625 C 377.964844 236.800781 377.757812 237.484375 377.617188 238.1875 C 377.476562 238.890625 377.40625 239.597656 377.40625 240.3125 L 377.40625 259.507812 C 374.429688 260.542969 371.523438 261.742188 368.683594 263.109375 L 355.050781 249.476562 C 354.542969 248.972656 353.992188 248.523438 353.398438 248.128906 C 352.804688 247.734375 352.179688 247.398438 351.519531 247.128906 C 350.859375 246.855469 350.179688 246.652344 349.480469 246.511719 C 348.78125 246.375 348.074219 246.304688 347.359375 246.304688 C 346.648438 246.304688 345.941406 246.375 345.238281 246.511719 C 344.539062 246.652344 343.859375 246.855469 343.203125 247.128906 C 342.542969 247.398438 341.914062 247.734375 341.320312 248.128906 C 340.726562 248.523438 340.175781 248.972656 339.671875 249.476562 L 316.113281 273.03125 C 315.609375 273.539062 315.160156 274.089844 314.765625 274.683594 C 314.371094 275.277344 314.039062 275.902344 313.765625 276.5625 C 313.492188 277.222656 313.289062 277.902344 313.148438 278.601562 C 313.011719 279.300781 312.941406 280.007812 312.941406 280.722656 C 312.941406 281.4375 313.011719 282.140625 313.148438 282.84375 C 313.289062 283.542969 313.492188 284.222656 313.765625 284.878906 C 314.039062 285.539062 314.371094 286.167969 314.765625 286.761719 C 315.160156 287.355469 315.609375 287.90625 316.113281 288.410156 L 329.855469 302.152344 C 328.492188 304.957031 327.292969 307.828125 326.257812 310.769531 L 306.84375 310.769531 C 306.125 310.769531 305.417969 310.839844 304.714844 310.980469 C 304.011719 311.117188 303.332031 311.324219 302.667969 311.597656 C 302.007812 311.875 301.378906 312.210938 300.785156 312.605469 C 300.1875 313.003906 299.636719 313.457031 299.132812 313.964844 C 298.625 314.46875 298.171875 315.019531 297.773438 315.617188 C 297.375 316.210938 297.039062 316.839844 296.765625 317.5 C 296.492188 318.164062 296.285156 318.84375 296.144531 319.546875 C 296.007812 320.25 295.9375 320.960938 295.9375 321.675781 L 295.9375 355.050781 C 295.9375 355.765625 296.007812 356.472656 296.144531 357.175781 C 296.285156 357.878906 296.492188 358.5625 296.765625 359.222656 C 297.039062 359.882812 297.375 360.511719 297.773438 361.109375 C 298.171875 361.703125 298.625 362.253906 299.132812 362.761719 C 299.636719 363.265625 300.1875 363.71875 300.785156 364.117188 C 301.378906 364.515625 302.007812 364.851562 302.667969 365.125 C 303.332031 365.398438 304.011719 365.605469 304.714844 365.746094 C 305.417969 365.886719 306.125 365.957031 306.84375 365.957031 L 326.363281 365.957031 C 327.371094 368.855469 328.535156 371.691406 329.855469 374.460938 L 316.003906 388.3125 C 315.5 388.820312 315.050781 389.371094 314.65625 389.964844 C 314.261719 390.558594 313.929688 391.183594 313.65625 391.84375 C 313.382812 392.503906 313.179688 393.183594 313.039062 393.882812 C 312.902344 394.582031 312.832031 395.289062 312.832031 396.003906 C 312.832031 396.714844 312.902344 397.421875 313.039062 398.121094 C 313.179688 398.820312 313.382812 399.5 313.65625 400.160156 C 313.929688 400.820312 314.261719 401.445312 314.65625 402.042969 C 315.050781 402.636719 315.5 403.183594 316.003906 403.691406 L 339.5625 427.359375 C 340.066406 427.859375 340.617188 428.308594 341.210938 428.703125 C 341.804688 429.101562 342.433594 429.433594 343.09375 429.707031 C 343.75 429.976562 344.429688 430.183594 345.132812 430.320312 C 345.832031 430.460938 346.539062 430.53125 347.25 430.53125 C 347.964844 430.53125 348.671875 430.460938 349.371094 430.320312 C 350.070312 430.183594 350.75 429.976562 351.410156 429.707031 C 352.070312 429.433594 352.695312 429.101562 353.289062 428.703125 C 353.882812 428.308594 354.433594 427.859375 354.941406 427.359375 L 368.789062 413.507812 C 371.5625 414.828125 374.398438 415.992188 377.296875 416.996094 L 377.296875 436.628906 C 377.296875 437.34375 377.367188 438.054688 377.507812 438.757812 C 377.648438 439.457031 377.855469 440.140625 378.128906 440.800781 C 378.402344 441.464844 378.738281 442.09375 379.136719 442.6875 C 379.535156 443.28125 379.984375 443.832031 380.492188 444.339844 C 381 444.847656 381.550781 445.296875 382.144531 445.695312 C 382.742188 446.09375 383.367188 446.429688 384.03125 446.703125 C 384.691406 446.980469 385.375 447.183594 386.078125 447.324219 C 386.777344 447.464844 387.488281 447.535156 388.203125 447.535156 L 421.578125 447.535156 C 422.292969 447.535156 423.003906 447.464844 423.707031 447.324219 C 424.40625 447.183594 425.089844 446.980469 425.75 446.703125 C 426.414062 446.429688 427.042969 446.09375 427.636719 445.695312 C 428.230469 445.296875 428.785156 444.847656 429.289062 444.339844 C 429.796875 443.832031 430.25 443.28125 430.644531 442.6875 C 431.042969 442.09375 431.378906 441.464844 431.652344 440.800781 C 431.929688 440.140625 432.132812 439.457031 432.273438 438.757812 C 432.414062 438.054688 432.484375 437.34375 432.484375 436.628906 L 432.484375 417.214844 C 435.425781 416.179688 438.296875 414.980469 441.101562 413.617188 L 454.84375 427.359375 C 455.347656 427.859375 455.898438 428.308594 456.492188 428.703125 C 457.085938 429.101562 457.710938 429.433594 458.371094 429.707031 C 459.03125 429.976562 459.710938 430.183594 460.410156 430.320312 C 461.109375 430.460938 461.816406 430.53125 462.53125 430.53125 C 463.246094 430.53125 463.949219 430.460938 464.652344 430.320312 C 465.351562 430.183594 466.03125 429.976562 466.691406 429.707031 C 467.347656 429.433594 467.976562 429.101562 468.570312 428.703125 C 469.164062 428.308594 469.714844 427.859375 470.21875 427.359375 L 493.886719 403.910156 C 494.390625 403.402344 494.839844 402.851562 495.234375 402.257812 C 495.628906 401.664062 495.960938 401.039062 496.234375 400.378906 C 496.507812 399.71875 496.710938 399.039062 496.851562 398.339844 C 496.988281 397.640625 497.058594 396.933594 497.058594 396.21875 C 497.058594 395.507812 496.988281 394.800781 496.851562 394.101562 C 496.710938 393.402344 496.507812 392.722656 496.234375 392.0625 C 495.960938 391.402344 495.628906 390.777344 495.234375 390.179688 C 494.839844 389.585938 494.390625 389.039062 493.886719 388.53125 L 480.253906 374.898438 C 481.625 372.058594 482.824219 369.152344 483.851562 366.171875 L 503.15625 366.171875 C 503.875 366.171875 504.582031 366.105469 505.285156 365.964844 C 505.988281 365.824219 506.667969 365.617188 507.332031 365.34375 C 507.992188 365.070312 508.621094 364.734375 509.214844 364.335938 C 509.8125 363.9375 510.363281 363.484375 510.867188 362.980469 C 511.375 362.472656 511.828125 361.921875 512.226562 361.328125 C 512.625 360.730469 512.960938 360.101562 513.234375 359.441406 C 513.507812 358.777344 513.714844 358.097656 513.855469 357.394531 C 513.992188 356.691406 514.0625 355.984375 514.0625 355.265625 L 514.0625 321.785156 C 514.0625 321.070312 513.992188 320.359375 513.855469 319.65625 C 513.714844 318.953125 513.507812 318.273438 513.234375 317.609375 C 512.960938 316.949219 512.625 316.320312 512.226562 315.726562 C 511.828125 315.128906 511.375 314.578125 510.867188 314.074219 C 510.363281 313.566406 509.8125 313.113281 509.214844 312.714844 C 508.621094 312.320312 507.992188 311.980469 507.332031 311.707031 C 506.667969 311.433594 505.988281 311.226562 505.285156 311.085938 C 504.582031 310.949219 503.875 310.878906 503.15625 310.878906 Z M 492.25 344.25 L 475.78125 344.25 C 475.160156 344.234375 474.542969 344.269531 473.925781 344.359375 C 473.308594 344.449219 472.707031 344.589844 472.113281 344.785156 C 471.523438 344.976562 470.953125 345.21875 470.402344 345.507812 C 469.851562 345.796875 469.328125 346.132812 468.835938 346.511719 C 468.34375 346.890625 467.886719 347.3125 467.464844 347.769531 C 467.042969 348.226562 466.664062 348.71875 466.328125 349.238281 C 465.988281 349.761719 465.699219 350.308594 465.457031 350.882812 C 465.210938 351.453125 465.019531 352.042969 464.875 352.648438 C 463.300781 359.160156 460.753906 365.269531 457.242188 370.972656 C 456.945312 371.507812 456.695312 372.066406 456.492188 372.648438 C 456.289062 373.226562 456.136719 373.820312 456.035156 374.425781 C 455.933594 375.027344 455.882812 375.640625 455.882812 376.253906 C 455.882812 376.867188 455.933594 377.476562 456.039062 378.082031 C 456.140625 378.6875 456.292969 379.277344 456.496094 379.855469 C 456.699219 380.4375 456.949219 380.992188 457.25 381.53125 C 457.546875 382.066406 457.886719 382.574219 458.269531 383.054688 C 458.652344 383.535156 459.074219 383.980469 459.53125 384.386719 L 470.4375 396.058594 L 462.257812 404.238281 L 450.914062 393.003906 C 450.503906 392.566406 450.058594 392.164062 449.582031 391.800781 C 449.101562 391.4375 448.597656 391.117188 448.066406 390.835938 C 447.535156 390.558594 446.984375 390.324219 446.417969 390.132812 C 445.847656 389.945312 445.265625 389.804688 444.671875 389.710938 C 444.078125 389.617188 443.480469 389.574219 442.882812 389.578125 C 442.28125 389.582031 441.683594 389.636719 441.09375 389.742188 C 440.503906 389.847656 439.921875 389.996094 439.359375 390.195312 C 438.792969 390.398438 438.246094 390.640625 437.71875 390.929688 C 432.058594 394.433594 425.988281 396.941406 419.503906 398.457031 C 418.898438 398.597656 418.3125 398.792969 417.738281 399.035156 C 417.164062 399.28125 416.617188 399.570312 416.09375 399.90625 C 415.574219 400.246094 415.082031 400.625 414.625 401.046875 C 414.167969 401.46875 413.75 401.925781 413.367188 402.417969 C 412.988281 402.910156 412.652344 403.433594 412.363281 403.980469 C 412.074219 404.53125 411.832031 405.101562 411.640625 405.695312 C 411.445312 406.285156 411.304688 406.890625 411.214844 407.507812 C 411.128906 408.121094 411.089844 408.742188 411.109375 409.363281 L 411.109375 425.722656 L 399.21875 425.722656 L 399.21875 408.925781 C 399.234375 408.304688 399.199219 407.683594 399.109375 407.070312 C 399.019531 406.453125 398.878906 405.851562 398.6875 405.257812 C 398.496094 404.667969 398.253906 404.097656 397.964844 403.546875 C 397.671875 402.996094 397.339844 402.472656 396.957031 401.980469 C 396.578125 401.488281 396.160156 401.03125 395.703125 400.609375 C 395.246094 400.1875 394.753906 399.808594 394.230469 399.472656 C 393.707031 399.132812 393.160156 398.84375 392.589844 398.601562 C 392.015625 398.355469 391.425781 398.164062 390.820312 398.019531 C 384.25 396.628906 378.070312 394.226562 372.28125 390.820312 C 371.765625 390.5 371.222656 390.226562 370.660156 389.996094 C 370.097656 389.769531 369.519531 389.585938 368.925781 389.453125 C 368.332031 389.320312 367.734375 389.238281 367.125 389.207031 C 366.519531 389.171875 365.914062 389.191406 365.308594 389.261719 C 364.703125 389.328125 364.109375 389.445312 363.527344 389.617188 C 362.941406 389.785156 362.375 390 361.828125 390.261719 C 361.277344 390.523438 360.757812 390.832031 360.257812 391.179688 C 359.761719 391.53125 359.296875 391.921875 358.867188 392.347656 L 347.414062 403.910156 L 339.5625 396.058594 L 351.449219 384.167969 C 351.839844 383.734375 352.191406 383.273438 352.507812 382.78125 C 352.824219 382.292969 353.101562 381.78125 353.332031 381.246094 C 353.566406 380.710938 353.757812 380.160156 353.902344 379.597656 C 354.046875 379.03125 354.148438 378.460938 354.203125 377.878906 C 354.253906 377.296875 354.261719 376.714844 354.222656 376.132812 C 354.183594 375.550781 354.097656 374.976562 353.964844 374.410156 C 353.832031 373.839844 353.65625 373.285156 353.4375 372.746094 C 353.214844 372.207031 352.953125 371.6875 352.648438 371.191406 C 349.167969 365.558594 346.660156 359.527344 345.125 353.085938 C 344.980469 352.480469 344.789062 351.890625 344.542969 351.320312 C 344.300781 350.746094 344.011719 350.199219 343.671875 349.675781 C 343.335938 349.152344 342.957031 348.664062 342.535156 348.203125 C 342.113281 347.746094 341.65625 347.328125 341.164062 346.949219 C 340.671875 346.570312 340.148438 346.234375 339.597656 345.945312 C 339.046875 345.652344 338.476562 345.414062 337.886719 345.21875 C 337.292969 345.027344 336.691406 344.886719 336.074219 344.796875 C 335.457031 344.707031 334.839844 344.671875 334.21875 344.6875 L 317.75 344.6875 L 317.75 332.691406 L 334.4375 332.691406 C 335.058594 332.707031 335.675781 332.671875 336.292969 332.582031 C 336.90625 332.492188 337.511719 332.351562 338.101562 332.160156 C 338.695312 331.964844 339.265625 331.726562 339.816406 331.433594 C 340.367188 331.144531 340.886719 330.808594 341.382812 330.429688 C 341.875 330.050781 342.332031 329.632812 342.753906 329.171875 C 343.175781 328.714844 343.554688 328.226562 343.890625 327.703125 C 344.226562 327.179688 344.519531 326.632812 344.761719 326.058594 C 345.007812 325.488281 345.199219 324.898438 345.34375 324.292969 C 346.738281 317.722656 349.140625 311.542969 352.539062 305.753906 C 352.828125 305.226562 353.074219 304.679688 353.273438 304.113281 C 353.472656 303.546875 353.625 302.96875 353.730469 302.378906 C 353.832031 301.785156 353.886719 301.191406 353.894531 300.589844 C 353.898438 299.988281 353.855469 299.394531 353.761719 298.800781 C 353.667969 298.207031 353.527344 297.625 353.335938 297.054688 C 353.148438 296.484375 352.914062 295.933594 352.632812 295.402344 C 352.355469 294.871094 352.03125 294.367188 351.667969 293.890625 C 351.304688 293.414062 350.90625 292.96875 350.46875 292.554688 L 339.5625 280.886719 L 347.742188 272.707031 L 359.085938 283.941406 C 359.519531 284.375 359.984375 284.769531 360.484375 285.125 C 360.984375 285.480469 361.511719 285.789062 362.066406 286.058594 C 362.617188 286.324219 363.191406 286.542969 363.777344 286.710938 C 364.367188 286.882812 364.96875 287.003906 365.578125 287.070312 C 366.1875 287.140625 366.800781 287.15625 367.414062 287.121094 C 368.027344 287.089844 368.632812 287.003906 369.230469 286.867188 C 369.828125 286.730469 370.410156 286.542969 370.976562 286.308594 C 371.546875 286.074219 372.089844 285.792969 372.609375 285.464844 C 378.296875 281.917969 384.40625 279.375 390.929688 277.832031 C 391.535156 277.6875 392.125 277.496094 392.699219 277.253906 C 393.269531 277.007812 393.816406 276.71875 394.339844 276.378906 C 394.863281 276.042969 395.355469 275.664062 395.8125 275.242188 C 396.269531 274.820312 396.6875 274.363281 397.066406 273.871094 C 397.445312 273.378906 397.78125 272.855469 398.074219 272.304688 C 398.363281 271.753906 398.605469 271.183594 398.796875 270.59375 C 398.988281 270 399.128906 269.398438 399.21875 268.78125 C 399.308594 268.167969 399.34375 267.546875 399.328125 266.925781 L 399.328125 251.21875 L 410.890625 251.21875 L 410.890625 267.578125 C 410.871094 268.203125 410.910156 268.820312 411 269.4375 C 411.085938 270.050781 411.230469 270.65625 411.421875 271.246094 C 411.613281 271.839844 411.855469 272.410156 412.144531 272.960938 C 412.4375 273.511719 412.769531 274.03125 413.152344 274.523438 C 413.53125 275.019531 413.949219 275.476562 414.40625 275.898438 C 414.863281 276.316406 415.355469 276.699219 415.878906 277.035156 C 416.398438 277.371094 416.949219 277.664062 417.519531 277.90625 C 418.09375 278.148438 418.683594 278.34375 419.289062 278.484375 C 425.851562 280.011719 431.996094 282.558594 437.71875 286.121094 C 438.25 286.414062 438.804688 286.660156 439.375 286.863281 C 439.949219 287.0625 440.535156 287.214844 441.132812 287.316406 C 441.730469 287.421875 442.332031 287.472656 442.941406 287.476562 C 443.546875 287.480469 444.152344 287.429688 444.75 287.332031 C 445.347656 287.234375 445.933594 287.085938 446.511719 286.890625 C 447.085938 286.695312 447.636719 286.453125 448.171875 286.164062 C 448.707031 285.875 449.210938 285.542969 449.691406 285.171875 C 450.171875 284.796875 450.613281 284.386719 451.023438 283.941406 L 462.585938 273.03125 L 470.765625 281.214844 L 459.53125 292.335938 C 459.089844 292.757812 458.6875 293.214844 458.324219 293.703125 C 457.960938 294.195312 457.640625 294.710938 457.363281 295.253906 C 457.082031 295.796875 456.855469 296.359375 456.671875 296.941406 C 456.488281 297.523438 456.355469 298.117188 456.269531 298.722656 C 456.1875 299.328125 456.15625 299.933594 456.171875 300.542969 C 456.191406 301.152344 456.261719 301.757812 456.378906 302.355469 C 456.5 302.953125 456.667969 303.539062 456.886719 304.109375 C 457.105469 304.679688 457.367188 305.226562 457.675781 305.753906 C 461.234375 311.476562 463.777344 317.621094 465.3125 324.183594 C 465.453125 324.789062 465.648438 325.378906 465.890625 325.949219 C 466.136719 326.523438 466.425781 327.070312 466.761719 327.59375 C 467.101562 328.117188 467.480469 328.605469 467.902344 329.066406 C 468.324219 329.523438 468.78125 329.941406 469.273438 330.320312 C 469.765625 330.699219 470.289062 331.035156 470.839844 331.324219 C 471.386719 331.617188 471.960938 331.859375 472.550781 332.050781 C 473.144531 332.242188 473.746094 332.382812 474.363281 332.472656 C 474.976562 332.5625 475.597656 332.597656 476.21875 332.582031 L 492.25 332.582031 Z M 492.25 344.25 " fill-opacity="1" fill-rule="nonzero"/></svg>